<svg xmlns="http://www.w3.org/2000/svg" viewBox="0 0 192 196.88"><defs><style>.cls-1{fill:#c2002f;}.cls-2{fill:#dc0031;}.cls-3{fill:#fefefe;}.cls-4{fill:#dc0131;}.cls-5{fill:#c20230;}</style></defs><title>Angular</title><g id="Capa_2" data-name="Capa 2"><g id="Angular"><path class="cls-1" d="M96.39,0c5.88,1.82,11.79,3.53,17.62,5.48,12.21,4.08,24.41,8.18,36.52,12.51,4.23,1.51,8.58,2.7,12.74,4.34s8.54,3,12.86,4.34c4,1.26,7.63,3.34,11.82,4.24,3.63.77,4.35,2.08,4,5.42-1.27,10.72-2.78,21.41-4,32.14-.61,5.65-1.25,11.33-2.12,16.91-1.6,10.32-2.19,20.73-3.77,31.05-1.73,11.21-2.68,22.53-3.83,33.81-.26,2.56-1,4.32-3.58,5.67-25.71,13.51-51.34,27.15-77,40.72a6.59,6.59,0,0,1-2.35.25l.14-74c7.08-.06,14.15,0,21.22-.24,3.79-.13,5.88,1.27,7.2,4.7,2.75,7.19,5.89,14.24,8.76,21.39a3.67,3.67,0,0,0,4.12,2.67c4.58-.17,9.18,0,13.77,0,5.45,0,5.66-.35,3.52-5.17-.07-.17-.09-.36-.17-.53q-27.57-59.49-55.19-119a53.49,53.49,0,0,0-3.08-5c0-6.21-.15-12.41-.11-18.62A10.81,10.81,0,0,1,96.39,0Z"/><path class="cls-2" d="M95.42,122.87l-.14,74q-19.07-10-38.11-20c-8-4.18-15.89-8.41-23.84-12.61-5.47-2.89-10.92-5.81-16.45-8.61-2.14-1.09-2.8-2.72-3-4.88-1.95-17.48-3.89-35-6-52.42S3.47,63.47,1.28,46C.89,42.93.48,39.84.17,36.75-.31,32,0,32.12,3.91,30.82,27.25,23,50.52,14.91,73.81,6.92,79.9,4.83,86,2.67,92.08.66A25.46,25.46,0,0,1,96.39,0a10.81,10.81,0,0,0-.93,3c0,6.21.06,12.41.11,18.62-1.69,3.76-3.33,7.55-5.07,11.29Q75.95,64.16,61.36,95.37q-12.12,26-24.2,52c-1.37,2.94-1.28,3.08,1.8,3.11,5.36.06,10.73-.14,16.08.09,2.61.1,3.76-1,4.62-3.07,2.84-7,5.88-13.87,8.64-20.87,1.09-2.76,2.78-4.06,5.88-4C81.26,122.8,88.34,122.81,95.42,122.87Z"/><path class="cls-3" d="M95.42,122.87c-7.08-.06-14.16-.07-21.24-.21-3.1-.07-4.79,1.23-5.88,4-2.76,7-5.8,13.9-8.64,20.87-.86,2.11-2,3.17-4.62,3.07-5.35-.23-10.72,0-16.08-.09-3.08,0-3.17-.17-1.8-3.11q12.06-26,24.2-52Q75.92,64.14,90.5,32.91c1.74-3.74,3.38-7.53,5.07-11.29a53.49,53.49,0,0,1,3.08,5q27.63,59.48,55.19,119c.08.17.1.36.17.53,2.14,4.82,1.93,5.14-3.52,5.17-4.59,0-9.19-.12-13.77,0a3.67,3.67,0,0,1-4.12-2.67c-2.87-7.15-6-14.2-8.76-21.39-1.32-3.43-3.41-4.83-7.2-4.7C109.57,122.87,102.5,122.81,95.42,122.87Zm1.14-19.3c4.58.09,9.17.1,13.75.29,2.78.12,2.74-1.19,1.94-3q-7.32-16.63-14.68-33.26c-.76-2.24-2.25-1.75-3.15-.41A34.64,34.64,0,0,0,92,72.69q-6.14,14.13-12.27,28.23c-.88,2-.61,3,2,2.94C86.64,103.67,91.6,103.66,96.56,103.57Z"/><path class="cls-4" d="M96.56,103.57c-5,.09-9.92.1-14.87.29-2.62.1-2.89-.94-2-2.94Q85.83,86.82,92,72.69a34.64,34.64,0,0,1,2.47-5.51c.9-1.34,2.39-1.83,3.15.41a17,17,0,0,0-1,3.92C96.52,82.2,96.56,92.89,96.56,103.57Z"/><path class="cls-5" d="M96.56,103.57c0-10.68,0-21.37,0-32.06a17,17,0,0,1,1-3.92q7.34,16.64,14.68,33.26c.8,1.82.84,3.13-1.94,3C105.73,103.67,101.14,103.66,96.56,103.57Z"/></g></g></svg>