<svg xmlns="http://www.w3.org/2000/svg" viewBox="0 0 191.01 197"><defs><style>.cls-1{fill:#673ab6;}.cls-2{fill:#fefdfe;}.cls-3{fill:#683bb7;}</style></defs><title>Bootstrap</title><g id="Capa_2" data-name="Capa 2"><g id="Capa_10" data-name="Capa 10"><path class="cls-1" d="M95.83,0h66.84C179.87,0,191,11.43,191,29.12q0,69.6,0,139.2c0,16.91-11.42,28.65-27.86,28.66q-67.63,0-135.28,0C11.41,197,0,185.25,0,168.31Q0,98.54,0,28.78C0,11.54,11.24,0,28,0Q61.93,0,95.83,0Zm33.26,97.08c.72-.54,1.18-.94,1.69-1.26,17-10.74,15.59-40,1.91-51.18a51.55,51.55,0,0,0-33.3-11.78c-16.22-.14-32.45,0-48.67,0-.92,0-1.84.12-2.76.18V164.16c6.34,0,12.48.06,18.61,0,15.48-.17,31,0,46.41-.77,9.17-.46,18-3.28,25-10,9.86-9.48,11.62-21.64,9.9-34.67a24.73,24.73,0,0,0-12.3-18.54A69.64,69.64,0,0,0,129.09,97.09Z"/><path class="cls-2" d="M129.09,97.09a69.64,69.64,0,0,1,6.51,3.08,24.73,24.73,0,0,1,12.3,18.54c1.72,13,0,25.19-9.9,34.67-7,6.72-15.85,9.54-25,10-15.44.78-30.93.6-46.41.77-6.13.07-12.27,0-18.61,0V33c.92-.06,1.84-.18,2.76-.18,16.22,0,32.45-.11,48.67,0a51.55,51.55,0,0,1,33.3,11.78c13.68,11.21,15.11,40.44-1.91,51.18C130.27,96.15,129.81,96.55,129.09,97.09ZM79.67,141.91c10.11,0,19.93,0,29.75,0a6.56,6.56,0,0,0,2.43-.7c7.39-3.11,11.2-10.33,9.78-18.49a15.59,15.59,0,0,0-15.33-13.07c-8.37-.15-16.75,0-25.13,0a7.29,7.29,0,0,0-1.5.31Zm0-57.31a13.19,13.19,0,0,0,1.46.2c7.11,0,14.21.14,21.31-.06a14.55,14.55,0,0,0,14.2-15c-.07-8.56-6.38-15.07-14.77-15.15-6.58-.07-13.15,0-19.72,0a21.93,21.93,0,0,0-2.48.25Z"/><path class="cls-3" d="M79.67,141.91v-32a7.29,7.29,0,0,1,1.5-.31c8.38,0,16.76-.11,25.13,0a15.59,15.59,0,0,1,15.33,13.07c1.42,8.16-2.39,15.38-9.78,18.49a6.56,6.56,0,0,1-2.43.7C99.6,141.92,89.78,141.91,79.67,141.91Z"/><path class="cls-3" d="M79.67,84.6V54.88a21.93,21.93,0,0,1,2.48-.25c6.57,0,13.14-.07,19.72,0,8.39.08,14.7,6.59,14.77,15.15a14.55,14.55,0,0,1-14.2,15c-7.1.2-14.2.06-21.31.06A13.19,13.19,0,0,1,79.67,84.6Z"/></g></g></svg>