<svg xmlns="http://www.w3.org/2000/svg" viewBox="0 0 193 215.9"><defs><style>.cls-1{fill:#0277bc;}.cls-2{fill:#039ae4;}.cls-3{fill:#ededed;}.cls-4{fill:#eceded;}.cls-5{fill:#049be4;}.cls-6{fill:#fefefe;}</style></defs><title>CSS3</title><g id="Capa_2" data-name="Capa 2"><g id="CSS"><path class="cls-1" d="M16.71,194C11.3,131.15,5.67,65.79,0,0H193c-5.65,65.63-11.28,131-16.72,194.19C123.22,222.88,70.41,223.47,16.71,194ZM96.49,92.31H70c.81,8.48,1.53,16,2.25,23.49l23.39,1.14v32.49L73.28,142c-.23-5.17-.43-9.64-.64-14.26H49.93c.62,10.79,1.21,21.21,1.8,31.61L96.5,174.47v27.9l63.63-18.61c4.74-55.88,9.4-110.65,14.08-165.85H96.45V45.63H44.19c.67,8.53,1.24,15.87,1.87,24H96.45Q96.48,81,96.49,92.31Z"/><path class="cls-2" d="M96.45,45.63V17.91h77.76c-4.68,55.2-9.34,110-14.08,165.85L96.5,202.37v-27.9l0-.43,45.1-14.61c2-37.95,4-75.34,5.93-112.74Z"/><path class="cls-3" d="M96.5,174.47,51.73,159.33c-.59-10.4-1.18-20.82-1.8-31.61H72.64c.21,4.62.41,9.09.64,14.26l22.39,7.45.9.79q0,11.91,0,23.82Z"/><path class="cls-4" d="M96.45,45.63l51.1,1.06H97.22v21l26.91,1.81-27.68.09H46.06c-.63-8.14-1.2-15.48-1.87-24Z"/><path class="cls-5" d="M96.57,150.22l-.9-.79V116.94l-23.4-1.14,24.3-.42h24.85c-.59,9.44-1.11,17.87-1.64,26.39Z"/><path class="cls-2" d="M96.45,69.64l27.68-.09c-.47,7.49-.94,15-1.45,23.15H96.52l0-.39Q96.48,81,96.45,69.64Z"/><path class="cls-3" d="M96.57,115.38l-24.3.42c-.71-7.5-1.43-15-2.24-23.49H96.49l0,.39Q96.55,104,96.57,115.38Z"/><path class="cls-6" d="M96.57,115.38q0-11.34,0-22.68h26.16c.51-8.18,1-15.66,1.45-23.15L97.22,67.74v-21h50.33c-2,37.4-3.93,74.79-5.93,112.74L96.52,174q0-11.91,0-23.82l23.21-8.45c.53-8.52,1-17,1.64-26.39Z"/></g></g></svg>