<svg xmlns="http://www.w3.org/2000/svg" viewBox="0 0 288.98 224.03"><defs><style>.cls-1{fill:#dd5145;}.cls-2{fill:#eee;}.cls-3{fill:#e0dfdf;}.cls-4{fill:#e2e2e2;}.cls-5{fill:#b53524;}.cls-6{fill:#d44c3f;}.cls-7{fill:#e9e9e9;}.cls-8{fill:#ddd;}.cls-9{fill:#dadada;}.cls-10{fill:#cacac9;}.cls-11{fill:#c64132;}</style></defs><title>Gmail</title><g id="Capa_2" data-name="Capa 2"><g id="Capa_4" data-name="Capa 4"><path class="cls-1" d="M.13,25.85c.08-4-.5-8.12.39-11.9C2.82,4.21,10.4-.41,21.68.29c2.88,1.6,6,2.89,8.6,4.85Q85.9,46.83,141.35,88.73c2.37,1.8,3.87,1.73,6.2,0q48.31-36.54,96.81-72.83c7.41-5.53,15.27-10.41,22.92-15.59,13-2.15,23.55,8.39,21.43,22.25a23.9,23.9,0,0,1-9.35,12.92c-9,6.66-17.79,13.52-26.67,20.31L204.47,91.83l-31.19,23.5c-8.17,6.07-16.32,12.18-24.53,18.18a45.61,45.61,0,0,1-5.12,2.86c-.93-.78-1.82-1.62-2.79-2.35q-40-30.06-80-60.09c-8.19-6.14-16.5-12.12-24.75-18.17-7-5.39-14-10.8-21-16.14a6.07,6.07,0,0,0-2.29-.51h0L12,37.44Z"/><path class="cls-2" d="M267.28.28c-7.65,5.18-15.51,10.06-22.92,15.59Q195.83,52.11,147.55,88.7c-2.33,1.76-3.83,1.83-6.2,0Q85.9,46.82,30.28,5.14c-2.62-2-5.72-3.25-8.6-4.85,1.06,0,2.13-.13,3.19-.13q119.4,0,238.81,0C264.88.16,266.08.24,267.28.28Z"/><path class="cls-3" d="M204.47,91.83l48.22-36.07,0,168.11H204.59q0-23.38,0-46.77Q204.55,134.46,204.47,91.83Z"/><path class="cls-4" d="M37.7,223.87H36.1q0-77.66,0-155.32c0-1.8.09-3.59.14-5.38,12.44,12.5,25,24.92,37.31,37.53,15.59,15.92,31,32,46.53,48,1.22,1.26,2.32,2.65,3.47,4a8.12,8.12,0,0,1-1.32,1.93c-8.22,6.76-16.43,13.53-24.73,20.19C79.11,189.55,60.66,204.21,42.28,219A45.43,45.43,0,0,0,37.7,223.87Z"/><path class="cls-5" d="M252.72,223.87l0-168.11c8.88-6.79,17.71-13.65,26.67-20.31a23.9,23.9,0,0,0,9.35-12.92c0,1.52.13,3,.13,4.55v177.3c0,12-7.33,19.64-18.88,19.61C264.21,224,258.47,223.91,252.72,223.87Z"/><path class="cls-6" d="M36.24,63.16c-.05,1.79-.14,3.58-.14,5.38q0,77.65,0,155.32c-6.68,0-13.37.27-20,.1-8-.2-16-8.46-16-16.68q-.08-90.51.05-181a2.7,2.7,0,0,1,.06-.41L12,37.44c.27.56.54,1.12.8,1.68h0L35.93,63.17Z"/><path class="cls-7" d="M37.7,223.87a45.43,45.43,0,0,1,4.58-4.9c18.38-14.76,36.83-29.42,55.22-44.16,8.3-6.66,16.51-13.43,24.73-20.19a8.12,8.12,0,0,0,1.32-1.93l1.6.06a28,28,0,0,0,2.7,3.92q11.93,12.48,24,24.83c6,6.19,12.16,12.31,18.24,18.46,6.32,6.66,12.66,13.3,18.93,20a33.57,33.57,0,0,1,2.73,3.9c-12.93,0-25.87.12-38.8.12q-55.43,0-110.85,0C40.63,224,39.16,223.91,37.7,223.87Z"/><path class="cls-8" d="M191.74,223.87A33.57,33.57,0,0,0,189,220c-6.27-6.71-12.61-13.35-18.93-20,3.25.43,3.24-1.73,3.24-4.14q-.06-40.24,0-80.49l31.19-23.5q.06,42.63.12,85.26,0,23.39,0,46.77Z"/><path class="cls-9" d="M173.28,115.33q0,40.24,0,80.49c0,2.41,0,4.57-3.24,4.14-6.08-6.15-12.2-12.27-18.24-18.46q-12.06-12.36-24-24.83a28,28,0,0,1-2.7-3.92c1.88-1.68,3.76-3.37,5.65-5q6.4-5.69,12.83-11.34a45.61,45.61,0,0,0,5.12-2.86C157,127.51,165.11,121.4,173.28,115.33Z"/><path class="cls-10" d="M143.63,136.37q-6.42,5.67-12.83,11.34c-1.89,1.67-3.77,3.36-5.65,5l-1.6-.06c-1.15-1.33-2.25-2.72-3.47-4-15.5-16-30.94-32.1-46.53-48-12.35-12.61-24.87-25-37.31-37.53h-.31q.1-3.7.2-7.41c8.25,6.05,16.56,12,24.75,18.17q40,30,80,60.09C141.81,134.75,142.7,135.59,143.63,136.37Z"/><path class="cls-11" d="M36.13,55.76q-.09,3.7-.2,7.41L12.82,39.11a6.07,6.07,0,0,1,2.29.51C22.15,45,29.13,50.37,36.13,55.76Z"/><path class="cls-11" d="M12.83,39.12c-.26-.56-.53-1.12-.8-1.68C12.3,38,12.57,38.56,12.83,39.12Z"/></g></g></svg>