<svg xmlns="http://www.w3.org/2000/svg" viewBox="0 0 190.03 196.5"><defs><style>.cls-1{fill:#7ec162;}.cls-2{fill:#41301f;}.cls-3{fill:#519748;}</style></defs><title>MongoDB</title><g id="Capa_2" data-name="Capa 2"><g id="MongoDB"><path class="cls-1" d="M94.32.17c11.56-.25,22.31-.26,33,1.31,4.67.69,9.34,1.36,14,2.31a142,142,0,0,1,16.59,4.35c7.22,2.43,14.23,5.39,20.55,9.94,3.2,2.31,4.7,5.86,6.07,9.45a85.58,85.58,0,0,1,4.54,20,156.81,156.81,0,0,1,.45,31,139.88,139.88,0,0,1-3.82,22.86c-4.19,17.28-12.19,32.26-23.09,45.69a167.32,167.32,0,0,1-32.67,30.63,168.71,168.71,0,0,1-29.78,17.09,6.62,6.62,0,0,0-1.28.53c-3,2.12-5.79.91-8.64-.37a171.42,171.42,0,0,1-46.5-30.53c-12.19-11.22-22.75-24-30.56-39.1a112,112,0,0,1-7.8-20.44A138.68,138.68,0,0,1,.61,79.06,139.18,139.18,0,0,1,.09,61.13,137.31,137.31,0,0,1,1.76,42a79.68,79.68,0,0,1,5-17.58c2-4.57,5.54-7.14,9.45-9.35A94.52,94.52,0,0,1,36,7,161.49,161.49,0,0,1,52,3.18,185.54,185.54,0,0,1,94.32.17ZM175.19,65c.23-4.09-.42-8.12-.7-12.18a87,87,0,0,0-3.65-19.49A9.55,9.55,0,0,0,165.77,27c-3.11-1.49-6.16-3.13-9.37-4.31a139.21,139.21,0,0,0-34-7.54,278.4,278.4,0,0,0-44.64-.79,168.62,168.62,0,0,0-33.53,5,88.2,88.2,0,0,0-20.9,8.18,7.53,7.53,0,0,0-3.57,4.28,71.06,71.06,0,0,0-3.06,11.89,121.12,121.12,0,0,0-1.85,19.09,141.67,141.67,0,0,0,2.74,29,116,116,0,0,0,5.68,19.91c5.3,13.7,13.81,25,23.49,35.36a146.93,146.93,0,0,0,23.11,20,171.07,171.07,0,0,0,23.18,13.62,3.93,3.93,0,0,0,3.75,0A160.8,160.8,0,0,0,115.75,170a152,152,0,0,0,36.83-33.87,98.33,98.33,0,0,0,15.36-27.49,122,122,0,0,0,5.34-21.54A173.26,173.26,0,0,0,175.19,65Z"/><path class="cls-2" d="M175.19,65a173.26,173.26,0,0,1-1.91,22.06,122,122,0,0,1-5.34,21.54,98.33,98.33,0,0,1-15.36,27.49A152,152,0,0,1,115.75,170a160.8,160.8,0,0,1-18.91,10.68,3.93,3.93,0,0,1-3.75,0A171.07,171.07,0,0,1,69.91,167a146.93,146.93,0,0,1-23.11-20c-9.68-10.37-18.19-21.66-23.49-35.36a116,116,0,0,1-5.68-19.91,141.67,141.67,0,0,1-2.74-29,121.12,121.12,0,0,1,1.85-19.09A71.06,71.06,0,0,1,19.8,31.83a7.53,7.53,0,0,1,3.57-4.28,88.2,88.2,0,0,1,20.9-8.18,168.62,168.62,0,0,1,33.53-5,278.4,278.4,0,0,1,44.64.79,139.21,139.21,0,0,1,34,7.54c3.21,1.18,6.26,2.82,9.37,4.31a9.55,9.55,0,0,1,5.07,6.37,87,87,0,0,1,3.65,19.49C174.77,56.91,175.42,60.94,175.19,65ZM95,26.61a.25.25,0,0,0-.4,0,10,10,0,0,0-1.18,1.74,8.23,8.23,0,0,1-2.36,3.08C86.81,34.1,83.56,38,80.18,41.67a60.15,60.15,0,0,0-8.43,12c-.49.17-.67.65-.91,1.07a74.93,74.93,0,0,0-6.92,17.05,90.93,90.93,0,0,0-3.06,19.4,61.47,61.47,0,0,0,4.74,27.1c4.24,10.21,10.7,18.63,18.46,26a41.91,41.91,0,0,0,8,6.38,46,46,0,0,1,2.27,15.2c-.06,1.59,1.59,2.87,3.41,2.73s.79-1.67,1-2.58a6.19,6.19,0,0,0,0-1.29c0-5.18-.8-10.48,2.11-15.2.45-.27.92-.5,1.35-.8a62.86,62.86,0,0,0,12.13-11.5,64.92,64.92,0,0,0,14.5-32.58A66,66,0,0,0,127.58,79a91,91,0,0,0-9.32-23A85.69,85.69,0,0,0,103,37a32.75,32.75,0,0,1-6.59-8.73,1.9,1.9,0,0,0-1-1A.71.71,0,0,0,95,26.61Z"/><path class="cls-3" d="M95.47,27.22a1.9,1.9,0,0,1,1,1A32.75,32.75,0,0,0,103,37,85.69,85.69,0,0,1,118.26,56a91,91,0,0,1,9.32,23,66,66,0,0,1,1.25,25.64,64.92,64.92,0,0,1-14.5,32.58,62.86,62.86,0,0,1-12.13,11.5c-.43.3-.9.53-1.35.8a9.78,9.78,0,0,1-3.15-3.83c-1.22-2.58-1.42-5.42-2-8.16-.09-.4.08-1.11-.33-1.12-.64,0-.4.73-.47,1.16-.49,3.26-.91,6.55-1.48,9.8a5.27,5.27,0,0,1-1.35,3.29,41.91,41.91,0,0,1-8-6.38c-7.76-7.35-14.22-15.77-18.46-26a61.47,61.47,0,0,1-4.74-27.1,90.93,90.93,0,0,1,3.06-19.4,74.93,74.93,0,0,1,6.92-17.05c.24-.42.42-.9.91-1.07-.11,3.1,1.52,5.66,2.45,8.4,2.43,7.1,4.82,14.22,7.48,21.24,1.8,4.78,3.53,9.6,5,14.53,1.37,4.56,3.41,8.88,4.9,13.42.82,2.49,1.78,4.94,2.69,7.4.17.44.29,1,.91.91s.7-.62.76-1.12a47.39,47.39,0,0,0,.4-4.78c0-25,.12-50-.38-75,0-2.1-.07-4.18-.22-6.28C95.63,30.65,95.15,29,95.47,27.22Z"/><path class="cls-1" d="M95.47,27.22c-.32,1.73.16,3.43.28,5.13.15,2.1.18,4.18.22,6.28.5,25,.39,50,.38,75a47.39,47.39,0,0,1-.4,4.78c-.06.5-.24,1-.76,1.12s-.74-.47-.91-.91c-.91-2.46-1.87-4.91-2.69-7.4-1.49-4.54-3.53-8.86-4.9-13.42-1.48-4.93-3.21-9.75-5-14.53-2.66-7-5.05-14.14-7.48-21.24-.93-2.74-2.56-5.3-2.45-8.4a60.15,60.15,0,0,1,8.43-12C83.56,38,86.81,34.1,91.07,31.44a8.23,8.23,0,0,0,2.36-3.08,10,10,0,0,1,1.18-1.74H95A.71.71,0,0,1,95.47,27.22Z"/><path class="cls-1" d="M92.07,150.65a5.27,5.27,0,0,0,1.35-3.29c.57-3.25,1-6.54,1.48-9.8.07-.43-.17-1.18.47-1.16.41,0,.24.72.33,1.12.58,2.74.78,5.58,2,8.16a9.78,9.78,0,0,0,3.15,3.83c-2.91,4.72-2.12,10-2.11,15.2a6.19,6.19,0,0,1,0,1.29c-.21.91.79,2.44-1,2.58s-3.47-1.14-3.41-2.73A46,46,0,0,0,92.07,150.65Z"/><path class="cls-3" d="M95,26.61h-.4A.25.25,0,0,1,95,26.61Z"/></g></g></svg>