<svg xmlns="http://www.w3.org/2000/svg" viewBox="0 0 192 198.75"><defs><style>.cls-1{fill:#22b15b;}</style></defs><title>NodeJS</title><g id="Capa_2" data-name="Capa 2"><g id="NodeJS"><path class="cls-1" d="M0,99.27c0-13.5.09-27,0-40.52-.06-7,3.15-12.06,9.8-15.57q38.1-20.12,76-40.43c6.87-3.68,13.41-3.66,20.29,0Q143.92,23,181.86,43C188.81,46.67,192,51.87,192,59.14q-.12,40.19,0,80.36c0,7.43-3.32,12.65-10.38,16.35q-37.8,19.86-75.42,40.05c-7,3.76-13.64,3.86-20.57-.09-7.67-4.36-15.5-8.48-23.26-12.7a23.66,23.66,0,0,1-2.19-1.28c-1.64-1.15-1.54-1.8.38-2.6,3.7-1.55,7.46-3,11.12-4.62,1.63-.71,2.85-.16,4.15.55,5.41,3,10.92,5.79,16.21,8.94,2.75,1.64,4.9,1.61,7.75.08q37.14-19.92,74.46-39.54c2.48-1.31,3.4-2.81,3.39-5.41q-.13-39.84,0-79.67c0-2.75-1-4.27-3.62-5.63Q136.87,34.39,99.86,14.59a7.23,7.23,0,0,0-7.77,0q-37,19.81-74.15,39.36c-2.66,1.4-3.81,3-3.79,5.91q.16,39.49,0,79c0,2.71.8,4.4,3.47,5.73,6.2,3.08,12.23,6.43,18.32,9.68a21.53,21.53,0,0,0,8.73,2.63c5.87.41,10.36-2.78,11.3-8.13a27.87,27.87,0,0,0,.29-4.75q0-38.13,0-76.27c0-5.3,0-5.3,5.69-5.31,1.86,0,3.71-.05,5.57,0,2.7.1,3.14.52,3.34,3,.05.68,0,1.36,0,2,0,26,0,52,0,78a41.69,41.69,0,0,1-1,9.78c-2.22,8.95-9.55,14.21-19.56,14.95-8,.58-15.17-1.44-22-4.94C21.81,162,15.42,158.51,9,155.1c-6.11-3.26-9-8.16-9-14.63C.06,126.74,0,113,0,99.27Z"/><path class="cls-1" d="M117.18,60.05c7.51.26,13.91.67,20.11,2.47,10.82,3.14,17.23,9.79,19.13,20.06a12.7,12.7,0,0,1,.24,2.37c0,2.27-.48,2.8-3,2.88-2.84.1-5.69,0-8.53,0-1.71,0-2.84-.59-3.29-2.15-.15-.55-.36-1.09-.53-1.63-1.74-5.54-5.68-8.91-11.82-10.07a58.63,58.63,0,0,0-23.53.11,17.66,17.66,0,0,0-5.37,2.19,8,8,0,0,0-3.18,9.42A5.73,5.73,0,0,0,101.46,89a84.48,84.48,0,0,0,9.32,2.15c9,1.44,18.06,2.63,27.05,4.11a49.76,49.76,0,0,1,8.85,2.44c9.36,3.44,13.44,9.25,13.27,18.45s-4.79,15.75-13.54,20a50.73,50.73,0,0,1-18.51,4.5,86.86,86.86,0,0,1-27.24-1.84,36.56,36.56,0,0,1-11.43-4.73c-7.08-4.6-10.48-11-10.63-18.87-.06-2.63.55-3.23,3.4-3.33s5.44,0,8.16,0c1.89,0,3,.84,3.33,2.57l.12.67c1.17,6.62,5.46,10.49,12.53,11.78a78.79,78.79,0,0,0,27.27.14,19.76,19.76,0,0,0,4.88-1.58c5.52-2.54,6.26-6.53,5.68-10.76a4.87,4.87,0,0,0-3.28-3.88,40.66,40.66,0,0,0-8-2.54c-7.06-1.11-14.21-1.73-21.26-2.84a121.79,121.79,0,0,1-15.85-3.31c-8.19-2.44-13.38-7.52-14.24-15.73s2-15.19,9.61-20.12c5.29-3.43,11.38-4.9,17.68-5.64C111.82,60.22,115,60.18,117.18,60.05Z"/></g></g></svg>