<svg xmlns="http://www.w3.org/2000/svg" viewBox="0 0 288.08 269"><defs><style>.cls-1{fill:#00c7fe;}.cls-2{fill:#00cbfe;}.cls-3{fill:#1884a6;}.cls-4{fill:#1885a6;}.cls-5{fill:#000b11;}.cls-6{fill:#001d26;}.cls-7{fill:#00cdfe;}.cls-8{fill:#001921;}.cls-9{fill:#003645;}</style></defs><title>Photoshop</title><g id="Capa_2" data-name="Capa 2"><g id="Capa_3" data-name="Capa 3"><path class="cls-1" d="M144,.1c46.5,0,93,.06,139.5-.1,3.78,0,4.55.73,4.54,4.34q-.19,130.16,0,260.32c0,3.61-.76,4.35-4.54,4.34q-139.5-.19-279,0C.76,269,0,268.27,0,264.66Q.2,134.5,0,4.34C0,.73.76,0,4.54,0,51,.16,97.54.1,144,.1ZM276.56,258c.42-2.12,1.22-4.24,1.22-6.37q.09-117.11,0-234.22c0-2.12-.8-4.25-1.22-6.37-2.44-.41-4.87-1.18-7.31-1.18Q144,9.75,18.83,9.84c-2.44,0-4.87.77-7.31,1.18-.42,2.12-1.21,4.25-1.22,6.37q-.09,117.11,0,234.22c0,2.13.8,4.25,1.22,6.37,2.44.41,4.87,1.18,7.31,1.18q125.21.09,250.42,0C271.69,259.16,274.13,258.39,276.56,258Z"/><path class="cls-2" d="M11.52,11c2.44-.41,4.87-1.18,7.31-1.18q125.21-.09,250.42,0c2.44,0,4.87.77,7.31,1.18l-.33.32a3.72,3.72,0,0,0-.94.06c-2.31-.13-4.62-.38-6.93-.38q-124.3,0-248.63,0c-2.31,0-4.62.24-6.93.37a5,5,0,0,0-1-.06Z"/><path class="cls-2" d="M276.56,258c-2.43.41-4.87,1.18-7.31,1.18q-125.2.09-250.42,0c-2.44,0-4.87-.77-7.31-1.18l.32-.33c.32,0,.64,0,.95,0,2.31.14,4.62.39,6.93.39q124.32,0,248.65,0c2.3,0,4.61-.25,6.92-.39.32,0,.63,0,.95,0Z"/><path class="cls-2" d="M11.52,258c-.42-2.12-1.22-4.24-1.22-6.37q-.09-117.11,0-234.22c0-2.12.8-4.25,1.22-6.37l.33.31c-.11,2-.32,4-.32,6q0,117.14,0,234.25c0,2,.2,4,.31,6Z"/><path class="cls-2" d="M276.56,11c.42,2.12,1.22,4.25,1.22,6.37q.09,117.11,0,234.22c0,2.13-.8,4.25-1.22,6.37l-.32-.33c.11-2,.31-4,.31-6q0-117.12,0-234.25c0-2-.21-4-.32-6Z"/><path class="cls-3" d="M12.8,11.39c2.31-.13,4.62-.37,6.93-.37Q144,11,268.36,11c2.31,0,4.62.25,6.93.38l0,2.14a11,11,0,0,0-1.15-.19c-2.38-.38-4.76-1.09-7.15-1.09q-123.28-.09-246.57,0c-2.11,0-4.22.12-6.33.19a1.63,1.63,0,0,0-1.19,0Z"/><path class="cls-4" d="M12.8,11.39l.06,1V256.61l-.07,1c-.31,0-.63,0-.95,0-.11-2-.31-4-.31-6q0-117.12,0-234.25c0-2,.21-4,.32-6A5,5,0,0,1,12.8,11.39Z"/><path class="cls-4" d="M275.25,13.54l0-2.14a3.72,3.72,0,0,1,.94-.06c.11,2,.32,4,.32,6q0,117.12,0,234.25c0,2-.2,4-.31,6-.32,0-.63,0-.95,0,0-.33-.05-.66-.07-1a1.66,1.66,0,0,0-.13-1c.07-1,.19-2,.19-3Q275.28,133,275.25,13.54Z"/><path class="cls-3" d="M275.22,256.61c0,.33,0,.66.07,1-2.31.14-4.62.39-6.92.39Q144,258,19.72,258c-2.31,0-4.62-.25-6.93-.39l.07-1,.6.1.59-.11c2.54.06,5.07.18,7.6.18q123,0,246,0C270.15,256.78,272.69,256.67,275.22,256.61Z"/><path class="cls-5" d="M14.05,12.41c2.11-.07,4.22-.19,6.33-.19q123.29,0,246.57,0c2.39,0,4.77.71,7.15,1.09l-.11.11-259.93,0C14.06,13.1,14.06,12.75,14.05,12.41Z"/><path class="cls-5" d="M14.05,12.41c0,.34,0,.69,0,1V255.56c0,.35,0,.69,0,1l-.59.11-.6-.1V12.4A1.63,1.63,0,0,1,14.05,12.41Z"/><path class="cls-5" d="M275.25,13.54q0,119.52,0,239c0,1-.12,2-.19,3H274q0-121,0-242.11l.11-.11A11,11,0,0,1,275.25,13.54Z"/><path class="cls-5" d="M274,255.57h1.08a1.66,1.66,0,0,1,.13,1c-2.53.06-5.07.17-7.6.17q-123,0-246,0c-2.53,0-5.06-.12-7.6-.18,0-.35,0-.69,0-1Z"/><path class="cls-6" d="M274,255.57H14.06V13.44l259.93,0Q274,134.51,274,255.57ZM68.62,63.07c-.43,1.91-1.24,3.82-1.25,5.73q-.11,56.65,0,113.31c0,1.89,1.44,3.77,2.22,5.66l20.49-.06a37.41,37.41,0,0,0,.94-5.78c.09-11.27.27-22.56-.08-33.83-.12-3.71,2.12-4.6,4.66-4.93,6.55-.86,13.26-.77,19.72-1.95,13.41-2.45,24-9.21,30-21.17,4.11-8.2,4.27-17.07,3.4-26.15C147.29,78.43,135,64.32,118,62.62c-15.41-1.53-31.09-.54-46.65-.6-.4,0-.8.75-1.2,1.15l-.4-.17Zm91.27,111.68c0,9.79.09,9.6,7.5,12.57,9.61,3.87,20,4,29.44,2.13a30.59,30.59,0,0,0,21.89-16.39c4.68-9.56,2.66-22.89-5.84-29.5-7.06-5.49-14.93-10.08-22.71-14.67-6.34-3.74-9.72-7.86-8.47-11.71,1.42-4.37,7.23-7.29,14.18-6.77a80.37,80.37,0,0,1,10.54,1.72c3.39.71,6.72,1.69,10.08,2.55q.21-5.42.41-10.83a16.13,16.13,0,0,1,0-2.41c.83-4.26-1.91-5.72-5.5-6.59-8.11-1.95-16.28-3.19-24.58-1.31-7.8,1.77-16.14,3.61-20.45,10.6-13.68,22.24-.1,37,18.18,45.92a110.36,110.36,0,0,1,11.56,6.44c3.52,2.26,5.15,6,3.07,9.45a13.34,13.34,0,0,1-7.34,5.23c-7.61,2.15-15,.17-22.15-2.59C159.85,164.73,159.89,164.63,159.89,174.75Z"/><path class="cls-1" d="M70.12,63.17c.4-.4.8-1.15,1.2-1.15,15.56.06,31.24-.93,46.65.6,17,1.7,29.32,15.81,30.81,31.28.87,9.08.71,17.95-3.4,26.15-6,12-16.6,18.72-30,21.17-6.46,1.18-13.17,1.09-19.72,1.95-2.54.33-4.78,1.22-4.66,4.93.35,11.27.17,22.56.08,33.83a37.41,37.41,0,0,1-.94,5.78q0-20.55,0-41.09a15.41,15.41,0,0,0-.54-2.87,12,12,0,0,0-.65,2.69c0,11.28,0,22.56-.1,33.83,0,1.89-.68,5.32-1.39,5.4a51.91,51.91,0,0,1-14.3.1c-1.08-.17-1.91-4.8-1.91-7.38-.13-35.85-.07-71.7-.13-107.55A62.54,62.54,0,0,0,70.12,63.17ZM104,123.41c14.15.9,23.87-8.16,24.05-21.9.14-11.08-9.31-22.91-23.28-21a34.37,34.37,0,0,1-7.52,0c-4-.36-6,.53-6,4.95.25,11.07,0,22.14.13,33.2a15.31,15.31,0,0,0,1,3.79Z"/><path class="cls-1" d="M159.89,174.75c0-10.12,0-10,9.84-6.16,7.1,2.76,14.54,4.74,22.15,2.59a13.34,13.34,0,0,0,7.34-5.23c2.08-3.48.45-7.19-3.07-9.45a110.36,110.36,0,0,0-11.56-6.44c-18.28-8.88-31.86-23.68-18.18-45.92,4.31-7,12.65-8.83,20.45-10.6,8.3-1.88,16.47-.64,24.58,1.31,3.59.87,6.33,2.33,5.5,6.59a16.13,16.13,0,0,0,0,2.41q-.19,5.41-.41,10.83c-3.36-.86-6.69-1.84-10.08-2.55a80.37,80.37,0,0,0-10.54-1.72c-6.95-.52-12.76,2.4-14.18,6.77-1.25,3.85,2.13,8,8.47,11.71,7.78,4.59,15.65,9.18,22.71,14.67,8.5,6.61,10.52,19.94,5.84,29.5a30.59,30.59,0,0,1-21.89,16.39c-9.41,1.85-19.83,1.74-29.44-2.13C160,184.35,159.89,184.54,159.89,174.75Z"/><path class="cls-7" d="M70.12,63.17a62.54,62.54,0,0,1,1,7.67c.06,35.85,0,71.7.13,107.55,0,2.58.83,7.21,1.91,7.38a51.91,51.91,0,0,0,14.3-.1c.71-.08,1.37-3.51,1.39-5.4.13-11.27,0-22.55.1-33.83a12,12,0,0,1,.65-2.69,15.41,15.41,0,0,1,.54,2.87q0,20.55,0,41.09l-20.49.06v-1.19L69.72,63Z"/><path class="cls-8" d="M69.64,186.58v1.19c-.78-1.89-2.22-3.77-2.22-5.66q-.19-56.66,0-113.31c0-1.91.82-3.82,1.25-5.73q0,58.54,0,117.07A41,41,0,0,0,69.64,186.58Z"/><path class="cls-9" d="M69.64,186.58a41,41,0,0,1-1-6.44q-.07-58.53,0-117.07l1.1-.07Z"/><path class="cls-6" d="M92.5,122.45a15.31,15.31,0,0,1-1-3.79c-.08-11.06.12-22.13-.13-33.2-.1-4.42,2-5.31,6-4.95a34.37,34.37,0,0,0,7.52,0c14-1.87,23.42,10,23.28,21-.18,13.74-9.9,22.8-24.05,21.9Z"/><path class="cls-5" d="M92.5,122.45l11.53,1Z"/></g></g></svg>