<svg xmlns="http://www.w3.org/2000/svg" viewBox="0 0 239.24 225"><defs><style>.cls-1{fill:#0190b7;}.cls-2{fill:#cad8db;}.cls-3{fill:#fcfdfd;}.cls-4{fill:#fdfefe;}.cls-5{fill:#0290b8;}</style></defs><title>Telefono</title><g id="Capa_2" data-name="Capa 2"><g id="Capa_5" data-name="Capa 5"><path class="cls-1" d="M1.15,130.37c-4.39-34.06,3.55-65.11,28-91C61.74,5,103-7.46,150.26,4.33c46.87,11.7,75.4,41.64,86.48,86,2.67,10.69,2.81,21.64,2.21,32.53-.28,5.15-1.67,10.24-2.56,15.36a14.59,14.59,0,0,0-1,2.15C215.42,214.5,123.12,248.64,54.92,207c-26.91-16.4-44-39.54-51.76-68.78Zm122.22,38.74v.26H161.8c8.45,0,16.09-6.33,17.1-14.2.86-6.61-1.37-12.62-4.78-18.15-8.32-13.51-16.93-26.85-25.37-40.28A3.6,3.6,0,0,0,145.19,95q-23.9.09-47.77,0A3.5,3.5,0,0,0,94,96.82c-8.67,13.88-17.5,27.67-26.07,41.6a37,37,0,0,0-4.09,9.69c-2.71,10.15,1.92,17.24,12.72,19.85a33.26,33.26,0,0,0,7.41,1.1C97.07,169.17,110.22,169.11,123.37,169.11ZM121,56.54c-11,0-22,0-33,0-22.43.09-43.32,19.92-43.18,41a12.25,12.25,0,0,0,.44,3.13,5.83,5.83,0,0,0,6,4.53q9.48.11,18.95,0A8.13,8.13,0,0,0,78,100.25a18.7,18.7,0,0,0,1.5-5.63c1.19-10.93,9.11-19.17,20.69-19.76,13.28-.67,26.65-.77,39.94-.18,12.14.53,19.08,6.57,21.87,17.15a41.2,41.2,0,0,1,.73,4.58c.85,5.8,4.43,8.77,10.66,8.8,5.36,0,10.73,0,16.09,0,4.72,0,7.51-2.14,7.45-6.56a40.17,40.17,0,0,0-1.5-10.08c-5.46-19.79-22.48-32.05-44.23-32.05Z"/><path class="cls-2" d="M3.16,138.26l-.9,0-1.11-7.91Z"/><path class="cls-3" d="M123.37,169.11c-13.15,0-26.3.06-39.45-.05a33.26,33.26,0,0,1-7.41-1.1c-10.8-2.61-15.43-9.7-12.72-19.85a37,37,0,0,1,4.09-9.69c8.57-13.93,17.4-27.72,26.07-41.6A3.5,3.5,0,0,1,97.42,95q23.88.1,47.77,0a3.6,3.6,0,0,1,3.56,1.79c8.44,13.43,17.05,26.77,25.37,40.28,3.41,5.53,5.64,11.54,4.78,18.15-1,7.87-8.65,14.2-17.1,14.2H123.37ZM122,109.4c-13.17,0-23.77,9.92-23.81,22.29s10.64,22.58,23.83,22.57,23.78-10,23.87-22.35S135.26,109.4,122,109.4Z"/><path class="cls-4" d="M121,56.54h30.11c21.75,0,38.77,12.26,44.23,32.05a40.17,40.17,0,0,1,1.5,10.08c.06,4.42-2.73,6.58-7.45,6.56-5.36,0-10.73,0-16.09,0-6.23,0-9.81-3-10.66-8.8a41.2,41.2,0,0,0-.73-4.58c-2.79-10.58-9.73-16.62-21.87-17.15-13.29-.59-26.66-.49-39.94.18-11.58.59-19.5,8.83-20.69,19.76a18.7,18.7,0,0,1-1.5,5.63,8.13,8.13,0,0,1-7.71,4.91q-9.46.15-18.95,0a5.83,5.83,0,0,1-6-4.53,12.25,12.25,0,0,1-.44-3.13c-.14-21.08,20.75-40.91,43.18-41C99.06,56.5,110.05,56.54,121,56.54Z"/><path class="cls-5" d="M122,109.4c13.24,0,24,10.12,23.89,22.51s-10.8,22.34-23.87,22.35-23.87-10.11-23.83-22.57S108.85,109.41,122,109.4Z"/></g></g></svg>