<svg xmlns="http://www.w3.org/2000/svg" viewBox="0 0 295.5 154.33"><defs><style>.cls-1{font-size:36px;font-family:Roboto-Regular, Roboto;}.cls-1,.cls-2{fill:#3db4cc;}.cls-3{fill:#fff;}.cls-4{fill:#3d55cc;}</style></defs><title>Mi-mbot</title><g id="Capa_2" data-name="Capa 2"><g id="Texto_V2" data-name="Texto V2"><text class="cls-1" transform="translate(82.14 144.57)">Mi-mbot</text></g><g id="Icono_V2" data-name="Icono V2"><circle class="cls-2" cx="9.25" cy="50.75" r="9.25"/><circle class="cls-2" cx="36.75" cy="76.25" r="2.75"/><circle class="cls-2" cx="286.25" cy="41.75" r="9.25"/><circle class="cls-2" cx="258.5" cy="18" r="3"/><path class="cls-2" d="M271.5,40.5V41a7,7,0,0,1-7,7H227a5.5,5.5,0,1,1,0,11h34.5a3,3,0,0,1,0,6H235a10.5,10.5,0,0,1,0,21H211.25a3.26,3.26,0,0,1,3.25,3.25v1a3.26,3.26,0,0,1-3.25,3.25H68.81a6,6,0,0,1,0-12H97.5a4,4,0,0,1-4-4v-1a4,4,0,0,1,4-4h-40a6,6,0,0,1,0-12h-27a7,7,0,0,1-7-7V52a7,7,0,0,1,7-7H64.74a4.5,4.5,0,0,1-2.44-4V39a4.5,4.5,0,0,1,2.44-4H32.87a3,3,0,0,1,0-6H55.39a10,10,0,0,1-6.89-9.5V18a10,10,0,0,1,10-10h26a4,4,0,0,1-4-4,4,4,0,0,1,1.18-2.82A4,4,0,0,1,84.5,0H226.77a6,6,0,0,1,6,6v.5a6,6,0,0,1-6,6H197.5a4,4,0,0,1,4,4V18a4,4,0,0,1-1.37,3H237.5a6,6,0,0,1,6,6v.5a6,6,0,0,1-6,6h27A7,7,0,0,1,271.5,40.5Z"/></g><g id="Icono_Bot_V2" data-name="Icono Bot V2"><rect class="cls-3" x="108" y="28" width="87" height="43.5" rx="12"/><circle class="cls-4" cx="129.4" cy="49.79" r="10.89"/><circle class="cls-4" cx="172.98" cy="49.79" r="10.89"/><rect class="cls-3" x="114.15" y="47.61" width="30.5" height="4.36" rx="2"/><rect class="cls-3" x="157.73" y="47.61" width="30.5" height="4.36" rx="2"/></g></g></svg>