<svg xmlns="http://www.w3.org/2000/svg" viewBox="0 0 1346.35 163.78"><defs><style>.cls-1{fill:#fff800;}.cls-1,.cls-2{stroke:#000;stroke-miterlimit:10;}.cls-2{fill:#5e5a5a;}</style></defs><title>4</title><g id="Capa_2" data-name="Capa 2"><g id="Capa_2-2" data-name="Capa 2"><polygon class="cls-1" points="156.22 162.91 96.97 135.12 37.56 162.57 49.06 104.1 1.17 62.53 67.53 54.18 97.34 1.03 126.86 54.34 193.17 63.06 145.06 104.37 156.22 162.91"/><polygon class="cls-1" points="444.22 162.91 384.97 135.12 325.56 162.57 337.06 104.1 289.17 62.53 355.53 54.18 385.35 1.03 414.86 54.34 481.17 63.06 433.06 104.37 444.22 162.91"/><polygon class="cls-1" points="732.22 162.91 672.97 135.12 613.56 162.57 625.06 104.1 577.17 62.53 643.53 54.18 673.35 1.03 702.86 54.34 769.17 63.06 721.06 104.37 732.22 162.91"/><polygon class="cls-1" points="1020.22 162.91 960.97 135.12 901.56 162.57 913.06 104.1 865.17 62.53 931.53 54.18 961.35 1.03 990.86 54.34 1057.17 63.06 1009.06 104.37 1020.22 162.91"/><polygon class="cls-2" points="1308.22 162.91 1248.97 135.12 1189.56 162.57 1201.06 104.1 1153.17 62.53 1219.53 54.18 1249.35 1.03 1278.86 54.34 1345.17 63.06 1297.06 104.37 1308.22 162.91"/></g></g></svg>