<svg xmlns="http://www.w3.org/2000/svg" viewBox="0 0 357.94 232.71"><defs><style>.cls-1{fill:#fff;}.cls-2{font-size:16px;font-family:Montserrat-Medium, Montserrat;letter-spacing:0.14em;}.cls-17,.cls-2{fill:#3db4cc;}.cls-10,.cls-2{font-weight:500;}.cls-10,.cls-3{letter-spacing:0.1em;}.cls-4{letter-spacing:0.08em;}.cls-5{letter-spacing:0.09em;}.cls-6{letter-spacing:0.1em;}.cls-7{letter-spacing:0.12em;}.cls-8{letter-spacing:0.07em;}.cls-9{letter-spacing:0.1em;}.cls-10{font-size:32px;font-family:Roboto-Medium, Roboto;}.cls-10,.cls-18{fill:#3d55cc;}.cls-11{letter-spacing:0.06em;}.cls-12{letter-spacing:0.04em;}.cls-13{letter-spacing:0.09em;}.cls-14{letter-spacing:0.02em;}.cls-15{letter-spacing:0.08em;}.cls-16{letter-spacing:0.04em;}</style></defs><title>Recurso 19</title><g id="Capa_2" data-name="Capa 2"><g id="Mesa_5" data-name="Mesa 5"><rect class="cls-1" width="356.84" height="232.71"/><text class="cls-2" transform="translate(22.02 227.1)">L<tspan class="cls-3" x="11.78" y="0">A R</tspan><tspan class="cls-4" x="44.22" y="0">O</tspan><tspan class="cls-3" x="58.94" y="0">B</tspan><tspan class="cls-5" x="72.66" y="0">Ó</tspan><tspan class="cls-6" x="87.54" y="0">TI</tspan><tspan class="cls-7" x="105.09" y="0">C</tspan><tspan class="cls-3" x="118.61" y="0">A DEL MAÑANA H</tspan><tspan class="cls-8" x="288.46" y="0">O</tspan><tspan class="cls-9" x="303.02" y="0">Y</tspan></text><text class="cls-10" transform="translate(2 199.21)">C<tspan class="cls-4" x="24.09" y="0">OR</tspan><tspan x="71.27" y="0">P</tspan><tspan class="cls-11" x="94.93" y="0">O</tspan><tspan x="118.94" y="0">R</tspan><tspan class="cls-12" x="142.11" y="0">A</tspan><tspan x="164.73" y="0">TI</tspan><tspan class="cls-13" x="199.58" y="0">V</tspan><tspan class="cls-6" x="223.28" y="0">O L</tspan><tspan class="cls-14" x="280.26" y="0">I</tspan><tspan class="cls-15" x="289.93" y="0">D</tspan><tspan class="cls-16" x="313.4" y="0">E</tspan><tspan class="cls-6" x="332.77" y="0">R</tspan></text><polygon class="cls-17" points="147.28 42.83 215.85 42.83 181.16 4.43 147.28 42.83"/><polygon class="cls-18" points="147.42 52.43 215.99 52.43 181.29 90.83 147.42 52.43"/><polygon class="cls-17" points="284.29 52.43 233.06 71.63 216.53 90.83 250.41 90.83 284.29 52.43"/><polygon class="cls-17" points="79.94 52.43 131.16 71.63 147.69 90.83 113.81 90.83 79.94 52.43"/><polygon class="cls-18" points="284.15 138.83 181.7 138.83 216.4 100.43 250.28 100.43 284.15 138.83"/><polygon class="cls-18" points="181.7 138.83 79.25 138.83 113.95 100.43 147.83 100.43 181.7 138.83"/></g></g></svg>