<svg xmlns="http://www.w3.org/2000/svg" viewBox="0 0 240.7 225.67"><defs><style>.cls-1{fill:#0498d3;}.cls-2{fill:#f8fbfd;}.cls-3{fill:#f9fcfd;}</style></defs><title>Linkedin</title><g id="Capa_2" data-name="Capa 2"><g id="Capa_6" data-name="Capa 6"><path class="cls-1" d="M119.58,225.65q-45.66,0-91.31,0C8.09,225.6,0,218.06,0,199.15Q0,112.6,0,26.05C0,7.8,8.3.05,27.83,0Q120.58,0,213.31,0c18.87,0,27.3,7.88,27.33,25.61q.12,87.45,0,174.88c0,17.08-8.58,25-26.9,25.09C182.36,225.72,151,225.65,119.58,225.65ZM128.92,174c0-7.54-.19-14.08,0-20.61.39-11.27.5-22.59,1.76-33.78.83-7.42,6.52-11.09,14.57-11.45,8.29-.37,13.34,3.18,14.88,10.73a59.7,59.7,0,0,1,1.09,11.48c.12,14.46.05,28.93.05,43.53h28.26c0-22.68,1.25-44.94-.43-67-1.14-15-13.45-22.72-29.67-23.62-11.79-.65-21.64,2.84-30,10.81-.94-3.37-1.69-6.08-2.32-8.35H99.79V174ZM52.15,85.61v88.12H80.93V85.61ZM83.75,57.8c-.1-9.55-7.39-16.27-17.42-16.06-9.37.2-16.95,7.14-17.15,15.7s8,16.65,17.27,16.74C76.09,74.27,83.84,66.94,83.75,57.8Z"/><path class="cls-2" d="M128.92,174H99.79V85.74h27.33c.63,2.27,1.38,5,2.32,8.35,8.39-8,18.24-11.46,30-10.81,16.22.9,28.53,8.65,29.67,23.62,1.68,22.06.43,44.32.43,67H161.31c0-14.6.07-29.07-.05-43.53a59.7,59.7,0,0,0-1.09-11.48c-1.54-7.55-6.59-11.1-14.88-10.73-8,.36-13.74,4-14.57,11.45-1.26,11.19-1.37,22.51-1.76,33.78C128.73,159.92,128.92,166.46,128.92,174Z"/><path class="cls-2" d="M52.15,85.61H80.93v88.12H52.15Z"/><path class="cls-3" d="M83.75,57.8c.09,9.14-7.66,16.47-17.3,16.38-9.27-.09-17.48-8-17.27-16.74S57,41.94,66.33,41.74C76.36,41.53,83.65,48.25,83.75,57.8Z"/></g></g></svg>