<svg xmlns="http://www.w3.org/2000/svg" viewBox="0 0 238.93 223.93"><defs><style>.cls-1{fill:#f8f8f8;}.cls-2{fill:#fdfdfd;}.cls-3{fill:#fbfbfb;}.cls-4{fill:#fcfcfc;}.cls-5{fill:#f9f9f9;}.cls-6{fill:#fafafa;}.cls-7{fill:#24b03b;}.cls-8{fill:#27b13d;}.cls-9{fill:#28b23e;}.cls-10{fill:#2ab33f;}.cls-11{fill:#2db542;}.cls-12{fill:#2bb340;}.cls-13{fill:#2cb441;}.cls-14{fill:#2bb540;}.cls-15{fill:#2db442;}.cls-16{fill:#58cd63;}.cls-17{fill:#56cd62;}.cls-18{fill:#54cb60;}.cls-19{fill:#56cc62;}.cls-20{fill:#55cc61;}.cls-21{fill:#45c354;}.cls-22{fill:#48c456;}.cls-23{fill:#41c051;}.cls-24{fill:#4bc659;}.cls-25{fill:#3fbe4f;}.cls-26{fill:#4dc75a;}.cls-27{fill:#4ac558;}.cls-28{fill:#42c153;}.cls-29{fill:#42c352;}.cls-30{fill:#40bf51;}.cls-31{fill:#45c255;}.cls-32{fill:#45c454;}.cls-33{fill:#43c054;}.cls-34{fill:#53ca60;}.cls-35{fill:#51c95e;}.cls-36{fill:#50c95d;}.cls-37{fill:#4fc85c;}.cls-38{fill:#53ca5f;}.cls-39{fill:#52c95e;}.cls-40{fill:#35ba48;}.cls-41{fill:#33b846;}.cls-42{fill:#31b745;}.cls-43{fill:#30b644;}.cls-44{fill:#2eb642;}.cls-45{fill:#35b948;}.cls-46{fill:#32b745;}.cls-47{fill:#34b847;}.cls-48{fill:#39bd4b;}.cls-49{fill:#3cbd4d;}.cls-50{fill:#37bb4a;}.cls-51{fill:#3abe4c;}.cls-52{fill:#38bb4a;}.cls-53{fill:#38bb4b;}.cls-54{fill:#25b13b;}.cls-55{fill:#26b23c;}.cls-56{fill:#25b23c;}.cls-57{fill:#28b33e;}.cls-58{fill:#27b33d;}.cls-59{fill:#29b43f;}.cls-60{fill:#28b43e;}.cls-61{fill:#2eb743;}.cls-62{fill:#2cb641;}.cls-63{fill:#2ab540;}.cls-64{fill:#2db742;}.cls-65{fill:#58d064;}.cls-66{fill:#57cf63;}.cls-67{fill:#58ce64;}.cls-68{fill:#54ce60;}.cls-69{fill:#56cf62;}.cls-70{fill:#53cd60;}.cls-71{fill:#54cd60;}.cls-72{fill:#45c555;}.cls-73{fill:#43c453;}.cls-74{fill:#47c656;}.cls-75{fill:#49c758;}.cls-76{fill:#40c251;}.cls-77{fill:#3dc04e;}.cls-78{fill:#4bc95a;}.cls-79{fill:#4ac859;}.cls-80{fill:#4dc95b;}.cls-81{fill:#44c554;}.cls-82{fill:#3fc150;}.cls-83{fill:#3cbe4d;}.cls-84{fill:#46c656;}.cls-85{fill:#4cc95a;}.cls-86{fill:#4eca5c;}.cls-87{fill:#52cc5f;}.cls-88{fill:#50cc5e;}.cls-89{fill:#4fcb5d;}.cls-90{fill:#36bc49;}.cls-91{fill:#37bd4a;}.cls-92{fill:#33ba47;}.cls-93{fill:#30b945;}.cls-94{fill:#30b844;}.cls-95{fill:#35bb48;}.cls-96{fill:#31b945;}.cls-97{fill:#33ba46;}.cls-98{fill:#3abf4d;}.cls-99{fill:#39be4b;}.cls-100{fill:#3bbf4d;}.cls-101{fill:#39be4c;}.cls-102{fill:#2bb641;}.cls-103{fill:#2fb844;}.cls-104{fill:#57d063;}.cls-105{fill:#59d164;}.cls-106{fill:#55cf62;}.cls-107{fill:#52cd5f;}.cls-108{fill:#44c354;}.cls-109{fill:#48c757;}.cls-110{fill:#41c352;}.cls-111{fill:#3fc250;}.cls-112{fill:#40c151;}.cls-113{fill:#40bf50;}.cls-114{fill:#3ec14f;}.cls-115{fill:#4dca5b;}.cls-116{fill:#34bb47;}.cls-117{fill:#34bb48;}.cls-118{fill:#38bd4b;}.cls-119{fill:#38bd4a;}.cls-120{fill:#32ba46;}.cls-121{fill:#32b946;}.cls-122{fill:#35bc49;}.cls-123{fill:#3cc04e;}.cls-124{fill:#2fb643;}.cls-125{fill:#2eb542;}.cls-126{fill:#2db642;}.cls-127{fill:#fefefe;}.cls-128{fill:#48c356;}.cls-129{fill:#44c153;}.cls-130{fill:#42c152;}.cls-131{fill:#3ebe4f;}.cls-132{fill:#3dbd4e;}.cls-133{fill:#41be51;}.cls-134{fill:#4bc558;}.cls-135{fill:#41bf51;}.cls-136{fill:#3fbe50;}.cls-137{fill:#47c356;}.cls-138{fill:#4ec85c;}.cls-139{fill:#4cc75a;}.cls-140{fill:#36b848;}.cls-141{fill:#3abc4c;}.cls-142{fill:#30b443;}.cls-143{fill:#32b545;}.cls-144{fill:#38bc4a;}.cls-145{fill:#38b94a;}.cls-146{fill:#3abd4c;}.cls-147{fill:#2fb242;}.cls-148{fill:#2fb443;}.cls-149{fill:#3abc4b;}.cls-150{fill:#31b445;}.cls-151{fill:#35b748;}.cls-152{fill:#32b546;}.cls-153{fill:#3cba4d;}.cls-154{fill:#39bc4b;}.cls-155{fill:#49c457;}.cls-156{fill:#3fbc4f;}.cls-157{fill:#36b849;}.cls-158{fill:#4cc65a;}.cls-159{fill:#3dbe4e;}</style></defs><title>Whatsapp</title><g id="Capa_2" data-name="Capa 2"><g id="Capa_2-2" data-name="Capa 2"><path class="cls-1" d="M221.88,168.13c-2.65,3.68-5.1,7.5-8,11A117.46,117.46,0,0,1,172,210.87a119.47,119.47,0,0,1-29.26,9.19,123.9,123.9,0,0,1-22.48,2c-4.84,0-9.68-.39-14.5-.82a112.87,112.87,0,0,1-28.37-6.48c-4.34-1.58-8.52-3.56-12.73-5.43A4.94,4.94,0,0,0,61.2,209q-30,7.43-60.12,14.75c-1.15.28-1.24.2-.92-.89q5.58-19,11.16-38c1.67-5.66,3.31-11.32,5-17a3.75,3.75,0,0,1,.37-.68c0,1.11.89.81,1.53.81H37.11l-.24.81c-.57,2-1.15,4-1.72,6L33,182.49c-.52,1.7-1.05,3.39-1.56,5.09q-1.32,4.36-2.6,8.74c-.25.83,0,1.05.87,1a4.61,4.61,0,0,0,.62-.14c1.91-.45,3.82-.9,5.73-1.37q14.27-3.51,28.53-7a2.53,2.53,0,0,1,2,.12c2.86,1.51,5.75,3,8.63,4.44l8.24,3.47L90,198.93a94.17,94.17,0,0,0,23.15,4.19,102.8,102.8,0,0,0,43.08-6.36c2.62-1.13,5.27-2.21,7.86-3.4,2.27-1.05,4.47-2.22,6.71-3.34,3.77-1.82,6.94-4.41,10.27-6.8a9.3,9.3,0,0,0,1.58-.88c1.08-.9,2.08-1.9,3.14-2.83,1.31-1.14,2.65-2.26,4-3.39l2.86-2.89a17.64,17.64,0,0,0,1.65-1.45c1.2-1.35,2.33-2.74,3.49-4.12.47.81,1.27.41,1.91.42C207.09,168.12,214.48,168.12,221.88,168.13Z"/><path class="cls-2" d="M41.89,27.43c3-2.29,6-4.7,9.13-6.83A119.4,119.4,0,0,1,90.66,3.44,138,138,0,0,1,106.76.73a126.35,126.35,0,0,1,17.5-.68A123.57,123.57,0,0,1,141,1.7a122,122,0,0,1,22.79,6.09,116.15,116.15,0,0,1,30.06,16.27c1.49,1.13,2.9,2.34,4.35,3.51a11.07,11.07,0,0,1-1.95.34q-16.4,0-32.78,0l-5.49-2a3,3,0,0,0-.69-.39c-4.42-1.33-8.83-2.71-13.29-3.92a52.91,52.91,0,0,0-5.68-.9c-.22-.14-.42-.38-.66-.4-1.45-.16-2.93-.14-4.35-.42a47.11,47.11,0,0,0-10.06-.78c-1,0-1.93-.28-2.9-.34a19.7,19.7,0,0,0-2.77,0,28.84,28.84,0,0,1-2.9.31,53,53,0,0,0-9.67.79c-1.5.2-3,.53-4.48.8A62.63,62.63,0,0,0,87.76,24c-3.2.58-6,2-9,3.22l-2.16.74H43.33C42.81,27.91,42.15,28.14,41.89,27.43Z"/><path class="cls-3" d="M222.64,55.06a85,85,0,0,1,7.74,14.43A98.22,98.22,0,0,1,237,90.66a89.5,89.5,0,0,1,1.86,21.53H227.59c-2.33,0-4.67,0-7,0-1.34,0-1.3,0-1.39-1.34-.05-.75-.22-1.5-.34-2.25-.16-1.08-.36-2.15-.49-3.23a18.31,18.31,0,0,1,0-2,10.1,10.1,0,0,0,0-1.35c-.24-1.68-.52-3.36-.79-5a26,26,0,0,0-.4-2.65c-.38-1.54-.87-3-1.31-4.58a15.57,15.57,0,0,0-.31-2.48c-.58-2-1.27-3.91-1.92-5.86l-4.18-9.26A21.75,21.75,0,0,0,206,66.12a3.38,3.38,0,0,0-.23-.7c-.81-1.32-1.63-2.63-2.45-4l-3.8-5.17c.48-.79,1.28-.4,1.93-.4,6.34,0,12.69,0,19,0a5.67,5.67,0,0,0,1.49,0C222.24,55.75,222.41,55.33,222.64,55.06Z"/><path class="cls-3" d="M1.23,103.32a57.24,57.24,0,0,1,1.44-12A101,101,0,0,1,9.86,68.61a72.49,72.49,0,0,1,7.21-13.18c.45.82,1.26.43,1.9.43,7.1,0,14.2,0,21.3,0-.26.46-.48.94-.78,1.38-.92,1.39-1.87,2.77-2.82,4.16l-2.93,4.41q-1.55,2.77-3.07,5.55a43.42,43.42,0,0,0-4.1,9.26l-1.27,3.2-1.72,6.37-1.27,5.21a40.84,40.84,0,0,0-1,9.08,16.88,16.88,0,0,0-.35,2.11c-.07,1.85-.06,3.71-.09,5.57H3.15c-2,0-1.9.14-1.9-1.69C1.26,108.11,1.24,105.71,1.23,103.32Z"/><path class="cls-4" d="M222.64,55.06c-.23.27-.4.69-.69.78a5.67,5.67,0,0,1-1.49,0c-6.34,0-12.69,0-19,0-.65,0-1.45-.39-1.93.4l-.47-.41a9.82,9.82,0,0,0-.76-1.14c-1.09-1.25-2.22-2.47-3.33-3.71l-7-6.74a16.87,16.87,0,0,0-1.65-1.73c-1.53-1.22-3.12-2.38-4.69-3.56-2.33-1.57-4.63-3.19-7-4.71-1.76-1.13-3.6-2.13-5.4-3.19L163.47,28q16.4,0,32.78,0a11.07,11.07,0,0,0,1.95-.34,87.42,87.42,0,0,1,11.68,10.71,112.25,112.25,0,0,1,12.35,15.89A8,8,0,0,1,222.64,55.06Z"/><path class="cls-4" d="M40.27,55.89c-7.1,0-14.2,0-21.3,0-.64,0-1.45.39-1.9-.43.66-1.09,1.28-2.19,2-3.25A114.33,114.33,0,0,1,39.73,29c.67-.58,1.44-1.07,2.16-1.6.26.71.92.48,1.44.49H76.61L74.46,29.1l-8.57,4.76a44.67,44.67,0,0,0-8.19,5.62l-5.51,4.38a64.83,64.83,0,0,0-8.09,8c-.8.9-1.52,1.87-2.28,2.8Z"/><path class="cls-5" d="M221.88,168.13c-7.4,0-14.79,0-22.19,0-.64,0-1.44.39-1.91-.42.73-1.21,2.1-2.07,2.26-3.6a14.71,14.71,0,0,0,3.81-4.73l4.24-6.78c1-2.07,2-4.14,3-6.22a1.59,1.59,0,0,0,0-.58,6.72,6.72,0,0,0,.92-1.18c.67-1.47,1.27-3,1.89-4.47l20.78.07c-1.16,3.44-2.21,6.92-3.52,10.31a100.44,100.44,0,0,1-8.8,17.05A4.77,4.77,0,0,1,221.88,168.13Z"/><path class="cls-5" d="M37.11,168.1H18.19c-.64,0-1.53.3-1.53-.81a10.29,10.29,0,0,0-.7-2A108.3,108.3,0,0,1,5.19,140.93a3,3,0,0,1-.05-.79c6.2,0,12.39,0,18.59,0,.64,0,1.44.39,1.93-.38L27,142.93c.26.66.48,1.33.8,2,1.12,2.28,2.27,4.55,3.41,6.83l4.55,7.63c.72,1.12,1.42,2.25,2.15,3.36a1.55,1.55,0,0,1,.22,1.78Z"/><path class="cls-6" d="M234.71,140.17l-20.78-.07,1-3.9a2.46,2.46,0,0,0,.37-.67c.46-1.9.9-3.81,1.34-5.72a14.94,14.94,0,0,0,.88-6l.42-1.52a13.6,13.6,0,0,0,.39-2.08,23,23,0,0,1,.09-4.32,13.46,13.46,0,0,0,.3-3.67c0-1.2.07-2.4.11-3.6.12.75.29,1.5.34,2.25.09,1.3.05,1.33,1.39,1.34,2.34,0,4.68,0,7,0h11.26a72.5,72.5,0,0,1-.74,12.31,109.23,109.23,0,0,1-3.1,15.18A2.31,2.31,0,0,1,234.71,140.17Z"/><path class="cls-6" d="M25.66,139.74c-.49.77-1.29.38-1.93.38-6.2,0-12.39,0-18.59,0-.71-2.6-1.56-5.18-2.11-7.82A112.17,112.17,0,0,1,.87,105.64a18.61,18.61,0,0,1,.36-2.32c0,2.39,0,4.79,0,7.18,0,1.83-.06,1.69,1.9,1.69H20.91l.43,4.07c0,2.34-.16,4.69.88,6.91.07.16,0,.39,0,.58A12.87,12.87,0,0,0,23,129l1.73,6.78Z"/><path class="cls-7" d="M156.24,196.76a102.8,102.8,0,0,1-43.08,6.36A94.17,94.17,0,0,1,90,198.93l-6.52-2.17,3.4-.31c3.34,1.06,6.69,2,10.28,1.6a6.79,6.79,0,0,0,.87.39c1,.29,2.25.3,2.94.89a3.62,3.62,0,0,0,2.7.71,39.59,39.59,0,0,1,5.34.07,58.35,58.35,0,0,0,9.24.74c2.21,0,4.42,0,6.63,0a6.81,6.81,0,0,0,1.28,0,51.53,51.53,0,0,1,9-.77c.64,0,1.28,0,1.92,0,.34,0,.86,0,1-.2.61-.93,1.64-.89,2.58-1.12.64-.16,1.25-.44,1.87-.66a22.77,22.77,0,0,0,9.09-1.23c.39-.14.79-.25,1.18-.37Z"/><path class="cls-8" d="M75.25,193.29c-2.88-1.48-5.77-2.93-8.63-4.44a2.53,2.53,0,0,0-2-.12q-14.25,3.56-28.53,7c-1.91.47-3.82.92-5.73,1.37a4.61,4.61,0,0,1-.62.14c-.91.09-1.12-.13-.87-1q1.27-4.38,2.6-8.74c.51-1.7,1-3.39,1.56-5.09a1,1,0,0,1,.67,1.41,14.59,14.59,0,0,1-.48,1.63c-.62,1.25.44.85,1,.94h1.28c-.28.79-.56,1.6-.87,2.39a1.63,1.63,0,0,1-.47.75A2.85,2.85,0,0,0,33,192.8a.82.82,0,0,0,.59.42,53.41,53.41,0,0,0,7.17-.28c3.14-.5,6.22-1.35,9.3-2.13a25.53,25.53,0,0,0,3-1.15c.82-.12,1.66-.2,2.47-.37,2.11-.42,4.22-.88,6.33-1.33a11.63,11.63,0,0,1,8.92,1.24,6.67,6.67,0,0,0,1.55.46,16.19,16.19,0,0,0,1.77,1.2c1.53.83,3.1,1.6,4.65,2.39Z"/><path class="cls-8" d="M156.24,196.76l-3.41-.31c.86-.34,1.72-.66,2.58-1a4.69,4.69,0,0,0,.67-.42l-.77-.17-.57-.17.51-.23,2.72-1.2,5.9-2.49,2.67-1.1c.77,0,1.55,0,2.32,0s1.3.23,1.95.35c-2.24,1.12-4.44,2.29-6.71,3.34C161.51,194.55,158.86,195.63,156.24,196.76Z"/><path class="cls-9" d="M170.81,190c-.65-.12-1.29-.29-1.95-.35s-1.55,0-2.32,0l5.13-3.19a4.67,4.67,0,0,0,3.47-1c1.19-1,2.54-1.75,3.81-2.62l2.13.35C177.75,185.61,174.58,188.2,170.81,190Z"/><path class="cls-10" d="M34.23,186.47c-.57-.09-1.63.31-1-.94a14.59,14.59,0,0,0,.48-1.63,1,1,0,0,0-.67-1.41l2.12-7.59a3.21,3.21,0,0,0,.38.62c.33.31,1,.54,1,.86s-.29,1-.42,1.44a3.88,3.88,0,0,0,.68.26c-.28.79-.58,1.58-.81,2.38-.18.61.2.83.81.81,0,.61,0,1.25-.68,1.52A1.56,1.56,0,0,0,35,184.28,11,11,0,0,1,34.23,186.47Z"/><path class="cls-11" d="M200,164.06c-.16,1.53-1.53,2.39-2.26,3.6-1.16,1.38-2.29,2.77-3.49,4.12a17.64,17.64,0,0,1-1.65,1.45l-2.13-.34-.59-.43,2.74-3.17c.75,0,1.53.16,2.09-.61s1.45-1.73,2.19-2.58c.51-.29,1-.56,1.53-.88S199.52,164.45,200,164.06Z"/><path class="cls-12" d="M181.08,183.22l-2.13-.35.43-1.6c1.2,0,2.43.15,3-1.19a15.58,15.58,0,0,0,4.71-4h.43l2.26,0c-1.33,1.13-2.67,2.25-4,3.39-1.06.93-2.06,1.93-3.14,2.83A9.3,9.3,0,0,1,181.08,183.22Z"/><path class="cls-13" d="M36.8,178.08a3.88,3.88,0,0,1-.68-.26c.13-.49.49-1,.42-1.44s-.68-.55-1-.86a3.21,3.21,0,0,1-.38-.62l1.72-6,1.21.38c-.16.43-.33.85-.47,1.28-.8,2.32-.8,2.32,1.75,2.32l-.85,3.19c-.14.35-.42.71-.4,1C38.17,178.11,37.53,178.12,36.8,178.08Z"/><path class="cls-8" d="M75.25,193.29l3.51,0h3.42l2.3,1.19a4.67,4.67,0,0,0,.51.23c-.19.06-.37.13-.56.18l-.78.17a4.69,4.69,0,0,0,.67.42c.85.35,1.71.67,2.57,1l-3.4.31Z"/><path class="cls-14" d="M189.78,176.12l-2.26,0,3-3.19,2.13.34Z"/><path class="cls-15" d="M38.08,169.29l-1.21-.38.24-.81,1-3.6c1,0,.83.72.73,1.26C38.66,166.94,38.35,168.12,38.08,169.29Z"/><path class="cls-16" d="M100.53,20.71c1.5-.27,3-.6,4.48-.8a53,53,0,0,1,9.67-.79,28.84,28.84,0,0,0,2.9-.31,19.7,19.7,0,0,1,2.77,0c1,.06,1.94.35,2.9.34a47.11,47.11,0,0,1,10.06.78c1.42.28,2.9.26,4.35.42.24,0,.44.26.66.4l-1.76,0h-3c-.66-.79-1.58-.27-2.36-.4a72,72,0,0,0-10.27-.77,32.47,32.47,0,0,0-6.74.31,67.59,67.59,0,0,1-7.15.47,2.2,2.2,0,0,0-.62.22l.35.16.86.28-.82.13c-1.25.13-2.51.22-3.74.41-.9.15-1.76.43-2.64.66l2.73.12c.14,0,.28,0,.42,0l1.42.14-1.38.27c-.74.13-1.49.23-2.22.4-1.56.38-3.11.79-4.67,1.19H95l-3.43.4-1.49-.4-.38-.12a1.54,1.54,0,0,1,.36-.27,13.73,13.73,0,0,1,1.39-.4l10.9-2.41a3.81,3.81,0,0,0,.57-.19,1.77,1.77,0,0,0-.51-.19C101.81,20.72,101.17,20.72,100.53,20.71Z"/><path class="cls-17" d="M136.56,20.74l1.76,0a52.91,52.91,0,0,1,5.68.9c4.46,1.21,8.87,2.59,13.29,3.92a3,3,0,0,1,.69.39L157,26a2.92,2.92,0,0,0,.51.42c2.2,1.17,4.4,2.34,6.62,3.49.55.28,1.13.52,1.69.81,0,0-.06.23-.09.36h-2.57c-1.21-.64-2.39-1.33-3.65-1.89s-2.76-.75-3.83-1.5a7.52,7.52,0,0,0-2.91-1.67c-1.68-.56-3.35-1.15-5-1.73.71,0,1.42,0,2.13,0a4.48,4.48,0,0,0,.62-.11,2.76,2.76,0,0,0-.62-.31L138.5,21.14C137.86,21,137.05,21.51,136.56,20.74Z"/><path class="cls-18" d="M65.89,33.86l8.57-4.76,2.15-1.18,2.16-.74c-.29.37,1.32.26.25.79-1.67.83-3.48,1.44-5,2.42s-2.63,2.23-4.37,2.8a2.32,2.32,0,0,0-1.12,1.13,3.78,3.78,0,0,1-.67.71c-1.1.7-2.23,1.34-3.33,2-.63.4-1.23.86-1.84,1.3s-.4.42-.84,1.27a7.19,7.19,0,0,1-1.45,1.47h-.86A.41.41,0,0,1,59.3,41s-.1-.15-.08-.16A17.42,17.42,0,0,0,60.86,39c1.12-1.14,2-2.64,3.67-3.25a3.74,3.74,0,0,0,1.37-.89C66.07,34.66,65.9,34.2,65.89,33.86Z"/><path class="cls-19" d="M68.48,34.32a2.32,2.32,0,0,1,1.12-1.13c1.74-.57,2.91-1.89,4.37-2.8S77.35,28.8,79,28c1.07-.53-.54-.42-.25-.79,3-1.19,5.79-2.64,9-3.22,0,.28.61.57-.23.81-2,.6-4,1.37-6.06,2.1a3.31,3.31,0,0,0-.78.54,4.61,4.61,0,0,0,.82.11c.62,0,1.16,0,1.1.81-.77.39-1.53.8-2.31,1.19l-3.25,1.6h-.86a4,4,0,0,0-1.44.1c-1.83,1-3.61,2.06-5.41,3.1Z"/><path class="cls-19" d="M82.61,28.33c.06-.78-.48-.83-1.1-.81a4.61,4.61,0,0,1-.82-.11,3.31,3.31,0,0,1,.78-.54c2-.73,4-1.5,6.06-2.1.84-.24.22-.53.23-.81a62.63,62.63,0,0,1,12.77-3.25c.64,0,1.28,0,1.91,0a1.77,1.77,0,0,1,.51.19,3.81,3.81,0,0,1-.57.19l-10.9,2.41a13.73,13.73,0,0,0-1.39.4,1.54,1.54,0,0,0-.36.27l.38.12,1.49.4c-1.53.45-3.07.86-4.58,1.35-1,.32-2.44.54-2.77,1.2A1.85,1.85,0,0,1,82.61,28.33Z"/><path class="cls-20" d="M165.68,31.12c0-.13.12-.35.09-.36-.56-.29-1.14-.53-1.69-.81-2.22-1.15-4.42-2.32-6.62-3.49A2.92,2.92,0,0,1,157,26l1-.11,5.49,2,5.69,3.16-.61.08c0,.15,0,.39.08.44,1.18.65,2.39,1.27,3.58,1.92a3.16,3.16,0,0,1,.56.54c-.3.07-.6.17-.9.22a4.26,4.26,0,0,1-.62,0h-.86l-2.94-2C166.85,31.93,166.27,31.52,165.68,31.12Z"/><path class="cls-21" d="M213.57,81.44c.65,2,1.34,3.89,1.92,5.86a15.57,15.57,0,0,1,.31,2.48c-.36.29-1.05.63-1,.86.24,1.47.64,2.92,1,4.38h-1.71a3.21,3.21,0,0,1-.37-.71c-.55-2.49-.54-2.49-3.28-2.49h-.21c-.14-.53-.28-1.06-.43-1.6.91,0,1.82,0,2.72,0,1.09,0,1.34-.34,1.06-1.34-.37-1.29-.8-2.56-1.21-3.85.14-.26.44-.54.4-.77a8.88,8.88,0,0,0-.61-2c-.31-.66,0-.8.6-.82Z"/><path class="cls-22" d="M213.57,81.44h-.83c-.61,0-.91.16-.6.82a8.88,8.88,0,0,1,.61,2c0,.23-.26.51-.4.77l-2.57-6.79-1.28-3.19c.06,0,.18-.07.18-.08a8.68,8.68,0,0,1-.36-1.55c0-.62,1.39-.31,1.07-1.24Z"/><path class="cls-23" d="M217.51,97c.27,1.68.55,3.36.79,5a10.1,10.1,0,0,1,0,1.35c-.65,0-1.38-.1-1.27.85s.32,1.81.36,2.71c0,.62.55,1.56-.8,1.63h-.85a6.58,6.58,0,0,1,0-1.52c1.16-.17.88-.9.69-1.5-.32-1-.27-2.18-1.47-2.82-.17-.09-.08-.62-.11-1h1.29c.88-.74.35-1.68.33-2.52a16.13,16.13,0,0,0-.33-2.27Z"/><path class="cls-24" d="M203.3,61.47c.82,1.32,1.64,2.63,2.45,4a3.38,3.38,0,0,1,.23.7c.15.5.3,1,.42,1.49a1.79,1.79,0,0,1,0,.6c-1.16,0-.59.65-.38,1,.37.65-.07.62-.51.64l-.86-1.6c-.71-1.2-1.42-2.4-2.14-3.59.2-.15.58-.38.56-.42-.22-.4-.52-.76-.76-1.16s-.58-1-.86-1.49Z"/><path class="cls-25" d="M216.63,108.59c1.35-.07.83-1,.8-1.63,0-.9-.25-1.8-.36-2.71s.62-.84,1.27-.85a18.31,18.31,0,0,0,0,2c.13,1.08.33,2.15.49,3.23,0,1.2-.07,2.4-.11,3.6a4.24,4.24,0,0,0-.8.64,5,5,0,0,0-.45,1c0-.46.1-1.15-.16-1.32-.89-.57-.68-1.35-.69-2.1C216.63,109.78,216.63,109.18,216.63,108.59Z"/><path class="cls-26" d="M203.3,61.47l-1.86.13c.28.5.55,1,.86,1.49s.54.76.76,1.16c0,0-.36.27-.56.42-.63-.94-1.73-1.84-1.81-2.81-.17-1.8-1.48-2.76-2.47-4-.09-.17-.18-.35-.29-.52-.45-.65-.51-1.13.55-1.2.19,0,.36-.18.55-.27l.47.41Z"/><path class="cls-27" d="M205.5,69.86c.44,0,.88,0,.51-.64-.21-.36-.78-1,.38-1a1.79,1.79,0,0,0,0-.6c-.12-.5-.27-1-.42-1.49a21.75,21.75,0,0,1,3.41,6.06c.32.93-1.08.62-1.07,1.24a8.68,8.68,0,0,0,.36,1.55s-.12,0-.18.08l-1.29-2Z"/><path class="cls-28" d="M217.51,97h-1.3c-.15-.66-.29-1.33-.43-2-.35-1.46-.75-2.91-1-4.38,0-.23.65-.57,1-.86.44,1.53.93,3,1.31,4.58A26,26,0,0,1,217.51,97Z"/><path class="cls-29" d="M22.31,95.43l1.27-5.21H24c1.7.18,1.68.19,1.13,1.54a15,15,0,0,0-.4,1.5c-.45,1.65-.46,1.65,1.41,1.76-.58,2-.58,2,1.73,2h.41v1.6l-.43,3.19H24c-.43,0-.87,0-.76-.64.24-1.2.46-2.4.67-3.61a.53.53,0,0,0-.09-.34C22.37,97.26,23,95.88,22.31,95.43Z"/><path class="cls-30" d="M22.31,95.43c.67.45.06,1.83,1.46,1.78a.53.53,0,0,1,.09.34c-.21,1.21-.43,2.41-.67,3.61-.11.62.33.62.76.64a11.25,11.25,0,0,0-.25,1.7c0,1.14-.27,2.4.19,3.36a6,6,0,0,1,.49,1.73c-1.65.09-1.78.13-2.06,1.48a12.46,12.46,0,0,0-.08,2.12c-.82-.46-.28-1.2-.43-1.8s.39-1.33-.42-1.79l0-4.09A40.84,40.84,0,0,1,22.31,95.43Z"/><path class="cls-22" d="M26.57,80.65a43.42,43.42,0,0,1,4.1-9.26c.12.06.36.15.35.18-.33,1.05.87,2,.24,3.09,0,0,.26.25.4.39-.37.81-.71,1.63-1.1,2.43s.15.74.67.76a15.35,15.35,0,0,0-.83,2.19c-.22,1-.91,1-1.74,1h-.43C27.43,81.63,27,81.09,26.57,80.65Z"/><path class="cls-26" d="M40.27,55.89l1.55-1.26c1,.77,1.09,1.19.4,2.37-.22.38-.42.65.14.88l-2.57,3.59-2.57,3.2c-.58-.67.2-1,.45-1.41s.72-1.11,1.08-1.66l-2.08-.17c.95-1.39,1.9-2.77,2.82-4.16C39.79,56.83,40,56.35,40.27,55.89Z"/><path class="cls-24" d="M36.67,61.43l2.08.17c-.36.55-.74,1.09-1.08,1.66s-1,.74-.45,1.41c-.27.64-.53,1.29-.83,1.92s-.59,1.11-.88,1.67l-1.28,1.6c-1-.37.39-1.11-.2-1.41-1-.5-.38-1-.15-1.56s.64-.78-.14-1Z"/><path class="cls-27" d="M33.74,65.84c.78.27.31.65.14,1S33,68,34,68.45c.59.3-.83,1,.2,1.41l-.86,1.59c-1,0-1.37.88-1.16,1.28.56,1-.34,1.57-.55,2.32-.14-.14-.43-.34-.4-.39.63-1.08-.57-2-.24-3.09,0,0-.23-.12-.35-.18Q32.2,68.62,33.74,65.84Z"/><path class="cls-31" d="M24,90.22h-.37l1.72-6.37c.45.51.49,1.53,1.65,1.18a7.76,7.76,0,0,0-.42,1.1c-.26,1-.1,2.19-1.77,2.17-.12,0-.28.4-.37.63C24.23,89.36,24.1,89.79,24,90.22Z"/><path class="cls-32" d="M27,85c-1.16.35-1.2-.67-1.65-1.18l1.27-3.2c.46.44.86,1,1.66.79Z"/><path class="cls-33" d="M21.35,104.51l0,4.09v5.19l-.06,2.47-.43-4.07c0-1.86,0-3.72.09-5.57A16.88,16.88,0,0,1,21.35,104.51Z"/><path class="cls-34" d="M171.25,34.32a4.26,4.26,0,0,0,.62,0c.3-.05.6-.15.9-.22a3.16,3.16,0,0,0-.56-.54c-1.19-.65-2.4-1.27-3.58-1.92-.09-.05-.06-.29-.08-.44l.61-.08c1.8,1.06,3.64,2.06,5.4,3.19,2.37,1.52,4.67,3.14,7,4.71l0,2.09h-1.28a7.26,7.26,0,0,0-1.6-.9c-.89-.26.44-.83-.41-1.31C175.8,37.52,173.56,35.86,171.25,34.32Z"/><path class="cls-35" d="M181.52,41.1l0-2.09c1.57,1.18,3.16,2.34,4.69,3.56a16.87,16.87,0,0,1,1.65,1.73c-.21,0-.42,0-.63,0s-.55.08-.82.12c.19.15.38.31.58.45,2.25,1.63,3.42,4,5,6.14l-.2.08h-.43l-3-3.2c-.57-.46-1.17-.9-1.7-1.4a10.89,10.89,0,0,1-2.31-2.82C183.8,42.63,182.5,42,181.52,41.1Z"/><path class="cls-36" d="M191.8,51.09,192,51c-1.55-2.12-2.72-4.51-5-6.14-.2-.14-.39-.3-.58-.45.27,0,.54-.09.82-.12s.42,0,.63,0l7,6.74-1.46.05a6,6,0,0,0-.61.09,3.68,3.68,0,0,0,.37.64c.79,1,1.61,1.91,2.41,2.86h-.43A11,11,0,0,1,191.8,51.09Z"/><path class="cls-37" d="M195.65,54.68c-.8-1-1.62-1.9-2.41-2.86a3.68,3.68,0,0,1-.37-.64,6,6,0,0,1,.61-.09l1.46-.05c1.11,1.24,2.24,2.46,3.33,3.71a9.82,9.82,0,0,1,.76,1.14c-.19.09-.36.26-.55.27-1.06.07-1,.55-.55,1.2.11.17.2.35.29.52h-.43c-.41-.4-1.24-.91-1.16-1.17C197,55.68,196.09,55.3,195.65,54.68Z"/><path class="cls-37" d="M42.36,57.88c-.56-.23-.36-.5-.14-.88.69-1.18.6-1.6-.4-2.37.76-.93,1.48-1.9,2.28-2.8a64.83,64.83,0,0,1,8.09-8c0,.33.2.8,0,1-.72.79-1.56,1.48-2.32,2.23a3.09,3.09,0,0,0-.42.73l1,.09c-.63,1.34-2.79,1.79-2.47,3.69l-3.1,3.1c-.88,0-1.69.57-1.58,1.17C43.55,56.88,42.81,57.26,42.36,57.88Z"/><path class="cls-38" d="M65.89,33.86c0,.34.18.8,0,1a3.74,3.74,0,0,1-1.37.89c-1.7.61-2.55,2.11-3.67,3.25a17.42,17.42,0,0,1-1.64,1.87s0,.12.08.16a.41.41,0,0,0,.19.08l-1.28,1.6c-2.49,1.24-4.16,3.3-6,5.19H50.93c1-1.55,3-2.4,3.61-4.26.12-.34.78-.5,1.15-.79a5.67,5.67,0,0,0,1.17-1.12c.12-.18,1.47-.08.31-.73a6.39,6.39,0,0,0,1.09-1c.54-.77-.34-.38-.56-.54A44.67,44.67,0,0,1,65.89,33.86Z"/><path class="cls-39" d="M57.7,39.48c.22.16,1.1-.23.56.54a6.39,6.39,0,0,1-1.09,1c1.16.65-.19.55-.31.73a5.67,5.67,0,0,1-1.17,1.12c-.37.29-1,.45-1.15.79-.65,1.86-2.6,2.71-3.61,4.26H50.5l-1-.09a3.09,3.09,0,0,1,.42-.73c.76-.75,1.6-1.44,2.32-2.23.17-.18,0-.65,0-1Z"/><path class="cls-40" d="M215,136.2l-1,3.9c-.62,1.49-1.22,3-1.89,4.47a6.72,6.72,0,0,1-.92,1.18l-1.33.76-1.29.82h-3.86c.21-.61.24-1.36.65-1.8a5.27,5.27,0,0,0,1.07-3h.43c.92,0,1.84,0,2.75,0s1.34-.17,1.54-1,.56-1.73.84-2.6c1.2.26,1.75-.29,2-1.31a14.48,14.48,0,0,1,.61-1.62Z"/><path class="cls-41" d="M208.5,147.33l1.29-.82,1.33-.76a1.59,1.59,0,0,1,0,.58c-1,2.08-2,4.15-3,6.22l-1.73,0Q207.43,149.92,208.5,147.33Z"/><path class="cls-42" d="M206.36,152.52l1.73,0q-2.13,3.39-4.24,6.78l-1.77,0,1.71-3.19C205.78,155.63,206.06,154.07,206.36,152.52Z"/><path class="cls-43" d="M202.08,159.31l1.77,0a14.71,14.71,0,0,1-3.81,4.73c-.52.39-1,.8-1.57,1.16s-1,.59-1.53.88q1.27-1.8,2.57-3.59l2.14-3.2Z"/><path class="cls-44" d="M38.08,169.29c.27-1.17.58-2.35.8-3.53.1-.54.31-1.24-.73-1.26a1.55,1.55,0,0,0-.22-1.78c-.73-1.11-1.43-2.24-2.15-3.36l1.44-.05c1.08,1.7,2.15,3.4,3.25,5.08.07.11.4.08.61.11-.15,1.6-.29,3.2-.43,4.79H38.08Z"/><path class="cls-45" d="M25.66,139.74l-1-4c.31.1.8.11.9.3a4.48,4.48,0,0,1,.49,1.66c.08,1.1.8,1.26,1.73,1.2.31.84.59,1.69.92,2.52s.67,1.29,1.65,1.08a5.55,5.55,0,0,1,.36,2.25,3.58,3.58,0,0,0,.5,2.54c-.25-.08-.65-.09-.74-.25-.74-1.32-2.18-2.26-2.37-3.9-.06-.61-.63-.54-1.1-.25Z"/><path class="cls-46" d="M37.22,159.31l-1.44.05-4.55-7.63c.53-1,.75-1,1.27-.38.16.21.24.48.41.67s.3.07.46.1l.43.4,4.28,6.79Z"/><path class="cls-47" d="M33.37,152.12c-.16,0-.38,0-.46-.1s-.25-.46-.41-.67c-.52-.65-.74-.59-1.27.38-1.14-2.28-2.29-4.55-3.41-6.83-.32-.64-.54-1.31-.8-2,.47-.29,1-.36,1.1.25.19,1.64,1.63,2.58,2.37,3.9.09.16.49.17.74.25Z"/><path class="cls-48" d="M217.54,123.78a14.94,14.94,0,0,1-.88,6l-.1-.57c-.13.07-.32.1-.38.19-1.1,1.78-2.57,3.41-2.91,5.52-.15.89-.72.79-1.35.8h-2.57q.43-2.59.86-5.19h.43c.64,0,1.28,0,1.92,0s1.29.12,1.63-.16a4.65,4.65,0,0,0,1.52-1.94,15.71,15.71,0,0,0,.5-3.08c.46,0,.8-.09.87-.64A3.32,3.32,0,0,1,217.54,123.78Z"/><path class="cls-49" d="M217.49,113.79a5,5,0,0,1,.45-1,4.24,4.24,0,0,1,.8-.64,13.46,13.46,0,0,1-.3,3.67,23,23,0,0,0-.09,4.32,13.6,13.6,0,0,1-.39,2.08c0-.39,0-.79-.06-1.18,0-.11-.12-.22-.19-.33a1.17,1.17,0,0,0-.2.31c-.43,1.44-1.34,2.75-1.3,4.31h-1.72c.11-.64-.38-1.55.88-1.65l.74-2.88c-1.26-.27-.71-1.17-.76-1.86.21,0,.58,0,.59-.1.19-1,1.1-1.67.78-2.86C216.55,115.38,217.21,114.54,217.49,113.79Z"/><path class="cls-50" d="M211.92,135.75c.63,0,1.2.09,1.35-.8.34-2.11,1.81-3.74,2.91-5.52.06-.09.25-.12.38-.19l.1.57c-.44,1.91-.88,3.82-1.34,5.72a2.46,2.46,0,0,1-.37.67l-.4-.19a14.48,14.48,0,0,0-.61,1.62c-.27,1-.82,1.57-2,1.31-.6,0-1-.2-.81-.81C211.35,137.33,211.65,136.54,211.92,135.75Z"/><path class="cls-51" d="M216.21,125.37c0-1.56.87-2.87,1.3-4.31a1.17,1.17,0,0,1,.2-.31c.07.11.18.22.19.33,0,.39,0,.79.06,1.18l-.42,1.52a3.32,3.32,0,0,0-.46,1C217,125.28,216.67,125.36,216.21,125.37Z"/><path class="cls-49" d="M21.34,116.26l.06-2.47h1.27v1.59c0,1.26-.15,2.55.85,3.6.14,1.07.26,2.15.44,3.22.09.47.19,1.18.52,1.34.94.45.73,1.14.75,1.83H23.09c.06-.71,0-1.37-.9-1.62,0-.19.1-.42,0-.58C21.18,121,21.35,118.6,21.34,116.26Z"/><path class="cls-52" d="M27.8,138.94c-.93.06-1.65-.1-1.73-1.2a4.48,4.48,0,0,0-.49-1.66c-.1-.19-.59-.2-.9-.3L23,129l.57,0c.93.5.08,1.64,1.14,2.3,1.43.89,1.84,2.57,2.29,4.09.15.7.29,1.4.46,2.09C27.53,138,27.67,138.44,27.8,138.94Z"/><path class="cls-53" d="M23.52,129,23,129a12.87,12.87,0,0,1-.76-5.25c.89.25,1,.91.9,1.62Z"/><path class="cls-54" d="M142.56,198.05c-.62.22-1.23.5-1.87.66-.94.23-2,.19-2.58,1.12-.13.19-.65.19-1,.2-.64,0-1.28,0-1.92,0a51.53,51.53,0,0,0-9,.77,6.81,6.81,0,0,1-1.28,0c-2.21,0-4.42,0-6.63,0a58.35,58.35,0,0,1-9.24-.74,39.59,39.59,0,0,0-5.34-.07,3.62,3.62,0,0,1-2.7-.71c-.69-.59-2-.6-2.94-.89a6.79,6.79,0,0,1-.87-.39h45.39Z"/><path class="cls-55" d="M110.44,198.05H97.17c-3.59.37-6.94-.54-10.28-1.6-.86-.34-1.72-.66-2.57-1a4.69,4.69,0,0,1-.67-.42l.78-.17c.19,0,.37-.12.56-.18a4.67,4.67,0,0,1-.51-.23l-2.3-1.19h7.28c1.15.47,2.27,1,3.45,1.4,1.59.52,3.26.65,4.89,1.27,1.93.74,4.23.66,6.38.93.41.05,1-.08,1.21.12.8,1.05,1.93.53,2.91.69C109,197.77,109.86,197.3,110.44,198.05Z"/><path class="cls-56" d="M142.56,198.05H129.71c.66-.79,1.58-.25,2.36-.4.61-.11,1.49,0,1.78-.3.53-.61,1.11-.44,1.7-.5s1.26-.11,1.88-.21a10.84,10.84,0,0,1,3.26-.51c1.36.22,2.08-.82,3.27-1a14.25,14.25,0,0,0,6.31-1.92H158l-2.72,1.2-.51.23.57.17.77.17a4.69,4.69,0,0,1-.67.42c-.86.35-1.72.67-2.58,1-.39.12-.79.23-1.18.37A22.77,22.77,0,0,1,142.56,198.05Z"/><path class="cls-57" d="M72.34,189.66a6.67,6.67,0,0,1-1.55-.46A11.63,11.63,0,0,0,61.87,188c-2.11.45-4.22.91-6.33,1.33-.81.17-1.65.25-2.47.37H41.51c.15-.26.29-.74.47-.75,2.9-.18,5.51-1.44,8.32-2,.64-.12,1.27-.31,1.91-.47h21c1.77.79,3.52,1.64,5.33,2.36.5.2.66.4.67.83Z"/><path class="cls-58" d="M41.51,189.66H53.07a25.53,25.53,0,0,1-3,1.15c-3.08.78-6.16,1.63-9.3,2.13a53.41,53.41,0,0,1-7.17.28.82.82,0,0,1-.59-.42,2.85,2.85,0,0,1,1.17-3.19,1.63,1.63,0,0,0,.47-.75c.31-.79.59-1.6.87-2.39H37.2c.61,0,.86.24.89.81,0,.76-.1,1.82.35,2.19s1.6.16,2.43.19Z"/><path class="cls-59" d="M41.51,189.66h-.64c-.83,0-1.93.21-2.43-.19s-.31-1.43-.35-2.19c0-.57-.28-.83-.89-.81h-3a11,11,0,0,0,.81-2.19,1.56,1.56,0,0,1,1.08-1.49c.72-.27.71-.91.68-1.52h3a29.41,29.41,0,0,0-1.11,3.6c-.22,1.49-.28,1.59,1.35,1.59,4.06,0,8.12,0,12.18,0-.64.16-1.27.35-1.91.47-2.81.53-5.42,1.79-8.32,2C41.8,188.92,41.66,189.4,41.51,189.66Z"/><path class="cls-58" d="M72.34,189.66H80a17.06,17.06,0,0,0,3.92,1.9,29.71,29.71,0,0,1,4.22,1.69H78.76c-1.55-.79-3.12-1.56-4.65-2.39A16.19,16.19,0,0,1,72.34,189.66Z"/><path class="cls-60" d="M88.18,193.25A29.71,29.71,0,0,0,84,191.56a17.06,17.06,0,0,1-3.92-1.9h76.82c1.57,0,3.11.14,4.59-.78a47.48,47.48,0,0,1,5.09-2.4h5.13l-5.13,3.19-2.67,1.1-5.9,2.49H88.18Z"/><path class="cls-59" d="M171.67,186.47h-4.28c.15-.27.22-.64.45-.78,1.31-.8,2.69-1.51,4-2.33,1-.63,1.9-1.39,2.84-2.09h4.71l-.43,1.6c-1.27.87-2.62,1.67-3.81,2.62A4.67,4.67,0,0,1,171.67,186.47Z"/><path class="cls-14" d="M39.79,181.27h-3c-.61,0-1-.2-.81-.81.23-.8.53-1.59.81-2.38.73,0,1.37,0,1.31-1,0-.34.26-.7.4-1h3c-.09.24-.11.62-.27.68-.71.28-.57.82-.59,1.32Z"/><path class="cls-61" d="M199.51,162.51q-1.29,1.78-2.57,3.59c-.74.85-1.53,1.67-2.19,2.58s-1.34.59-2.09.61h-3.43c.24-.38.39-.88.75-1.12a8.78,8.78,0,0,0,3.1-3.67c.28-.14.76-.24.8-.42.29-1.46,1.37-1.64,2.67-1.58.7,0,1.4,0,2.1,0Z"/><path class="cls-62" d="M189.23,169.29h3.43l-2.74,3.17.59.43-3,3.19H182l3.43-3.19a25.78,25.78,0,0,0,2-1.72,17.3,17.3,0,0,0,1.4-1.88Z"/><path class="cls-14" d="M182,176.08h5.14a15.58,15.58,0,0,1-4.71,4c-1.66-.76-3.43-.26-5.14-.4l.86-.8a5.85,5.85,0,0,0,3-2.8Z"/><path class="cls-63" d="M177.24,179.68c1.71.14,3.48-.36,5.14.4-.57,1.34-1.8,1.24-3,1.19H175.1l1.07-.79Z"/><path class="cls-64" d="M182,176.08H38.51l.85-3.19.86-3.6h3a6.53,6.53,0,0,1-.48,1.61c-.78,1.31-.48,1.95,1,2,.5,0,1,0,1.5,0h140.1Z"/><path class="cls-15" d="M40.22,169.29l-.86,3.6c-2.55,0-2.55,0-1.75-2.32.14-.43.31-.85.47-1.28Z"/><path class="cls-65" d="M95,24.33h50.1l3.64,1.21a1.26,1.26,0,0,1,.38.27,2.5,2.5,0,0,1-.39.11c-.41.06-.82.1-1.23.14.41.12.82.22,1.22.35q1,.33,1.95.69c.21.08.4.22.6.32a3.34,3.34,0,0,1-.62.1c-1.91,0-3.82,0-5.74,0-.18,0-.37.27-.55.42.15.11.3.31.45.31,2.82.08,5.21,1.51,7.85,2.17.64.16,1.24.44,1.86.66H86c.81-.31,1.62-.6,2.42-.93A20.87,20.87,0,0,1,91,29.14c1.48-.36,3-.55,4.5-.83a2.32,2.32,0,0,0,.67-.33c-.25-.15-.5-.42-.76-.43-1.2-.05-2.41,0-3.62,0-1,0-2-.06-3-.1l2.75-1.07a5.39,5.39,0,0,0,.59-.29l-.59-.13L91,25.8a4.48,4.48,0,0,1,.58-.29Zm25.07,3.2h21a1.94,1.94,0,0,0,.39-.12c-.13-.09-.26-.24-.4-.26-1.32-.15-2.78,0-3.93-.49a10.94,10.94,0,0,0-3.75-.75c-3.44-.21-6.87-.68-10.31-.73-4.17-.05-8.35.2-12.52.37-2,.08-4.08.25-6.12.4a2.83,2.83,0,0,0-.75.27,6.27,6.27,0,0,1-1.25.5c-1.1.19-2.22.29-3.33.43a1.61,1.61,0,0,0-.36.15c.14.08.28.22.42.22.5,0,1,0,1.5,0Z"/><path class="cls-65" d="M143.41,24.33H96.74c1.56-.4,3.11-.81,4.67-1.19.73-.17,1.48-.27,2.22-.4l1.38-.27-1.42-.14a3.16,3.16,0,0,1,.87-.38c1.53-.17,3.06-.3,4.6-.43,2.93-.26,5.85-.68,8.78-.74,3.17-.06,6.34.2,9.51.36,2,.11,4.07.21,6.09.44a24.4,24.4,0,0,1,3.12.75c-.28,0-.56,0-.84,0a4.35,4.35,0,0,0-.58.13,2.06,2.06,0,0,0,.54.26c1.3.15,2.63.19,3.9.46S142.14,23.94,143.41,24.33Z"/><path class="cls-66" d="M95,24.33l-3.44,1.18a4.48,4.48,0,0,0-.58.29l.6.13.59.13a5.39,5.39,0,0,1-.59.29l-2.75,1.07c1,0,2,.09,3,.1,1.21,0,2.42,0,3.62,0,.26,0,.51.28.76.43a2.32,2.32,0,0,1-.67.33c-1.5.28-3,.47-4.5.83a20.87,20.87,0,0,0-2.56,1.05c-.8.33-1.61.62-2.42.93h-9l3.25-1.6c.78-.39,1.54-.8,2.31-1.19a1.85,1.85,0,0,0,1.64-1c.33-.66,1.78-.88,2.77-1.2,1.51-.49,3-.9,4.58-1.35Z"/><path class="cls-67" d="M136.56,22.33a24.4,24.4,0,0,0-3.12-.75c-2-.23-4.06-.33-6.09-.44-3.17-.16-6.34-.42-9.51-.36-2.93.06-5.85.48-8.78.74-1.54.13-3.07.26-4.6.43a3.16,3.16,0,0,0-.87.38c-.14,0-.28,0-.42,0l-2.73-.12c.88-.23,1.74-.51,2.64-.66,1.23-.19,2.49-.28,3.74-.41l.82-.13-.86-.28-.35-.16a2.2,2.2,0,0,1,.62-.22,67.59,67.59,0,0,0,7.15-.47,32.47,32.47,0,0,1,6.74-.31,72,72,0,0,1,10.27.77c.78.13,1.7-.39,2.36.4l-1,.14a3.84,3.84,0,0,0,.77.25c1.25.15,2.51.23,3.75.42.89.15,1.75.43,2.63.66l-2.73.12C136.85,22.34,136.71,22.33,136.56,22.33Z"/><path class="cls-16" d="M136.56,22.33c.15,0,.29,0,.43,0l2.73-.12c-.88-.23-1.74-.51-2.63-.66-1.24-.19-2.5-.27-3.75-.42a3.84,3.84,0,0,1-.77-.25l1-.14h3c.49.77,1.3.25,1.94.4l11.33,2.77a2.76,2.76,0,0,1,.62.31,4.48,4.48,0,0,1-.62.11c-.71,0-1.42,0-2.13,0h-4.29c-1.27-.39-2.52-.87-3.83-1.14s-2.6-.31-3.9-.46a2.06,2.06,0,0,1-.54-.26,4.35,4.35,0,0,1,.58-.13C136,22.32,136.28,22.34,136.56,22.33Z"/><path class="cls-68" d="M165.68,31.12c.59.4,1.17.81,1.77,1.21l2.94,2-.24.26.15.11c2.16,1.34,4.34,2.67,6.49,4a3.92,3.92,0,0,1,.67.68,7.17,7.17,0,0,1-.81.11c-.35,0-.71,0-1.07,0h-3.2a1.48,1.48,0,0,0-.45.2,2.26,2.26,0,0,0,.31.23,4.92,4.92,0,0,1,.91.49,15,15,0,0,0,4,2.84c.21.1.31.41.46.62a3.28,3.28,0,0,1-.83.39,10.71,10.71,0,0,1-1.5,0H64.83c-.42,0-.86,0-1.28,0a6.28,6.28,0,0,1-.94-.27,2.63,2.63,0,0,1,.49-.79C64,42.5,65,41.81,65.91,41.1c1.34.46,1.4-1.44,2.61-1.24a1.74,1.74,0,0,0,.11-.27,2,2,0,0,0-.41-.08H63.33a4.52,4.52,0,0,1-.63-.08c.14-.21.23-.49.43-.61,2-1.29,4.05-2.55,6.07-3.83.2-.13.77-.33.14-.66,1.8-1,3.58-2.12,5.41-3.1a4,4,0,0,1,1.44-.1l-4.83,2.67a5.11,5.11,0,0,0-.48.33,2.74,2.74,0,0,0,.66.19h6.79c-.54.27-1.06.56-1.61.8a17.72,17.72,0,0,0-1.73.66c-1.62.94-3.18,1.93-4.77,2.9l-.77.47a4.11,4.11,0,0,0,.88.34,6.24,6.24,0,0,0,1.06,0h97.4a5.44,5.44,0,0,0,1.07,0,4,4,0,0,0,.85-.37,4.7,4.7,0,0,0-.75-.6c-.43-.21-1.12-.22-1.31-.53-.53-.86-1.46-.91-2.24-1.28s-1.58-.93-2.39-1.36-1.46-.69-2.19-1h6.53a1.7,1.7,0,0,0,.53-.16c-.1-.16-.17-.38-.32-.47-1.52-.87-3.07-1.71-4.6-2.56Z"/><path class="cls-66" d="M145.13,24.33h2.57c1.67.58,3.34,1.17,5,1.73a7.52,7.52,0,0,1,2.91,1.67c1.07.75,2.58.95,3.83,1.5s2.44,1.25,3.65,1.89h-8.56c-.62-.22-1.22-.5-1.86-.66-2.64-.66-5-2.09-7.85-2.17-.15,0-.3-.2-.45-.31.18-.15.37-.42.55-.42,1.92,0,3.83,0,5.74,0a3.34,3.34,0,0,0,.62-.1c-.2-.1-.39-.24-.6-.32q-1-.36-1.95-.69c-.4-.13-.81-.23-1.22-.35.41,0,.82-.08,1.23-.14a2.5,2.5,0,0,0,.39-.11,1.26,1.26,0,0,0-.38-.27Z"/><path class="cls-69" d="M154.55,31.12H164c1.53.85,3.08,1.69,4.6,2.56.15.09.22.31.32.47a1.7,1.7,0,0,1-.53.16h-6.53c-2.06-.77-3.81-2.19-6.11-2.48C155.3,31.79,154.94,31.37,154.55,31.12Z"/><path class="cls-70" d="M65.91,41.1c-.94.71-1.9,1.4-2.81,2.13a2.63,2.63,0,0,0-.49.79,6.28,6.28,0,0,0,.94.27c.42,0,.86,0,1.28,0H175.25a10.71,10.71,0,0,0,1.5,0,3.28,3.28,0,0,0,.83-.39c-.15-.21-.25-.52-.46-.62a15,15,0,0,1-4-2.84,4.92,4.92,0,0,0-.91-.49,2.26,2.26,0,0,1-.31-.23,1.48,1.48,0,0,1,.45-.2h3.2c.36,0,.72,0,1.07,0a7.17,7.17,0,0,0,.81-.11,3.92,3.92,0,0,0-.67-.68c-2.15-1.35-4.33-2.68-6.49-4l-.15-.11.24-.26h.86c2.31,1.54,4.55,3.2,7,4.57.85.48-.48,1,.41,1.31a7.26,7.26,0,0,1,1.6.9,3.35,3.35,0,0,0,.49.62c.44.34.39.31.28,1.06,0,.2.46.45.69.7a5.64,5.64,0,0,1,.46.63,3.61,3.61,0,0,1-.72.18c-.7,0-1.42,0-2.12,0a4.29,4.29,0,0,0-.6.13c.16.2.29.47.5.59a12.39,12.39,0,0,1,3.16,2.87h-125c.27-1.2,1.68-1.18,2.37-1.93.44-.48.85-1,1.27-1.46l-1.76-.2c-.41,0-.83-.06-1.24-.09.22-.31.43-.64.67-.94.57-.7-.14-.49-.45-.57l1.28-1.6h6.42Z"/><path class="cls-71" d="M65.91,41.1H60.35a7.19,7.19,0,0,0,1.45-1.47c.44-.85.33-.91.84-1.27s1.21-.9,1.84-1.3c1.1-.69,2.23-1.33,3.33-2a3.78,3.78,0,0,0,.67-.71h.86c.63.33.06.53-.14.66-2,1.28-4.06,2.54-6.07,3.83-.2.12-.29.4-.43.61a4.52,4.52,0,0,0,.63.08h4.89a2,2,0,0,1,.41.08,1.74,1.74,0,0,1-.11.27C67.31,39.66,67.25,41.56,65.91,41.1Z"/><path class="cls-69" d="M78.33,34.32H71.54a2.74,2.74,0,0,1-.66-.19,5.11,5.11,0,0,1,.48-.33l4.83-2.67H86c-.08.1-.15.29-.24.29C83,31.69,80.84,33.41,78.33,34.32Z"/><path class="cls-72" d="M209.78,90.22c.15.54.29,1.07.43,1.6a3.79,3.79,0,0,1,.86,3.2H104c.28-.27.72-.51.81-.82.36-1.31.61-2.65.9-4Z"/><path class="cls-72" d="M212.35,85c.41,1.29.84,2.56,1.21,3.85.28,1,0,1.3-1.06,1.34-.9,0-1.81,0-2.72,0-.16-.66.37-1.45-.43-2-.09-.79.35-1.71-.73-2.27-.17-.09-.09-.61-.12-.93Z"/><path class="cls-29" d="M215.78,95c.14.66.28,1.33.43,2-.46,0-.93.09-.83.63.24,1.39.55,2.78.83,4.16h-1.29c-.1-1.56-.1-1.56-1.52-1.59h-1.48c-.14-.53.37-1.22-.42-1.6V97h.42l2.3-.11L214.07,95Z"/><path class="cls-73" d="M214.07,95l.15,1.88-2.3.11h-.42c-.15-.66-.29-1.33-.43-2a3.79,3.79,0,0,0-.86-3.2h.21c2.74,0,2.73,0,3.28,2.49A3.21,3.21,0,0,0,214.07,95Z"/><path class="cls-74" d="M212.35,85H208.5a10.21,10.21,0,0,1-.42-1.29,3.65,3.65,0,0,0-1.29-2.3c-.16-.57-.31-1.13-.46-1.7s-.27-1-.4-1.5h3.85Z"/><path class="cls-75" d="M209.78,78.24h-3.85c-.24-.2-.58-.37-.72-.62-.78-1.51-1.52-3-2.28-4.57h4.28l1.29,2Z"/><path class="cls-76" d="M214.92,101.8c0,.33-.06.86.11,1,1.2.64,1.15,1.82,1.47,2.82.19.6.47,1.33-.69,1.5a6.58,6.58,0,0,0,0,1.52v.79c0,2.81,0,2.81-3,2.81H99.31a8.71,8.71,0,0,0-.46-1c-.54-.86-1.12-1.71-1.68-2.57h2.57q54.78,0,109.55,0c1.11,0,2.23-.15,3.34-.22l.15-3v-1.17C212.8,102.43,212.8,102.43,214.92,101.8Z"/><path class="cls-77" d="M212.78,112.19c3,0,3,0,3-2.81v-.79h.85c0,.59,0,1.19,0,1.78,0,.75-.2,1.53.69,2.1.26.17.12.86.16,1.32-.28.75-.94,1.59-.77,2.23.32,1.19-.59,1.9-.78,2.86,0,.06-.38.07-.59.1h-2.57v-6.79Z"/><path class="cls-28" d="M216.21,101.8c-.28-1.38-.59-2.77-.83-4.16-.1-.54.37-.62.83-.63a16.13,16.13,0,0,1,.33,2.27C216.56,100.12,217.09,101.06,216.21,101.8Z"/><path class="cls-78" d="M202.5,64.67c.72,1.19,1.43,2.39,2.14,3.59-.35,0-.71,0-1.06,0-.89.07-1.78.17-2.67.25.35,1,.39,2.12,1.24,3a5.78,5.78,0,0,1,.78,1.55H100.17A34.67,34.67,0,0,1,98,68.26H198.74c1.29-.05,1.21,0,.78-1.26a8.47,8.47,0,0,0-1.73-2.33Z"/><path class="cls-79" d="M202.93,73.05a5.78,5.78,0,0,0-.78-1.55c-.85-.87-.89-2-1.24-3,.89-.08,1.78-.18,2.67-.25.35,0,.71,0,1.06,0l.86,1.6,1.71,3.19Z"/><path class="cls-80" d="M202.5,64.67h-4.71l-2.14-3.2c1.14,0,2.29,0,3.43,0,.85,0,.93-.24.46-1-.58-.88-1.16-1.76-1.75-2.63h.43c1,1.22,2.3,2.18,2.47,4C200.77,62.83,201.87,63.73,202.5,64.67Z"/><path class="cls-81" d="M28.23,98.61V97l.43-2H54.35c.08.79-.29,1.67.71,2.28.25.16.11.86.15,1.31Z"/><path class="cls-73" d="M28.23,98.61h27l.85,3.19H27.8Z"/><path class="cls-76" d="M24.38,108.59a6,6,0,0,0-.49-1.73c-.46-1-.21-2.22-.19-3.36a11.25,11.25,0,0,1,.25-1.7H27.8v3.6c-.39.48-1,.82-.87,1.61a8.33,8.33,0,0,1,0,1.58Z"/><path class="cls-32" d="M24,90.22c.15-.43.28-.86.44-1.29.09-.23.25-.63.37-.63,1.67,0,1.51-1.2,1.77-2.17A7.76,7.76,0,0,1,27,85c.91.62.28,1.26.06,1.92a5.15,5.15,0,0,0-.13,1.25c.62,0,.72.13.57.8-.25,1.12-.09,1.17,1.22,1.22.42,0,.85,0,1.27,0l-.42,1.6c-.77,0-1.53,0-2.29,0a.94.94,0,0,0-.66.54c-.22.87-.33,1.75-.48,2.63-1.87-.11-1.86-.11-1.41-1.76a15,15,0,0,1,.4-1.5C25.63,90.41,25.65,90.4,24,90.22Z"/><path class="cls-73" d="M26.09,95c.15-.88.26-1.76.48-2.63a.94.94,0,0,1,.66-.54c.76-.07,1.52,0,2.29,0-.09.79.35,1.71-.73,2.27-.18.08-.09.6-.13.93l-.43,2h-.41C25.51,97,25.51,97,26.09,95Z"/><path class="cls-82" d="M24.38,108.59H27v5.2a15.65,15.65,0,0,1-1.68,0c-.3,0-.78-.22-.81-.39-.19-1.34-1.24-1.19-2.22-1.18h0a12.46,12.46,0,0,1,.08-2.12C22.6,108.72,22.73,108.68,24.38,108.59Z"/><path class="cls-83" d="M22.67,113.79H21.4V108.6c.81.46.26,1.2.42,1.79s-.39,1.34.43,1.8h0Z"/><path class="cls-84" d="M28.66,81.44c.83,0,1.52,0,1.74-1a15.35,15.35,0,0,1,.83-2.19c.42,0,.85,0,1.27,0,1.29,0,1.52.3,1.19,1.38-.2.62-.5,1.21-.75,1.81a10.23,10.23,0,0,1-.46,1.2,10.58,10.58,0,0,0-.78,1.15c-.29.76.1,1.19,1,1.24.43,0,.86,0,1.29,0H53.5v5.19H29.94c.61-1,.22-2.19,1.16-3.2s0-2-1.34-2c-.36,0-.71,0-1.06,0-.78,0-1-.32-.8-1C28.16,83.18,28.41,82.31,28.66,81.44Z"/><path class="cls-75" d="M32.94,81.44c.25-.6.55-1.19.75-1.81.33-1.08.1-1.33-1.19-1.38-.42,0-.85,0-1.27,0s-1,0-.67-.76.73-1.62,1.1-2.43c.21-.75,1.11-1.29.55-2.32-.21-.4.2-1.29,1.16-1.28C33,73,33,73,34.62,73.05c.36,0,.72,0,1.07,0,1.14,0,1.2.08.7,1.15s-1.13,2-1.63,3.08c-.23.48-.11.93.6,1,.5,0,1,0,1.5,0H54.35l-.43,3.2Z"/><path class="cls-72" d="M28.66,81.44c-.25.87-.5,1.74-.76,2.6-.2.67,0,1,.8,1,.35,0,.7,0,1.06,0,1.33,0,2.18,1.08,1.34,2s-.55,2.22-1.16,3.2c-.42,0-.85,0-1.27,0-1.31,0-1.47-.1-1.22-1.22.15-.67.05-.8-.57-.8A5.15,5.15,0,0,1,27,87c.22-.66.85-1.3-.06-1.92l1.28-3.59Z"/><path class="cls-85" d="M35.51,68.26c.29-.56.61-1.1.88-1.67s.56-1.28.83-1.92l2.57-3.2h4.28c-.26,1.33-1.3,2.2-2.14,3.2-.11.29-.13.71-.36.87a4.93,4.93,0,0,0-1.78,2.72Z"/><path class="cls-86" d="M44.07,61.47H39.79l2.57-3.59c.45-.62,1.19-1,1-2-.11-.6.7-1.18,1.58-1.17-.1.18-.21.34-.29.52-.48,1-.48,1.06.63,1.08.78,0,1.56,0,2.34,0s.91.25.28.8c-.79.7-1.12,1.7-2.12,2.35C45.12,59.87,44.93,61,44.07,61.47Z"/><path class="cls-79" d="M35.51,68.26h4.28c-1.38,1.06-1.24,2.94-2.5,4.08,0,0,.26.61.48.66a6.63,6.63,0,0,0,1.48,0H56.06c-.28,1.33-.52,2.67-.88,4a4.43,4.43,0,0,1-.83,1.21H36.86c-.5,0-1,0-1.5,0-.71,0-.83-.47-.6-1,.5-1,1.14-2,1.63-3.08s.44-1.1-.7-1.15c-.35,0-.71,0-1.07,0C33,73,33,73,33.37,71.45l.86-1.59Z"/><path class="cls-87" d="M182.38,47.89A12.39,12.39,0,0,0,179.22,45c-.21-.12-.34-.39-.5-.59a4.29,4.29,0,0,1,.6-.13c.7,0,1.42,0,2.12,0a3.61,3.61,0,0,0,.72-.18,5.64,5.64,0,0,0-.46-.63c-.23-.25-.72-.5-.69-.7.11-.75.16-.72-.28-1.06a3.35,3.35,0,0,1-.49-.62h1.28c1,.85,2.28,1.53,2.84,2.57a10.89,10.89,0,0,0,2.31,2.82c.53.5,1.13.94,1.7,1.4h-6Z"/><path class="cls-88" d="M182.81,47.89h5.56l3,3.2c-1,0-2,0-3,0-1.17,0-1.33.23-.85,1.19a3.74,3.74,0,0,0,.64.74l3.18,3.26H88.18a9.6,9.6,0,0,0-3.78-.8c-.49,0-1.24.12-1.43-.12-.82-1-1.93-.62-2.93-.67-1.94-.09-3.63,1.08-5.59,1a5.57,5.57,0,0,0-1.69.55H52.9c-1.14,0-2.28,0-3.42,0-.16,0-.31-.13-.47-.2a1.25,1.25,0,0,1,.19-.34c.29-.27.71-.46.88-.78a6.38,6.38,0,0,1,2.2-2.56c.32-.21.49-.62.78-.89s.15-.41-.19-.41c-1.13,0-2.27,0-3.41,0A3.07,3.07,0,0,1,49,51c.05-.17.05-.38.17-.5.84-.89,1.71-1.75,2.57-2.63h5.14c-.5.53-1,1.09-1.5,1.59s-1.35.68-1.2,1.43c0,.16,1.15.17,1.77.17H184.11a14.77,14.77,0,0,0,1.49,0c.13,0,.36-.38.32-.45a4.1,4.1,0,0,0-.86-1.08C184.34,49,183.56,48.44,182.81,47.89Z"/><path class="cls-89" d="M191.37,56.28,188.19,53a3.74,3.74,0,0,1-.64-.74c-.48-1-.32-1.18.85-1.19,1,0,2,0,3,0h.43a11,11,0,0,0,3.42,3.59l.57,1.53c-.63,0-1.26.06-1.89.07Z"/><path class="cls-86" d="M191.37,56.28h2.53c.63,0,1.26,0,1.89-.07l-.57-1.53h.43c.44.62,1.3,1,1,2-.08.26.75.77,1.16,1.17.59.87,1.17,1.75,1.75,2.63.47.71.39.92-.46,1-1.14,0-2.29,0-3.43,0a21,21,0,0,0-3.82-4.41C191.6,56.89,191.52,56.54,191.37,56.28Z"/><path class="cls-89" d="M51.78,47.89c-.86.88-1.73,1.74-2.57,2.63-.12.12-.12.33-.17.5a3.07,3.07,0,0,0,.42.07c1.14,0,2.28,0,3.41,0,.34,0,.56.07.19.41s-.46.68-.78.89A6.38,6.38,0,0,0,50.08,55c-.17.32-.59.51-.88.78a1.25,1.25,0,0,0-.19.34c.16.07.31.2.47.2,1.14,0,2.28,0,3.42,0H71.05c-.09.23-.13.64-.28.68-2.8.74-4.62,2.71-6.57,4.51H44.07c.86-.49,1-1.6,1.7-2,1-.65,1.33-1.65,2.12-2.35.63-.55.42-.76-.28-.8s-1.56,0-2.34,0c-1.11,0-1.11,0-.63-1.08.08-.18.19-.34.29-.52l3.1-3.1c-.32-1.9,1.84-2.35,2.47-3.69h1.28Z"/><path class="cls-87" d="M56.92,47.89H52.21c1.84-1.89,3.51-4,6-5.19.31.08,1-.13.45.57-.24.3-.45.63-.67.94.41,0,.83,0,1.24.09l1.76.2c-.42.49-.83,1-1.27,1.46-.69.75-2.1.73-2.37,1.93Z"/><path class="cls-90" d="M206.36,142.54a5.27,5.27,0,0,1-1.07,3c-.41.44-.44,1.19-.65,1.8H185.8c.15-1.6.29-3.19.43-4.79Z"/><path class="cls-91" d="M206.36,142.54H184.09a12.59,12.59,0,0,0-2.14-6.79h3.43a5.78,5.78,0,0,0,0,1.18c.47,2,.48,2,2.67,2h20c-.19.6-.18,1.44-.6,1.74-.79.55-.66,1.18-.68,1.86Z"/><path class="cls-92" d="M204.22,147.33h4.28q-1.08,2.59-2.14,5.19h-4.71a27.46,27.46,0,0,1,1.88-3.71C203.87,148.31,204.29,148,204.22,147.33Z"/><path class="cls-90" d="M206.79,142.54c0-.68-.11-1.31.68-1.86.42-.3.41-1.14.6-1.74.43-1.06.86-2.13,1.28-3.19h2.57c-.27.79-.57,1.58-.81,2.38-.17.61.21.83.81.81-.28.87-.62,1.72-.84,2.6s-.74,1-1.54,1S207.71,142.54,206.79,142.54Z"/><path class="cls-93" d="M198.65,162.51c-.7,0-1.4,0-2.1,0-1.3-.06-2.38.12-2.67,1.58,0,.18-.52.28-.8.42H175.53c-.35,0-.7-.05-1.05-.08a10.43,10.43,0,0,1,.74-.88c.13-.14.37-.19.52-.32,1.37-1.17,2.72-2.35,4.08-3.53.43-.37,0-.38-.23-.38H176l3-3.19h3.43c-.44.7-.87,1.42-1.32,2.12s-.43,1.06.58,1.06q7.58,0,15.17,0a1.23,1.23,0,0,0,.89-.33c.65-.92,1.21-1.89,1.81-2.84h4.28l-1.71,3.19h-.43c-.4.08-1,0-1.15.25C199.81,160.49,199.26,161.51,198.65,162.51Z"/><path class="cls-41" d="M203.79,156.12H202.5c.85-1.14,1.94-2.14,2.14-3.6h1.72C206.06,154.07,205.78,155.63,203.79,156.12Z"/><path class="cls-42" d="M198.65,162.51c.61-1,1.16-2,1.85-2.95.16-.23.75-.17,1.15-.25l-2.14,3.2Z"/><path class="cls-94" d="M37.22,159.31h5.14c.25.21.65.39.72.65.37,1.5.67,3,1,4.54h-3c-.21,0-.54,0-.61-.11C39.37,162.71,38.3,161,37.22,159.31Z"/><path class="cls-61" d="M41.08,164.5h3c-.28,1.6-.57,3.2-.85,4.79H40.65C40.79,167.7,40.93,166.1,41.08,164.5Z"/><path class="cls-90" d="M27.8,138.94c-.13-.5-.27-1-.39-1.5-.17-.69-.31-1.39-.46-2.09,1.07.67,2.28.31,3.42.4a4.41,4.41,0,0,1,1.29,3.19l1.71,3.6h-3c-1,.21-1.37-.38-1.65-1.08S28.11,139.78,27.8,138.94Z"/><path class="cls-95" d="M30.37,142.54h3c.26.78.28,1.77.82,2.31a3,3,0,0,1,.89,2.48H31.23a3.58,3.58,0,0,1-.5-2.54A5.55,5.55,0,0,0,30.37,142.54Z"/><path class="cls-96" d="M42.36,159.31H38.08l-4.28-6.79h4.28c.41.66.82,1.31,1.22,2s.62,1.08.92,1.62C41.06,157.11,42.1,158,42.36,159.31Z"/><path class="cls-97" d="M38.08,152.52H33.8l-.43-.4-2.14-4.79h4.28c-.13,1.06.83,1.61,1.29,2.4Z"/><path class="cls-98" d="M210.64,130.56H176.81c-.09-.24-.13-.64-.27-.67a16.12,16.12,0,0,1-3.85-1.68,59.08,59.08,0,0,0-5.53-2.39,3.07,3.07,0,0,1-.62-.45h45Q211.07,128,210.64,130.56Z"/><path class="cls-99" d="M177.67,130.56h32.54q-.42,2.59-.86,5.19H184.52a5.86,5.86,0,0,0-3.16-3.31C180.15,131.75,178.86,131.24,177.67,130.56Z"/><path class="cls-51" d="M210.64,130.56q.42-2.59.86-5.19h4.71a15.71,15.71,0,0,1-.5,3.08,4.65,4.65,0,0,1-1.52,1.94c-.34.28-1.07.14-1.63.16S211.28,130.56,210.64,130.56Z"/><path class="cls-100" d="M214.49,125.37h-3l.42-3.2c.1-.79-.34-1.71.73-2.26.18-.09.09-.61.13-.93h2.57c.05.69-.5,1.59.76,1.86l-.74,2.88C214.11,123.82,214.6,124.73,214.49,125.37Z"/><path class="cls-48" d="M30.37,135.75c-1.14-.09-2.35.27-3.42-.4-.45-1.52-.86-3.2-2.29-4.09-1.06-.66-.21-1.8-1.14-2.3l-.43-3.59h1.29a11.47,11.47,0,0,1,.4,1.88c0,.76,0,1.43,1,1.78a1.26,1.26,0,0,1,.57.78c.23.79.85.76,1.5.75h1.7c.06.52.1,1,.19,1.55C29.92,133.32,30.15,134.54,30.37,135.75Z"/><path class="cls-77" d="M22.67,113.79l-.43-1.6c1,0,2-.16,2.22,1.18,0,.17.51.36.81.39a15.65,15.65,0,0,0,1.68,0v1.59c0,.45-.1,1.15.15,1.31,1,.62.63,1.49.7,2.29H23.52c0-1,.05-2,0-3,0-.23-.53-.43-.81-.64Z"/><path class="cls-83" d="M23.52,119H27.8v3.19l.43,3.2h-3c0-.69.19-1.38-.75-1.83-.33-.16-.43-.87-.52-1.34C23.78,121.13,23.66,120.05,23.52,119Z"/><path class="cls-101" d="M25.23,125.37h3c.59,1.69,0,3.64,1.29,5.19h-1.7c-.65,0-1.27,0-1.5-.75a1.26,1.26,0,0,0-.57-.78c-.92-.35-.93-1-1-1.78a11.47,11.47,0,0,0-.4-1.88Z"/><path class="cls-83" d="M22.67,115.38c.28.21.78.41.81.64.09,1,0,2,0,3C22.52,117.93,22.68,116.64,22.67,115.38Z"/><path class="cls-58" d="M89.46,193.25h60.81a14.25,14.25,0,0,1-6.31,1.92c-1.19.14-1.91,1.18-3.27,1a10.84,10.84,0,0,0-3.26.51c-.62.1-1.25.14-1.88.21s-1.17-.11-1.7.5c-.29.33-1.17.19-1.78.3-.78.15-1.7-.39-2.36.4H110.44c-.58-.75-1.42-.28-2.14-.39-1-.16-2.11.36-2.91-.69-.16-.2-.8-.07-1.21-.12-2.15-.27-4.45-.19-6.38-.93-1.63-.62-3.3-.75-4.89-1.27C91.73,194.25,90.61,193.72,89.46,193.25Z"/><path class="cls-63" d="M174.67,181.27c-.94.7-1.85,1.46-2.84,2.09-1.3.82-2.68,1.53-4,2.33-.23.14-.3.51-.45.78H72.76c0-.2,0-.55-.11-.56-1.93-.4-3.37-1.89-5.54-1.93-1.23,0-2.46,0-3.65,0-1.57,0-2.69.85-4.13,1s-2.86.53-4.3.75c-.56.09-.67.37-.68.81H52.21c-4.06,0-8.12,0-12.18,0-1.63,0-1.57-.1-1.35-1.59a29.41,29.41,0,0,1,1.11-3.6Z"/><path class="cls-59" d="M73.19,186.47h93.35a47.48,47.48,0,0,0-5.09,2.4c-1.48.92-3,.78-4.59.78H79.19c0-.43-.17-.63-.67-.83C76.71,188.11,75,187.26,73.19,186.47Z"/><path class="cls-59" d="M54.35,186.47c0-.44.12-.72.68-.81,1.44-.22,2.86-.65,4.3-.75s2.56-1,4.13-1c1.19,0,2.42,0,3.65,0,2.17,0,3.61,1.53,5.54,1.93.08,0,.08.36.11.56Z"/><path class="cls-102" d="M174.67,181.27H39.79l.86-3.19H175.48a10.23,10.23,0,0,1,1.92,0c.27,0,.47.49.7.76l-.86.8-1.07.8-1.07.79Z"/><path class="cls-62" d="M178.1,178.88c-.23-.27-.43-.71-.7-.76a10.23,10.23,0,0,0-1.92,0H40.65c0-.5-.12-1,.59-1.32.16-.06.18-.44.27-.68H181.09A5.85,5.85,0,0,1,178.1,178.88Z"/><path class="cls-103" d="M176,159.31h3.63c.27,0,.66,0,.23.38-1.36,1.18-2.71,2.36-4.08,3.53-.15.13-.39.18-.52.32a10.43,10.43,0,0,0-.74.88c.35,0,.7.08,1.05.08h17.55a8.78,8.78,0,0,1-3.1,3.67c-.36.24-.51.74-.75,1.12H166.84c-.5,0-1,0-1.49,0-.06,0-.1-.21-.15-.33,1.22.2,1.64-1.22,2.71-1.21,1.37,0,2.1-.84,2.91-1.64,1.35.47,1.53-1.23,2.62-1.25,0,0,.05-.18.07-.27a3,3,0,0,0-.41-.08h-3.84a7.54,7.54,0,0,1-.81-.12,7.15,7.15,0,0,1,.68-.67c.22-.17.51-.24.74-.39,1.95-1.25,4.11-2.25,5.66-4Z"/><path class="cls-61" d="M170.82,166.1c-.81.8-1.54,1.64-2.91,1.64-1.07,0-1.49,1.41-2.71,1.21.05.12.09.32.15.33.49,0,1,0,1.49,0h22a17.3,17.3,0,0,1-1.4,1.88,25.78,25.78,0,0,1-2,1.72H45.28c-.5,0-1,0-1.5,0-1.52,0-1.82-.68-1-2a6.53,6.53,0,0,0,.48-1.61q46.41,0,92.81,0c.68,0,1.35-.13,2-.19-.54-.1-1.21,0-1.59-.31-1.9-1.4-4.38-1.22-6.47-2.22-1.59-.76-3.53-.91-5.19-1.68a2.9,2.9,0,0,1-.41-.27,1.43,1.43,0,0,1,.39-.11h5.35c2.67.74,5.23,1.91,8.14,1.6,3.29.46,6.52,1.26,9.83,1.72A36.38,36.38,0,0,0,159,167.4c1.84-.28,3.63-.86,5.45-1.3Zm-18.71,3.19H141.63a2.59,2.59,0,0,0-.59.16c.18.08.41.26.54.21,1-.42,1.35.8,2.22.83,1.82.08,3.65.24,5.47.4.69.06,1.37.22,2.06.29a9.43,9.43,0,0,0,1.68,0c.84-.06,1.66-.23,2.49-.3,2.25-.2,4.57,0,6.62-1.19a3.06,3.06,0,0,1,.76-.23,5.36,5.36,0,0,0-.94-.18Z"/><path class="cls-104" d="M78.33,34.32c2.51-.91,4.67-2.63,7.47-2.91.09,0,.16-.19.24-.29h68.51c.39.25.75.67,1.17.72,2.3.29,4.05,1.71,6.11,2.48Z"/><path class="cls-105" d="M120.1,27.53H100.64c-.5,0-1,0-1.5,0-.14,0-.28-.14-.42-.22a1.61,1.61,0,0,1,.36-.15c1.11-.14,2.23-.24,3.33-.43a6.27,6.27,0,0,0,1.25-.5,2.83,2.83,0,0,1,.75-.27c2-.15,4.08-.32,6.12-.4,4.17-.17,8.35-.42,12.52-.37,3.44,0,6.87.52,10.31.73a10.94,10.94,0,0,1,3.75.75c1.15.49,2.61.34,3.93.49.14,0,.27.17.4.26a1.94,1.94,0,0,1-.39.12h-21Z"/><path class="cls-106" d="M78.33,34.32h83.5c.73.34,1.48.65,2.19,1s1.56,1,2.39,1.36,1.71.42,2.24,1.28c.19.31.88.32,1.31.53a4.7,4.7,0,0,1,.75.6,4,4,0,0,1-.85.37,5.44,5.44,0,0,1-1.07,0H71.39a6.24,6.24,0,0,1-1.06,0,4.11,4.11,0,0,1-.88-.34l.77-.47c1.59-1,3.15-2,4.77-2.9a17.72,17.72,0,0,1,1.73-.66C77.27,34.88,77.79,34.59,78.33,34.32Z"/><path class="cls-107" d="M56.92,47.89H182.81c.75.55,1.53,1.06,2.25,1.65a4.1,4.1,0,0,1,.86,1.08c0,.07-.19.43-.32.45a14.77,14.77,0,0,1-1.49,0H56c-.62,0-1.74,0-1.77-.17-.15-.75.71-1,1.2-1.43S56.42,48.42,56.92,47.89Z"/><path class="cls-81" d="M211.07,95c.14.66.28,1.33.43,2v1.6H104.9c-.64,0-1.28,0-1.92,0a.81.81,0,0,1-.59-.41.73.73,0,0,1,.22-.67c1.25-.46,1.08-1.59,1.41-2.48Z"/><path class="cls-84" d="M209.35,88.23c.8.54.27,1.33.43,2h-104v-2Z"/><path class="cls-108" d="M105.73,90.22c-.29,1.33-.54,2.67-.9,4-.09.31-.53.55-.81.82H100.6c-.08-.26-.3-.57-.22-.77.29-.67.74-1.28,1-2s.6-1.46.37-1.65c-1.16-1-.54-2.22-.77-3.31a13,13,0,0,0-.75-2l-.58.23L98,81.92c.74-.84,1.4-.68,1.89.21s.75,1.67,1.2,2.47c.13.21.53.29.81.43.29.93.62,1.85.84,2.79.17.75-.08,1.92.36,2.19C103.73,90.41,104.83,90.18,105.73,90.22Z"/><path class="cls-74" d="M209.35,88.23H105.73l-.42-3.2H208.5c0,.32-.05.84.12.93C209.7,86.52,209.26,87.44,209.35,88.23Z"/><path class="cls-29" d="M214.92,101.8c-2.12.63-2.12.63-2.14,2.43v1.17H101.07c-3.26,0-3.29,0-2.53-2.91.14-.55.11-.72-.49-.69-.28,0-.57,0-.85,0-.87,0-.79-.21-.36-.75.14-.16-.06-.56-.1-.85l.86-1.6h1.71c.64,0,1.28,0,1.93,0a2.92,2.92,0,0,1,.4.1,2.09,2.09,0,0,1-.22.48c-.07.1-.28.12-.34.22-.42.71-.81,1.43-1.22,2.14a21.47,21.47,0,0,0,2.25.24q53.7,0,107.4,0c.28,0,.57,0,.86,0,1.44,0,1.44,0,1.55-1.59h1.48C214.82,100.24,214.82,100.24,214.92,101.8Z"/><path class="cls-73" d="M211.92,100.21c-.11,1.57-.11,1.57-1.55,1.59-.29,0-.58,0-.86,0q-53.7,0-107.4,0a21.47,21.47,0,0,1-2.25-.24c.41-.71.8-1.43,1.22-2.14.06-.1.27-.12.34-.22a2.09,2.09,0,0,0,.22-.48,2.92,2.92,0,0,0-.4-.1c-.65,0-1.29,0-1.93,0-.54-.65,1.41-1,.23-1.75.35-.62.7-1.23,1.06-1.84H104c-.33.89-.16,2-1.41,2.48a.73.73,0,0,0-.22.67.81.81,0,0,0,.59.41c.64.06,1.28,0,1.92,0H211.5C212.29,99,211.78,99.68,211.92,100.21Z"/><path class="cls-109" d="M208.5,85H105.31c-.22-1.26-1.45-2.21-1.29-3.59H206.79a3.65,3.65,0,0,1,1.29,2.3A10.21,10.21,0,0,0,208.5,85Z"/><path class="cls-75" d="M206.79,81.44H104c-.56-.81-1.14-1.61-1.66-2.44-.12-.19,0-.5,0-.76H205.93c.13.5.26,1,.4,1.5S206.63,80.87,206.79,81.44Z"/><path class="cls-79" d="M205.93,78.24H102.31l-2.14-5.19H202.93c.76,1.53,1.5,3.06,2.28,4.57C205.35,77.87,205.69,78,205.93,78.24Z"/><path class="cls-110" d="M96.74,100.21c0,.29.24.69.1.85-.43.54-.51.8.36.75.28,0,.57,0,.85,0,.6,0,.63.14.49.69-.76,2.9-.73,2.91,2.53,2.91H212.78l-.15,3c-1.11.07-2.23.22-3.34.22q-54.78,0-109.55,0c-.81-.52-.91-1.79-2.43-1.64s-2.12-.51-2.27-2a14.23,14.23,0,0,1,0-1.6c.27-.42.87-1,.74-1.24C95.19,101,96,100.65,96.74,100.21Z"/><path class="cls-111" d="M212.78,112.19v3.19h-107a4.27,4.27,0,0,1-2.57-3.19Z"/><path class="cls-77" d="M103.16,112.19a4.27,4.27,0,0,0,2.57,3.19,16.37,16.37,0,0,0,3,3.6h-3.85a8.8,8.8,0,0,1-1.72-1.45c-1.25-1.72-3.14-2.77-4.71-4.14l-.42-1.2h5.13Z"/><path class="cls-112" d="M95,103.4a14.23,14.23,0,0,0,0,1.6c.15,1.44.74,2.1,2.27,2s1.62,1.12,2.43,1.64H97.17a2.14,2.14,0,0,1-2.08-1,3.72,3.72,0,0,0-.92-.59,3.92,3.92,0,0,1-.83-2.94,16.33,16.33,0,0,1,.74-2c-1.34-.68.57-1.23.09-1.87L95.89,99c.07.25.27.69.21.73-1.31.74-1.09,2.16-1.64,3.22C94.44,103,94.83,103.25,95,103.4Z"/><path class="cls-113" d="M94.17,107a3.72,3.72,0,0,1,.92.59,2.14,2.14,0,0,0,2.08,1c.56.86,1.14,1.71,1.68,2.57a8.71,8.71,0,0,1,.46,1H98Z"/><path class="cls-114" d="M108.73,119a16.37,16.37,0,0,1-3-3.6H212.78V119Z"/><path class="cls-115" d="M197.79,64.67A8.47,8.47,0,0,1,199.52,67c.43,1.23.51,1.21-.78,1.26H98c-.19-1.36-1.29-2.33-1.72-3.59Z"/><path class="cls-79" d="M98,68.26a34.67,34.67,0,0,0,2.14,4.79H96.74c-.71-1.6-1.43-3.19-2.14-4.79Z"/><path class="cls-86" d="M197.79,64.67H96.31c0-1.32-1.2-2.11-1.71-3.2H195.65Z"/><path class="cls-72" d="M29.94,90.22H53.5c.14,1,.26,2.07.43,3.1.1.57.28,1.13.42,1.7H28.66c0-.33-.05-.85.13-.93,1.08-.56.64-1.48.73-2.27Z"/><path class="cls-29" d="M56.06,101.8l-.85-3.19c0-.45.1-1.15-.15-1.31-1-.61-.63-1.49-.71-2.28h3.86c.13.49.54,1.11.35,1.47-.49.94,0,1.6.4,2.35a2.55,2.55,0,0,1,.1,1c.06.44-1,.29-.55,1s0,1-.75,1Z"/><path class="cls-29" d="M27.8,105.4v-3.6H56.06l1.29,1.6.43,2Z"/><path class="cls-110" d="M27.8,105.4h30c1,.59.87,1.67,1.22,2.53,0,.13-.33.58-.56.62a9.61,9.61,0,0,1-1.7,0H27a8.33,8.33,0,0,0,0-1.58C26.76,106.22,27.41,105.88,27.8,105.4Z"/><path class="cls-76" d="M27,108.59H56.74a9.61,9.61,0,0,0,1.7,0c.23,0,.61-.49.56-.62-.35-.86-.23-1.94-1.22-2.53l-.43-2h3c.45.87.91,1.73,1.36,2.59.11.23.31.65.26.68-1.18.71-.06,1.3.09,1.92a4.53,4.53,0,0,0-.64,0c-.62.07-1.48,0-1.79.29-.64.69.64.83.74,1.39a.54.54,0,0,0,.1.18c.86,1.5.73,1.73-1,1.73H27Z"/><path class="cls-111" d="M27,112.19h32.5c1.75,0,1.88-.23,1-1.73a.54.54,0,0,1-.1-.18c-.1-.56-1.38-.7-.74-1.39.31-.33,1.17-.22,1.79-.29a4.53,4.53,0,0,1,.64,0h.86l2.14,3.6a7.21,7.21,0,0,0-1,0c-.64.09-1.27.23-1.9.36a17.19,17.19,0,0,0,.75,2.12c.14.3.59.47.9.7H27v-3.19Z"/><path class="cls-109" d="M32.94,81.44h21L53.5,85H34c-.43,0-.86,0-1.29,0-.93,0-1.32-.48-1-1.24a10.58,10.58,0,0,1,.78-1.15A10.23,10.23,0,0,0,32.94,81.44Z"/><path class="cls-72" d="M53.5,90.22V85h3.85c-.14.76-.31,1.51-.42,2.26-.13.95.15,2.29-.41,2.73S54.54,90.19,53.5,90.22Z"/><path class="cls-74" d="M56.92,85H53.5l.42-3.59.43-3.2h3.43C57.47,80.5,56.71,82.71,56.92,85Z"/><path class="cls-115" d="M39.79,68.26a4.93,4.93,0,0,1,1.78-2.72c.23-.16.25-.58.36-.87H61.2l-1.2,2c-.32.54-.63,1.09-.94,1.63H39.79Z"/><path class="cls-86" d="M61.2,64.67H41.93c.84-1,1.88-1.87,2.14-3.2H64.2Z"/><path class="cls-78" d="M39.79,68.26H58.63l-2.57,4.79H39.25a6.63,6.63,0,0,1-1.48,0c-.22,0-.53-.63-.48-.66C38.55,71.2,38.41,69.32,39.79,68.26Z"/><path class="cls-75" d="M57.78,78.24H54.35A4.43,4.43,0,0,0,55.18,77c.36-1.31.6-2.65.88-4h3.86a7.3,7.3,0,0,0-.64,1.24c-.07.21.13.5.21.76-.29.92-.55,1.86-.91,2.76C58.5,78,58.05,78.1,57.78,78.24Z"/><path class="cls-89" d="M195.65,61.47H94.6c.16-.74-.77-.72-.94-1.14A6.08,6.08,0,0,0,89.74,57c-.16-.05-.19-.44-.28-.68H191.37c.15.26.23.61.46.78A21,21,0,0,1,195.65,61.47Z"/><path class="cls-86" d="M89.46,56.28c.09.24.12.63.28.68a6.08,6.08,0,0,1,3.92,3.37c.17.42,1.1.4.94,1.14H90.32c-1.59-2.22-4-3-6.68-3.16a34.65,34.65,0,0,0-5.59-.12,18.47,18.47,0,0,0-6.24,1.55c-.94.42-2,.7-2.47,1.73H64.2c2-1.8,3.77-3.77,6.57-4.51.15,0,.19-.45.28-.68H89.46Z"/><path class="cls-89" d="M88.18,56.28H72.76a5.57,5.57,0,0,1,1.69-.55c2,0,3.65-1.13,5.59-1,1,.05,2.11-.36,2.93.67.19.24.94.11,1.43.12A9.6,9.6,0,0,1,88.18,56.28Z"/><path class="cls-116" d="M204.22,147.33c.07.62-.35,1-.69,1.48a27.46,27.46,0,0,0-1.88,3.71H184.09c.63-1.71,1.66-3.31,1.71-5.19Z"/><path class="cls-117" d="M184.09,142.54h2.14c-.14,1.6-.28,3.19-.43,4.79-.77,0-1.55,0-2.33,0s-1.19,0-.83-1c.32-.84-.67-.49-1.12-.61.15-1.06.29-2.13.43-3.19-.14-1.2-.28-2.4-.43-3.6.64,0,1.29-.11,1.31.84,0,.71.31,1.41.4,2.12C183.29,142.44,183.63,142.53,184.09,142.54Z"/><path class="cls-118" d="M185.38,135.75h24c-.42,1.06-.85,2.13-1.28,3.19h-20c-2.19,0-2.2,0-2.67-2A5.78,5.78,0,0,1,185.38,135.75Z"/><path class="cls-50" d="M184.09,142.54c-.46,0-.8-.1-.86-.64-.09-.71-.38-1.41-.4-2.12,0-.95-.67-.83-1.31-.84l-.94-1.36-.37.22c-1.2-1.46-2.94-2.15-4.65-2.92-4-1.82-8-3.72-12-5.58.58-.74,1.11-.15,1.65,0,2.45.92,4.89,1.86,7.34,2.77a2.65,2.65,0,0,0,.85,0c2.09,1,4.24,1.86,6.25,3a4.14,4.14,0,0,0,2.31.63A12.59,12.59,0,0,1,184.09,142.54Z"/><path class="cls-119" d="M182,135.75a4.14,4.14,0,0,1-2.31-.63c-2-1.11-4.16-2-6.25-3l-2.57-1.59h6.85c1.19.68,2.48,1.19,3.69,1.88a5.86,5.86,0,0,1,3.16,3.31Z"/><path class="cls-120" d="M204.64,152.52c-.2,1.46-1.29,2.46-2.14,3.6h-2.57c.19-1.36,1.3-2.34,1.72-3.6Z"/><path class="cls-92" d="M201.65,152.52c-.42,1.26-1.53,2.24-1.72,3.6H182.81c.55-1.16,1.32-2.26,1.28-3.6Z"/><path class="cls-120" d="M182.81,156.12h16.7c-.6.95-1.16,1.92-1.81,2.84a1.23,1.23,0,0,1-.89.33q-7.59,0-15.17,0c-1,0-1.11-.25-.58-1.06s.88-1.42,1.32-2.12Z"/><path class="cls-121" d="M182.81,156.12H179c.3-1.37,2.36-2.37,1-4.09,0-.05.1-.23.15-.35a15,15,0,0,0,1-5.25c.07-1.3.28-2.59.42-3.89H182c-.14,1.06-.28,2.13-.43,3.19.12,1.27.55,2.6.25,3.78-.24.93.66,1.47.38,2.19s.06.81.66.82h1.28C184.13,153.86,183.36,155,182.81,156.12Z"/><path class="cls-46" d="M181.52,142.54c-.14,1.3-.35,2.59-.42,3.89a15,15,0,0,1-1,5.25c-.05.12-.19.3-.15.35,1.41,1.72-.65,2.72-1,4.09l-3,3.19h-.86c.69-.71,1.41-1.42,2.07-2.15a3.13,3.13,0,0,0,.39-.8l-.8.39-.38.16v-.79a6,6,0,0,0,2.52-3.23c.48-1.19.51-2.55,1-3.71a2.14,2.14,0,0,0-.48-2.64c.28-1.33.56-2.67.83-4Z"/><path class="cls-93" d="M44.07,164.5c-.32-1.52-.62-3-1-4.54-.07-.26-.47-.44-.72-.65h65.08c.57,0,1.15,0,1.71,0a2.93,2.93,0,0,0,.73-.27c-.14-.18-.24-.45-.44-.54a32.28,32.28,0,0,1-4.13-2.37h6l6.42,3.19h-6a4.48,4.48,0,0,0-.62.11c.06.08.1.22.19.26,1.29.56,2.59,1.13,3.91,1.65.57.23,1.37.16,1.76.52a5.66,5.66,0,0,0,2.6,1.09,16.8,16.8,0,0,1,2.52,1.16l.54.24a2.18,2.18,0,0,1-.54.15c-.57,0-1.14,0-1.71,0Z"/><path class="cls-103" d="M44.07,164.5h76.32c.57,0,1.14,0,1.71,0a2.18,2.18,0,0,0,.54-.15l-.54-.24a16.8,16.8,0,0,0-2.52-1.16,5.66,5.66,0,0,1-2.6-1.09c-.39-.36-1.19-.29-1.76-.52-1.32-.52-2.62-1.09-3.91-1.65-.09,0-.13-.18-.19-.26a4.48,4.48,0,0,1,.62-.11h6.84a6.89,6.89,0,0,0,.64.4c1.63.79,3.66.87,4.87,2.45.2.28.9.37,1.34.32,1.94-.22,3.49.85,5.22,1.29.11,0,.15.3.23.46l-.74.27h-5.35a1.43,1.43,0,0,0-.39.11,2.9,2.9,0,0,0,.41.27c1.66.77,3.6.92,5.19,1.68,2.09,1,4.57.82,6.47,2.22.38.28,1.05.21,1.59.31-.68.06-1.35.19-2,.19q-46.41,0-92.81,0C43.5,167.7,43.79,166.1,44.07,164.5Z"/><path class="cls-91" d="M33.37,142.54l-1.71-3.6h49a10.92,10.92,0,0,0,1.28,0,4.84,4.84,0,0,0,.88-.25,4.42,4.42,0,0,0-.5-.85c-.45-.49-1-.92-1.46-1.37l-.59-.54.73-.17,1.61-.4,3.86,3.59H84.33a4.2,4.2,0,0,0-.62.08c.12.13.23.27.36.39.53.52,1.09,1,1.57,1.55s.7,1,1,1.43c-.55,0-1.1.13-1.65.13Z"/><path class="cls-118" d="M82.61,135.35l-1.61.4-.73.17.59.54c.49.45,1,.88,1.46,1.37a4.42,4.42,0,0,1,.5.85,4.84,4.84,0,0,1-.88.25,10.92,10.92,0,0,1-1.28,0h-49a4.41,4.41,0,0,0-1.29-3.19H77.16a14.81,14.81,0,0,1,1.49,0c1.07.1.7-.5.52-.94a2.46,2.46,0,0,0-.58-.72c-.82-.86-1.69-1.68-2.48-2.57-.5-.56-.38-1,.51-1h2.14a6,6,0,0,0,.64,1.17C80.44,133,81.54,134.15,82.61,135.35Z"/><path class="cls-122" d="M33.37,142.54H85c.55,0,1.1-.08,1.65-.13-.35-.47-.66-1-1-1.43s-1-1-1.57-1.55c-.13-.12-.24-.26-.36-.39a4.2,4.2,0,0,1,.62-.08h3.85c1,1,2,2,3,3,.62.66-.11.5-.44.57-.71,0-1.43,0-2.14,0-.25,0-.63.11-.7.27s.08.51.25.67c.84.77,1.75,1.48,2.57,2.27a10.7,10.7,0,0,1,1.09,1.4c-.54.05-1.07.16-1.6.16H35.08a3,3,0,0,0-.89-2.48C33.65,144.31,33.63,143.32,33.37,142.54Z"/><path class="cls-92" d="M40.22,156.12c-.3-.54-.6-1.09-.92-1.62s-.81-1.32-1.22-2H99.74c.16.21.27.48.49.6,1,.59,2.06,1.08,3,1.73.39.26.54.83.79,1.27Z"/><path class="cls-120" d="M40.22,156.12h65.09a32.28,32.28,0,0,0,4.13,2.37c.2.09.3.36.44.54a2.93,2.93,0,0,1-.73.27c-.56,0-1.14,0-1.71,0H42.36C42.1,158,41.06,157.11,40.22,156.12Z"/><path class="cls-116" d="M99.74,152.52H38.08l-1.28-2.79a28.62,28.62,0,0,1,3.32-.39q27.45,0,54.91,0c.11.16.18.38.33.48C96.81,150.73,98.28,151.62,99.74,152.52Z"/><path class="cls-117" d="M95,149.33q-27.45,0-54.91,0a28.62,28.62,0,0,0-3.32.39c-.46-.79-1.42-1.34-1.29-2.4H90.22c.53,0,1.06-.11,1.6-.16a10.7,10.7,0,0,0-1.09-1.4c-.82-.79-1.73-1.5-2.57-2.27-.17-.16-.33-.51-.25-.67s.45-.26.7-.27c.71,0,1.43,0,2.14,0,1.29,1.36,2.31,3,4.57,3.23.15,0,.31.42.4.67a6.37,6.37,0,0,1,.17.89c-.82.07-2.17-.09-2.34.25-.48,1,1.16.82,1.41,1.56Z"/><path class="cls-123" d="M211.92,122.17l-.42,3.2h-45a13.72,13.72,0,0,1-3.12-1.34,6.35,6.35,0,0,0-2.56-1.08,13.92,13.92,0,0,1-2-.78Z"/><path class="cls-51" d="M176.81,130.56h-6c-1.4-.59-2.81-1.16-4.2-1.75l-6.08-2.65v-.79h6a3.07,3.07,0,0,0,.62.45,59.08,59.08,0,0,1,5.53,2.39,16.12,16.12,0,0,0,3.85,1.68C176.68,129.92,176.72,130.32,176.81,130.56Z"/><path class="cls-77" d="M211.92,122.17H158.83a36,36,0,0,0-5.21-1.94,15.25,15.25,0,0,0-8.42,1.33c-.22.11-.34.4-.5.61H112.58c-.36-.37-.66-.92-1.11-1.09a9.39,9.39,0,0,1-2.74-2.1H212.78c0,.32.05.84-.13.93C211.58,120.46,212,121.38,211.92,122.17Z"/><path class="cls-99" d="M78.76,130.56H76.62c-.89,0-1,.41-.51,1,.79.89,1.66,1.71,2.48,2.57a2.46,2.46,0,0,1,.58.72c.18.44.55,1-.52.94a14.81,14.81,0,0,0-1.49,0H30.37c-.22-1.21-.45-2.43-.66-3.64-.09-.51-.13-1-.19-1.55h43.2a20.06,20.06,0,0,0,2-.22c-.32-.7-.63-1.4-1-2.08-.08-.14-.42-.15-.54-.29-.75-.85-1.46-1.73-2.19-2.59h2.57c.43.41.88.81,1.3,1.24.74.77,1.35,2,2.24,2.22a2.73,2.73,0,0,1,2,1.73Z"/><path class="cls-114" d="M27,115.38H63.77c.22,1.6,1.7,2.41,2.57,3.6H27.8c-.07-.8.3-1.67-.7-2.29C26.85,116.53,27,115.83,27,115.38Z"/><path class="cls-123" d="M28.23,125.37l-.43-3.2H68.91c.35.62.66,1.25,1,1.84s.72.9,1.09,1.36Z"/><path class="cls-77" d="M68.91,122.17H27.8V119H66.34C67.22,120,67.72,121.34,68.91,122.17Z"/><path class="cls-98" d="M28.23,125.37H71.05c.73.86,1.44,1.74,2.19,2.59.12.14.46.15.54.29.36.68.67,1.38,1,2.08a20.06,20.06,0,0,1-2,.22H29.52C28.25,129,28.82,127.06,28.23,125.37Z"/><path class="cls-124" d="M175.1,159.31h.43c-1.55,1.76-3.71,2.76-5.66,4-.23.15-.52.22-.74.39a7.15,7.15,0,0,0-.68.67,7.54,7.54,0,0,0,.81.12h3.84a3,3,0,0,1,.41.08c0,.09,0,.27-.07.27-1.09,0-1.27,1.72-2.62,1.25H164.4c.53-.26,1.08-.49,1.59-.79.19-.11.29-.36.43-.55-.81-.47-.35-.68.19-.91a17.81,17.81,0,0,0,2.07-1c.13-.07,0-.51,0-.77l3.85-2.4,1.71-.8Z"/><path class="cls-125" d="M168.68,162.11c0,.26.13.7,0,.77a17.81,17.81,0,0,1-2.07,1c-.54.23-1,.44-.19.91-.14.19-.24.44-.43.55-.51.3-1.06.53-1.59.79-1.82.44-3.61,1-5.45,1.3a36.38,36.38,0,0,1-10.84.42c-3.31-.46-6.54-1.26-9.83-1.72L135.07,165a2.13,2.13,0,0,1-.45-.31c.2-.05.4-.09.59-.15l.72-.21-.56-.2L131,162.51h2.57c2.21.8,4.41,1.63,6.64,2.38a18.11,18.11,0,0,0,2.85.64,56.9,56.9,0,0,0,6.2.93,33.8,33.8,0,0,0,9.1-.39c1.92-.43,3.89-.68,5.61-1.88A24.73,24.73,0,0,1,168.68,162.11Z"/><path class="cls-124" d="M131,162.51l4.37,1.58.56.2-.72.21c-.19.06-.39.1-.59.15a2.13,2.13,0,0,0,.45.31l3.21,1.14c-2.91.31-5.47-.86-8.14-1.6l.74-.27c-.08-.16-.12-.43-.23-.46-1.73-.44-3.28-1.51-5.22-1.29-.44.05-1.14,0-1.34-.32-1.21-1.58-3.24-1.66-4.87-2.45a6.89,6.89,0,0,1-.64-.4c1.13-.21,2.38.44,3.42-.4l5.45,2.14C128.64,161.52,129.81,162,131,162.51Z"/><path class="cls-126" d="M152.11,169.29h9.83a5.36,5.36,0,0,1,.94.18,3.06,3.06,0,0,0-.76.23c-2.05,1.16-4.37,1-6.62,1.19-.83.07-1.65.24-2.49.3a9.43,9.43,0,0,1-1.68,0c-.69-.07-1.37-.23-2.06-.29-1.82-.16-3.65-.32-5.47-.4-.87,0-1.18-1.25-2.22-.83-.13.05-.36-.13-.54-.21a2.59,2.59,0,0,1,.59-.16Z"/><path class="cls-72" d="M105.31,85l.42,3.2v2c-.9,0-2,.19-2.65-.21-.44-.27-.19-1.44-.36-2.19-.22-.94-.55-1.86-.84-2.79Z"/><path class="cls-127" d="M180.28,142.54c-.27,1.33-.55,2.67-.83,4L177.61,152a26,26,0,0,1-5.34,5.39c-.68.46-1.29,1-1.93,1.48a81.9,81.9,0,0,1-8.31,4c-5.83,2.07-11.88,1.73-17.85.59a140.25,140.25,0,0,1-21.64-6.34c-1.14-.41-2.34-.69-3.52-1l-4.65-2.36c-1.3-.67-2.62-1.3-3.89-2-1.55-.89-3-1.86-4.58-2.8-.49-.38-1-.8-1.47-1.13-2.7-1.75-5.53-3.33-7.83-5.56-1.25-1-2.54-2-3.72-3.06-1.93-1.74-3.79-3.55-5.68-5.33L83,129.38a10.31,10.31,0,0,0-.68-.95c-2.32-2.75-4.66-5.5-7-8.24-1.25-1.67-2.49-3.34-3.75-5-1.41-1.86-2.84-3.7-4.26-5.55q-2.2-3.91-4.39-7.84a4.55,4.55,0,0,0-.15-.91c-.5-1.3-1-2.59-1.55-3.88A3.6,3.6,0,0,0,61,95.87a13,13,0,0,1-1.15-4.44l-.33-9.12A11.82,11.82,0,0,0,59.89,81a29.31,29.31,0,0,1,1.33-5.83c.34-.83.61-1.68.91-2.53a2.93,2.93,0,0,0,.37-.42A33.56,33.56,0,0,1,68,64.94l3.51-3.45a16.46,16.46,0,0,1,5.11-1.7H83a6.78,6.78,0,0,1,6.67,4c.3.58.7,1.12,1,1.68L92,68.28l1.79,4.37c.26.66.5,1.34.8,2,1.11,2.43,2.25,4.85,3.37,7.28l1.69,3.63a6.38,6.38,0,0,1,0,4.63,45.74,45.74,0,0,1-6.37,8.41l-.82.76c-2.31,1.88-2.9,3.41-1.73,5.48a39.44,39.44,0,0,0,5.56,7.84,33.66,33.66,0,0,0,6,6.82,13.55,13.55,0,0,0,1.4,1.71c1.8,1.57,3.65,3.07,5.49,4.61,1,.77,1.84,1.62,2.85,2.32a92.67,92.67,0,0,0,19.76,10.28c2.37.89,4.21.66,5.86-1q3-3.06,5.8-6.22a26.83,26.83,0,0,0,1.82-2.55l2.48-2.79c1.71-1.55,3.66-1.53,5.73-.76.65.25,1.31.47,2,.7l8.14,3.56c4,1.86,8,3.76,12,5.58,1.71.77,3.45,1.46,4.65,2.92Z"/><path class="cls-128" d="M98,81.92c-1.12-2.43-2.26-4.85-3.37-7.28-.3-.65-.54-1.33-.8-2A1.85,1.85,0,0,1,95.46,74c.18.38.49,1,.8,1,.76.09.85.49,1,1a7.65,7.65,0,0,0,.81,1.8c.14.22.54.3.81.44l3,6.79c-.28-.14-.68-.22-.81-.43-.45-.8-.76-1.67-1.2-2.47S98.72,81.08,98,81.92Z"/><path class="cls-129" d="M99.63,90.18a6.38,6.38,0,0,0,0-4.63l.58-.23a13,13,0,0,1,.75,2c.23,1.09-.39,2.32.77,3.31.23.19-.15,1.11-.37,1.65s-.73,1.28-1,2c-.08.2.14.51.22.77-.36.61-.71,1.22-1.06,1.84,1.18.72-.77,1.1-.23,1.75H97.6a.54.54,0,0,1-.19-.08s-.1-.13-.08-.15c.64-.81,1.32-1.6,1.92-2.43s.4-.81-.8-.93c.41-.74.83-1.47,1.22-2.22A3.58,3.58,0,0,0,99.63,90.18Z"/><path class="cls-130" d="M98.45,95c1.2.12,1.31.23.8.93S98,97.57,97.33,98.38c0,0,0,.12.08.15a.54.54,0,0,0,.19.08l-.86,1.6c-.79.44-1.55.83-1,2,.13.25-.47.82-.74,1.24-.2-.15-.59-.39-.57-.44.55-1.06.33-2.48,1.64-3.22.06,0-.14-.48-.21-.73C96.78,97.7,97.1,96.07,98.45,95Z"/><path class="cls-74" d="M101.88,85l-3-6.79h3.43c0,.26-.07.57,0,.76.52.83,1.1,1.63,1.66,2.44-.16,1.38,1.07,2.33,1.29,3.59Z"/><ellipse class="cls-75" cx="99.53" cy="75.65" rx="2.16" ry="4.12" transform="translate(-25.01 64.71) rotate(-32.22)"/><path class="cls-100" d="M108.73,119a9.39,9.39,0,0,0,2.74,2.1c.45.17.75.72,1.11,1.09l4.71,3.2h-5.13a16.82,16.82,0,0,0-2.4-1.5,10.32,10.32,0,0,1-4.45-3.3c.54-.21.44-.51.14-.85s-.38-.5-.57-.74Z"/><path class="cls-131" d="M96.27,112.67a39.44,39.44,0,0,1-5.56-7.84c-1.17-2.07-.58-3.6,1.73-5.48a2.33,2.33,0,0,1,.08,2.56,6.4,6.4,0,0,0-.46,2.68A2.4,2.4,0,0,0,94.17,107L98,112.19l.42,1.2c-.42-.32-.84-.65-1.26-1S96.45,112.18,96.27,112.67Z"/><path class="cls-132" d="M96.27,112.67c.18-.49.49-.57.92-.24s.84.64,1.26,1c1.57,1.37,3.46,2.42,4.71,4.14a8.8,8.8,0,0,0,1.72,1.45c.19.24.37.5.57.74s.4.64-.14.85c-.67-.41-1.35-.8-2-1.25-.47-.33-.83-.51-1.08.17A33.66,33.66,0,0,1,96.27,112.67Z"/><path class="cls-133" d="M98.45,95c-1.35,1-1.67,2.68-2.56,4l-1.72,1.2c0-.19-.15-.4-.09-.56.35-1,.36-1-.82-1.06a45.74,45.74,0,0,0,6.37-8.41,3.58,3.58,0,0,1,0,2.62C99.28,93.55,98.86,94.28,98.45,95Z"/><path class="cls-113" d="M93.26,98.59c1.18.1,1.17.1.82,1.06-.06.16.06.37.09.56.48.64-1.43,1.19-.09,1.87a16.33,16.33,0,0,0-.74,2,3.92,3.92,0,0,0,.83,2.94,2.4,2.4,0,0,1-2.11-2.41,6.4,6.4,0,0,1,.46-2.68,2.33,2.33,0,0,0-.08-2.56Z"/><path class="cls-85" d="M90.75,61.47H94.6c.51,1.09,1.68,1.88,1.71,3.2.43,1.26,1.53,2.23,1.72,3.59H94.6A28.55,28.55,0,0,0,90.75,61.47Z"/><path class="cls-134" d="M92,68.28l-1.28-2.8c0-.57.26-.94.89-.78a1.54,1.54,0,0,1,.82.65c.47.8.83,1.67,1.32,2.47.13.22.54.3.83.44.71,1.6,1.43,3.19,2.14,4.79a9.18,9.18,0,0,1-3.39-3.5,12,12,0,0,0-.91-1.48Z"/><path class="cls-108" d="M53.5,90.22c1,0,2.4.3,3-.2s.28-1.78.41-2.73c.11-.75.28-1.5.42-2.26.14-.93.36-1.87.41-2.81s.71-.75,1.3-.78c-.07,1.18.26,2.56-.3,3.5a5.37,5.37,0,0,0-.42,3.82c.12.77.62,1.39-.67,1.54-.1,0-.25.33-.23.49.24,1.41.51,2.82.77,4.23H54.35c-.14-.57-.32-1.13-.42-1.7C53.76,92.29,53.64,91.26,53.5,90.22Z"/><path class="cls-135" d="M59.85,91.43A13,13,0,0,0,61,95.87,3.6,3.6,0,0,1,61.18,97c-.1.33-.35.69-.29,1a15.45,15.45,0,0,1,.64,2.92c0,.92,1.1,2-.23,2.82,0,0,.09.35.18.52.67,1.3,1.35,2.58,2,3.89,0,0-.36.28-.55.42h-.86c-.15-.62-1.27-1.21-.09-1.92.05,0-.15-.45-.26-.68-.45-.86-.91-1.72-1.36-2.59-.11-.48-.41-1-.28-1.43.36-1.06-.17-1.65-1-2.16a2.55,2.55,0,0,0-.1-1c-.4-.75-.89-1.41-.4-2.35.19-.36-.22-1-.35-1.47.34,0,.92,0,1-.13a1.68,1.68,0,0,0,.15-1.27C59,92.74,58.77,92,59.85,91.43Z"/><path class="cls-110" d="M59.06,99.81c.84.51,1.37,1.1,1,2.16-.13.41.17,1,.28,1.43h-3l-1.29-1.6h1.7c.77,0,1.11-.38.75-1S59.12,100.25,59.06,99.81Z"/><path class="cls-77" d="M66.34,119c-.87-1.19-2.35-2-2.57-3.6-.31-.23-.76-.4-.9-.7a17.19,17.19,0,0,1-.75-2.12c.63-.13,1.26-.27,1.9-.36a7.21,7.21,0,0,1,1,0h.85c.83,1.39,1.12,3,2.26,4.26a.39.39,0,0,1,.1.17c-1,.9.38,1.32.48,2a1.14,1.14,0,0,0,.16.36Z"/><path class="cls-136" d="M65.91,112.19h-.85l-2.14-3.6c.19-.14.57-.37.55-.42-.64-1.31-1.32-2.59-2-3.89-.09-.17-.23-.49-.18-.52,1.33-.84.2-1.9.23-2.82A15.45,15.45,0,0,0,60.89,98c-.06-.31.19-.67.29-1,.52,1.29,1,2.58,1.55,3.88a4.55,4.55,0,0,1,.15.91c-.07.26-.26.57-.17.78,1.18,2.67,2.41,5.33,3.63,8a7.15,7.15,0,0,1-.08,1A2.31,2.31,0,0,1,65.91,112.19Z"/><path class="cls-137" d="M59.06,81.44c-.59,0-1.26-.16-1.3.78s-.27,1.88-.41,2.81h-.43c-.21-2.32.55-4.53.86-6.79.27-.14.72-.22.8-.43.36-.9.62-1.84.91-2.76a3.22,3.22,0,0,1,2.64-2.39c-.3.85-.57,1.7-.91,2.53A29.31,29.31,0,0,0,59.89,81a11.82,11.82,0,0,1-.37,1.29Z"/><path class="cls-85" d="M64.2,61.47h4.28c-1.69,1.92-3.4,3.82-5.07,5.75a4.14,4.14,0,0,0-.49,1H59.06c.31-.54.62-1.09.94-1.63l1.2-2Z"/><path class="cls-79" d="M59.06,68.26h3.43c-.86,1.6-1.72,3.19-2.57,4.79H56.06l2.57-4.79Z"/><path class="cls-27" d="M59.92,73.05c.85-1.6,1.71-3.19,2.57-4.79h.43c.67-.58,1.36-1.14,2-1.75s1.23-1.23,1.84-1.84l1.25.27a33.56,33.56,0,0,0-5.52,7.3,2.93,2.93,0,0,1-.37.42,3.22,3.22,0,0,0-2.64,2.39c-.08-.26-.28-.55-.21-.76A7.3,7.3,0,0,1,59.92,73.05Z"/><path class="cls-26" d="M94.6,68.26c-.29-.14-.7-.22-.83-.44-.49-.8-.85-1.67-1.32-2.47a1.54,1.54,0,0,0-.82-.65c-.63-.16-.91.21-.89.78-.35-.56-.75-1.1-1-1.68a6.78,6.78,0,0,0-6.67-4c-.23-.11-.47-.33-.68-.31-1.9.17-3.84-.42-5.7.3a16.46,16.46,0,0,0-5.11,1.7l-1.34,0a7.91,7.91,0,0,1,1.08-.85c3.74-2.1,7.89-2.17,12-1.89a11.16,11.16,0,0,1,5.44,1.87c.49.33,1,.58,1.57.87h.43A28.55,28.55,0,0,1,94.6,68.26Z"/><path class="cls-138" d="M90.32,61.47c-.53-.29-1.08-.54-1.57-.87a11.16,11.16,0,0,0-5.44-1.87c-4.15-.28-8.3-.21-12,1.89a7.91,7.91,0,0,0-1.08.85h-.85c.46-1,1.53-1.31,2.47-1.73a18.47,18.47,0,0,1,6.24-1.55,34.65,34.65,0,0,1,5.59.12C86.29,58.5,88.73,59.25,90.32,61.47Z"/><path class="cls-139" d="M69.34,61.47h.43a3.87,3.87,0,0,1-.41.4c-1,.78-2.29,1.4-2.59,2.8-.61.61-1.21,1.25-1.84,1.84s-1.34,1.17-2,1.75a4.14,4.14,0,0,1,.49-1c1.67-1.93,3.38-3.83,5.07-5.75Z"/><path class="cls-92" d="M184.09,152.52h-1.28c-.6,0-.94-.11-.66-.82s-.62-1.26-.38-2.19c.3-1.18-.13-2.51-.25-3.78.45.12,1.44-.23,1.12.61-.36,1,.08,1,.83,1s1.56,0,2.33,0C185.75,149.21,184.72,150.81,184.09,152.52Z"/><path class="cls-140" d="M180.28,142.54l-.07-4.74.37-.22.94,1.36c.15,1.2.29,2.4.43,3.6h-1.67Z"/><path class="cls-141" d="M163.55,129.3l-8.14-3.56a5.55,5.55,0,0,1,5.13.42l6.08,2.65c1.39.59,2.8,1.16,4.2,1.75l2.57,1.59a2.65,2.65,0,0,1-.85,0c-2.45-.91-4.89-1.85-7.34-2.77C164.66,129.15,164.13,128.56,163.55,129.3Z"/><path class="cls-142" d="M170.34,158.89c.64-.49,1.25-1,1.93-1.48a26,26,0,0,0,5.34-5.39c.21.51.74.95,0,1.57a6.87,6.87,0,0,0-1.25,1.78c-.11.19,0,.49,0,.75v.79l-2.14,2-1.71.8Z"/><path class="cls-143" d="M176.38,156.12c0-.26-.09-.56,0-.75a6.87,6.87,0,0,1,1.25-1.78c.7-.62.17-1.06,0-1.57l1.84-5.48a2.14,2.14,0,0,1,.48,2.64c-.52,1.16-.55,2.52-1,3.71A6,6,0,0,1,176.38,156.12Z"/><path class="cls-103" d="M174.24,158.91l2.14-2,.38-.16.8-.39a3.13,3.13,0,0,1-.39.8c-.66.73-1.38,1.44-2.07,2.15Z"/><path class="cls-42" d="M122,158.91c-1,.84-2.29.19-3.42.4h-.86l-6.42-3.19-5.25-3.07a3.2,3.2,0,0,1-.47-.43l.6-.1.61-.11a2.83,2.83,0,0,0-.37-.33c-.94-.53-1.89-1-2.83-1.56l-.85-1.19,2.57.8c.92.67,1.89,1.29,2.76,2a22.22,22.22,0,0,0,7.08,4A18.64,18.64,0,0,0,122,158.91Z"/><path class="cls-121" d="M103.59,150.52c.94.52,1.89,1,2.83,1.56a2.83,2.83,0,0,1,.37.33l-.61.11-.6.1a3.2,3.2,0,0,0,.47.43l5.25,3.07H104c-.25-.44-.4-1-.79-1.27-.94-.65-2-1.14-3-1.73-.22-.12-.33-.39-.49-.6h4.38a2.64,2.64,0,0,0,.52-.13l-.42-.36C103.72,151.63,103,151.33,103.59,150.52Z"/><path class="cls-144" d="M78.76,130.56h.43l.7-.27c-.92-.94-.74-2.48-2.06-3.25a3.33,3.33,0,0,1-.92-1.26,4.26,4.26,0,0,1,.56-.41c1.12,1.24,2.25,2.48,3.36,3.73.26.3.68.71.62,1-.3,1.37.86,1.89,1.6,2.68a5.52,5.52,0,0,1,1.27,1.54c.2.53,1.72.55.74,1.6-.08.09.74.93,1.17,1.41s1,1.08,1.52,1.62H86.47l-3.86-3.59c-1.07-1.2-2.17-2.39-3.21-3.62A6,6,0,0,1,78.76,130.56Z"/><path class="cls-145" d="M87.75,138.94c-.51-.54-1-1.07-1.52-1.62S85,136,85.06,135.91c1-1-.54-1.07-.74-1.6a5.52,5.52,0,0,0-1.27-1.54c-.74-.79-1.9-1.31-1.6-2.68.06-.28-.36-.69-.62-1-1.11-1.25-2.24-2.49-3.36-3.73s-2.38-2.59-2.57-4.4l.38-.78c2.33,2.74,4.67,5.49,7,8.24a10.31,10.31,0,0,1,.68.95c0,.26-.19.59-.08.77.34.56,1.11,1,1.14,1.58.06,1.58,1.36,2.27,2.27,3.25.22.24.41.51.61.77l-.6.42,2.49,2.36-.6.41Z"/><path class="cls-40" d="M88.18,138.94l.6-.41-2.49-2.36.6-.42.43.4c1.21,1.06,2.45,2.1,3.63,3.19,2.07,1.92,4.1,3.87,6.15,5.81.05,0,.05.12.07.18-.38.53-.3.91.36,1.2a4,4,0,0,1,.72.6,5.89,5.89,0,0,1-.91.19c-.48,0-1,0-1.45,0a6.37,6.37,0,0,0-.17-.89c-.09-.25-.25-.65-.4-.67-2.26-.19-3.28-1.87-4.57-3.23.33-.07,1.06.09.44-.57C90.21,140.94,89.18,140,88.18,138.94Z"/><path class="cls-97" d="M95.89,147.33c.48,0,1,0,1.45,0a5.89,5.89,0,0,0,.91-.19,4,4,0,0,0-.72-.6c-.66-.29-.74-.67-.36-1.2l1.71.4c-.11.88,2.21.59,1.08,2l2.78,1.64.85,1.19c-.63.81.13,1.11.63,1.51l.42.36a2.64,2.64,0,0,1-.52.13H99.74c-1.46-.9-2.93-1.79-4.38-2.71-.15-.1-.22-.32-.33-.48l-.07-.19c-.25-.74-1.89-.58-1.41-1.56C93.72,147.24,95.07,147.4,95.89,147.33Z"/><path class="cls-100" d="M144.7,122.17c.16-.21.28-.5.5-.61a15.25,15.25,0,0,1,8.42-1.33,36,36,0,0,1,5.21,1.94,13.92,13.92,0,0,0,2,.78,6.35,6.35,0,0,1,2.56,1.08,13.72,13.72,0,0,0,3.12,1.34h-6c-2.41-1.76-5.34-1.72-8.15-2-1.51-.13-3.07.36-4.6.31a3.12,3.12,0,0,0-3.09,1.64h-3.43c.51-.42,1.37-.79,1.45-1.26C142.92,122.93,143.85,122.64,144.7,122.17Z"/><path class="cls-146" d="M144.7,125.37a3.12,3.12,0,0,1,3.09-1.64c1.53,0,3.09-.44,4.6-.31,2.81.23,5.74.19,8.15,2v.79a5.55,5.55,0,0,0-5.13-.42c-.66-.23-1.32-.45-2-.7-2.07-.77-4-.79-5.73.76-.55-.84-1.44-.26-2.15-.43Z"/><path class="cls-123" d="M144.7,122.17c-.85.47-1.78.76-2,1.94-.08.47-.94.84-1.45,1.26h-24l-4.71-3.2Z"/><path class="cls-141" d="M74.9,121c.19,1.81,1.53,3,2.57,4.4a4.26,4.26,0,0,0-.56.41,3.33,3.33,0,0,0,.92,1.26c1.32.77,1.14,2.31,2.06,3.25l-.7.27a2.73,2.73,0,0,0-2-1.73c-.89-.21-1.5-1.45-2.24-2.22-.42-.43-.87-.83-1.3-1.24a10.51,10.51,0,0,0,.14-1.93,4.33,4.33,0,0,0-.57-1.27c-.55-.74-1.08-1.5-1.66-2.22s0-1,.38-1.37c.36.28.89.49,1,.85A3.15,3.15,0,0,0,74.9,121Z"/><path class="cls-100" d="M73.19,122.17a4.33,4.33,0,0,1,.57,1.27,10.51,10.51,0,0,1-.14,1.93H71.05c-.37-.46-.77-.88-1.09-1.36s-.7-1.22-1-1.84c-1.19-.83-1.69-2.14-2.57-3.19h2.57c1.29,1,2.57,2.11,3.87,3.16C72.87,122.2,73.05,122.16,73.19,122.17Z"/><path class="cls-147" d="M170.34,158.89l2.19.82-3.85,2.4a24.73,24.73,0,0,0-4.71,2.08c-1.72,1.2-3.69,1.45-5.61,1.88a33.8,33.8,0,0,1-9.1.39,56.9,56.9,0,0,1-6.2-.93,18.11,18.11,0,0,1-2.85-.64c-2.23-.75-4.43-1.58-6.64-2.38a3.16,3.16,0,0,0-.65-.4l-7.24-2.41c-.13,0-.21-.23-.31-.36l.74-.26c-.27-.07-.54-.12-.79-.21-.77-.29-1.56-.55-2.31-.89-1.34-.61-2.66-1.28-4-1.93,1.18.35,2.38.63,3.52,1a140.25,140.25,0,0,0,21.64,6.34c6,1.14,12,1.48,17.85-.59A81.9,81.9,0,0,0,170.34,158.89Z"/><path class="cls-148" d="M119,156.05c1.33.65,2.65,1.32,4,1.93.75.34,1.54.6,2.31.89.25.09.52.14.79.21l-.74.26c.1.13.18.32.31.36l7.24,2.41a3.16,3.16,0,0,1,.65.4H131c-1.19-.49-2.36-1-3.55-1.46L122,158.91a18.64,18.64,0,0,1-6.85-2.79h1.9a1.77,1.77,0,0,0,.4-.08c-.1-.11-.17-.28-.3-.34-.92-.46-1.87-.88-2.78-1.35-.29-.15-.6-.44,0-.65Z"/><path class="cls-52" d="M145.23,128.59a26.83,26.83,0,0,1-1.82,2.55q-2.83,3.17-5.8,6.22c-1.65,1.71-3.49,1.94-5.86,1A92.67,92.67,0,0,1,112,128.13c-1-.7-1.9-1.55-2.85-2.32.49-.8,1-.44,1.53,0,1.86,1.36,3.75,2.68,5.6,4a3.93,3.93,0,0,0,2.74.75l2.14.4c.37.28.73.57,1.12.84,3.51,2.45,7.21,4.19,11.84,4a5.6,5.6,0,0,0,4.43-2.19,14,14,0,0,0,1-1.49,2,2,0,0,0,1.76-.77A9.25,9.25,0,0,1,145.23,128.59Z"/><path class="cls-149" d="M119,130.56a3.93,3.93,0,0,1-2.74-.75c-1.85-1.36-3.74-2.68-5.6-4-.55-.4-1-.76-1.53,0-1.84-1.54-3.69-3-5.49-4.61a13.55,13.55,0,0,1-1.4-1.71c.25-.68.61-.5,1.08-.17.63.45,1.31.84,2,1.25a10.32,10.32,0,0,0,4.45,3.3,16.82,16.82,0,0,1,2.4,1.5c1,.79,1.94,1.61,3,2.37C116.39,128.71,117.71,129.62,119,130.56Z"/><path class="cls-150" d="M114.37,153.69c-.6.21-.29.5,0,.65.91.47,1.86.89,2.78,1.35.13.06.2.23.3.34a1.77,1.77,0,0,1-.4.08h-1.9a22.22,22.22,0,0,1-7.08-4c-.87-.73-1.84-1.35-2.76-2-.47-.7-.17-1.08.59-1.27,1.53.94,3,1.91,4.58,2.8C111.75,152.39,113.07,153,114.37,153.69Z"/><path class="cls-151" d="M98.88,145.73l-1.71-.4c0-.06,0-.14-.07-.18-2-1.94-4.08-3.89-6.15-5.81-1.18-1.09-2.42-2.13-3.63-3.19.13-.39,1.18-.58.24-1.21-.35-.23-1-.57-.36-1.16,1.89,1.78,3.75,3.59,5.68,5.33,1.18,1.07,2.47,2,3.72,3.06-1.06.66-1.06.75-.29,1.36S98,145,98.88,145.73Z"/><path class="cls-152" d="M98.88,145.73c-.85-.73-1.68-1.5-2.57-2.2s-.77-.7.29-1.36c2.3,2.23,5.13,3.81,7.83,5.56.52.33,1,.75,1.47,1.13-.76.19-1.06.57-.59,1.27l-2.57-.8L100,147.69C101.09,146.32,98.77,146.61,98.88,145.73Z"/><path class="cls-129" d="M59.06,81.44l.46.87.33,9.12c-1.08.56-.87,1.31-.5,2.19a1.68,1.68,0,0,1-.15,1.27c-.07.15-.65.09-1,.13-.26-1.41-.53-2.82-.77-4.23,0-.16.13-.47.23-.49,1.29-.15.79-.77.67-1.54a5.37,5.37,0,0,1,.42-3.82C59.32,84,59,82.62,59.06,81.44Z"/><path class="cls-153" d="M74.9,121A3.15,3.15,0,0,1,73,119.43c-.16-.36-.69-.57-1-.85-1-2.29-3-4-3.86-6.39,0-.18.13-.38.07-.53-.26-.68-.56-1.34-.85-2,1.42,1.85,2.85,3.69,4.26,5.55,1.26,1.65,2.5,3.32,3.75,5Z"/><path class="cls-154" d="M145.23,128.59a9.25,9.25,0,0,0-3.91,2.79,2,2,0,0,1-1.76.77c-.3-.08-1,.15-.46-.55.28-.36.59-.7.89-1a1.9,1.9,0,0,0,1.84-.73c1.23-1.49,2.48-3,3.73-4.46.71.17,1.6-.41,2.15.43Z"/><path class="cls-155" d="M92,68.28l.42-.21a12,12,0,0,1,.91,1.48,9.18,9.18,0,0,0,3.39,3.5l2.14,5.19c-.27-.14-.67-.22-.81-.44a7.65,7.65,0,0,1-.81-1.8c-.15-.54-.24-.94-1-1-.31,0-.62-.63-.8-1a1.85,1.85,0,0,0-1.65-1.31Z"/><path class="cls-156" d="M67.27,109.65c.29.67.59,1.33.85,2,.06.15,0,.35-.07.53l-1.71-1.6c-1.22-2.67-2.45-5.33-3.63-8-.09-.21.1-.52.17-.78Q65.07,105.73,67.27,109.65Z"/><path class="cls-157" d="M87.2,133.78c-.66.59,0,.93.36,1.16.94.63-.11.82-.24,1.21l-.43-.4c-.2-.26-.39-.53-.61-.77-.91-1-2.21-1.67-2.27-3.25,0-.53-.8-1-1.14-1.58-.11-.18,0-.51.08-.77Z"/><path class="cls-158" d="M66.77,64.67c.3-1.4,1.54-2,2.59-2.8a3.87,3.87,0,0,0,.41-.4h.42l1.34,0L68,64.94Z"/><path class="cls-138" d="M76.64,59.79c1.86-.72,3.8-.13,5.7-.3.21,0,.45.2.68.31Z"/><path class="cls-51" d="M119,130.56c-1.3-.94-2.62-1.85-3.89-2.82-1-.76-2-1.58-3-2.37h5.13c.61.41,1.24.8,1.82,1.25a15.18,15.18,0,0,0,5.85,3.19c.21.05.31.49.47.75-.92,0-1.85-.05-2.77,0a7.43,7.43,0,0,0-1.51.38Z"/><path class="cls-159" d="M66.34,110.59l1.71,1.6c.87,2.35,2.87,4.1,3.86,6.39-.39.39-.91.72-.38,1.37s1.11,1.48,1.66,2.22c-.14,0-.32,0-.41,0-1.3-1-2.58-2.11-3.87-3.16a1.14,1.14,0,0,1-.16-.36c-.1-.68-1.46-1.1-.48-2a.39.39,0,0,0-.1-.17c-1.14-1.24-1.43-2.87-2.26-4.26a2.31,2.31,0,0,0,.35-.57A7.15,7.15,0,0,0,66.34,110.59Z"/><path class="cls-51" d="M145.56,125.37c-1.25,1.48-2.5,3-3.73,4.46a1.9,1.9,0,0,1-1.84.73h-2.57c.11-.3.12-.71.35-.88a7.89,7.89,0,0,0,1.89-2.19c.27-.43.78-.71,1.1-1.11a4.56,4.56,0,0,0,.51-1h4.29Z"/><path class="cls-100" d="M141.27,125.37a4.56,4.56,0,0,1-.51,1c-.32.4-.83.68-1.1,1.11a7.89,7.89,0,0,1-1.89,2.19c-.23.17-.24.58-.35.88h-12c-.16-.26-.26-.7-.47-.75a15.18,15.18,0,0,1-5.85-3.19c-.58-.45-1.21-.84-1.82-1.25Z"/><path class="cls-119" d="M125.43,130.56h.86c2.06,1.08,4.28,1.86,6.28,3.05.36.22,1.24.28,1.4.08.85-1.05,2.62-1.47,2.59-3.13H140c-.3.34-.61.68-.89,1-.57.7.16.47.46.55a14,14,0,0,1-1,1.49,5.6,5.6,0,0,1-4.43,2.19c-4.63.16-8.33-1.58-11.84-4-.39-.27-.75-.56-1.12-.84a7.43,7.43,0,0,1,1.51-.38C123.58,130.51,124.51,130.56,125.43,130.56Z"/><path class="cls-101" d="M136.56,130.56c0,1.66-1.74,2.08-2.59,3.13-.16.2-1,.14-1.4-.08-2-1.19-4.22-2-6.28-3.05Z"/></g></g></svg>