<svg xmlns="http://www.w3.org/2000/svg" viewBox="0 0 190.87 198.02"><defs><style>.cls-1{fill:#fff;}</style></defs><title>Github</title><g id="Capa_2" data-name="Capa 2"><g id="Capa_11" data-name="Capa 11"><path class="cls-1" d="M187.93,103.75A93.13,93.13,0,0,1,128.87,191c-10.53,4.16-22.06,7-34,7-11.12,0-20.13-2.3-30-6-35.55-13.3-62.09-47.09-62.09-88.27,0-52.61,41.45-95.27,92.58-95.27S187.93,51.14,187.93,103.75Z"/><path d="M113,142.63c4.16-.85,8-1.47,11.81-2.46,11.39-3,21-8.81,26.22-20.28a56.43,56.43,0,0,0,3.58-37.8,33.56,33.56,0,0,0-7-13.41,3.18,3.18,0,0,1-.68-3.35,36.19,36.19,0,0,0-1.11-22.94,3,3,0,0,0-2.29-1.57c-4.55-.11-8.79,1.44-12.81,3.49-3.52,1.79-6.84,4-10.31,5.9a4,4,0,0,1-2.68.45,89.81,89.81,0,0,0-44.89,0A4.34,4.34,0,0,1,69.87,50c-6.21-4-12.5-7.67-19.82-9-.22,0-.44-.11-.66-.14-3.82-.57-4.21-.34-5.31,3.45A37.59,37.59,0,0,0,43.81,66,2.61,2.61,0,0,1,43.42,68C34.86,78.33,33.21,90.46,35,103.36a65.1,65.1,0,0,0,3.28,13.47c4.84,13,14.74,20,27.25,23.32,3.85,1,7.81,1.68,12,2.56a24,24,0,0,0-5.61,12.22c-.09.51-.83,1.08-1.38,1.3-10.18,4.09-20.06,2.35-26.33-8.49-3-5.11-7-8.89-12.81-10.1a11.22,11.22,0,0,0-4.47,0c-2,.41-2.31,1.59-1,3.17a10.27,10.27,0,0,0,2.22,2c5.17,3.22,8.46,8.06,10.67,13.72,3.52,9,10.33,13.15,19.16,13.85,4.39.36,8.86-.26,13.53-.44,0,6.07.16,12.45-.06,18.82-.12,3.25-3.41,4.75-7,3.5A84.63,84.63,0,0,1,41.8,180.58C13.06,159.4-1.45,130.38.12,93.66,2.07,48,34.1,10.49,77.28,1.82,126.78-8.11,175,23.46,187.83,74.19c12.5,49.51-14.68,101.89-61.26,118-4.74,1.64-7.48-.42-7.47-5.67q0-12.44.08-24.86C119.21,154.72,118,148.18,113,142.63Z"/><path d="M61.74,159.41l2,1.83c-.72.53-1.41,1.35-2.19,1.47-.51.08-1.17-.86-1.76-1.35Z"/><path d="M49.82,156.36c-1,.76-1.72,1.48-1.93,1.35a8.9,8.9,0,0,1-2.16-2,3.47,3.47,0,0,1,1-1.3A28.16,28.16,0,0,1,49.82,156.36Z"/><path d="M54,158.13l1.95,2.31c-.65.37-1.42,1.17-1.9,1-.75-.25-1.3-1.15-1.94-1.78Z"/><path d="M69.21,158.36l1.76,2a7.91,7.91,0,0,1-2.29,1.48c-.44.1-1.08-.76-1.64-1.19C67.66,160,68.29,159.33,69.21,158.36Z"/><path d="M42.94,152.87a16.66,16.66,0,0,1-1.7-2.85c-.08-.26.7-.83,1.09-1.26A14.36,14.36,0,0,1,44,150.94C44.11,151.18,43.54,151.81,42.94,152.87Z"/><path d="M38.39,143a24,24,0,0,1,1.69,2.51c.05.09-.86.92-.93.87a6.64,6.64,0,0,1-1.6-1.66C37.43,144.56,37.92,144,38.39,143Z"/></g></g></svg>