<svg xmlns="http://www.w3.org/2000/svg" viewBox="0 0 192 216"><defs><style>.cls-1{fill:#d0382b;}.cls-2{fill:#fefefe;}.cls-3{fill:#e83e30;}</style></defs><title>Recurso 1</title><g id="Capa_2" data-name="Capa 2"><g id="HTML_5" data-name="HTML 5"><path class="cls-1" d="M16.79,199.66C11.2,133.19,5.62,66.78,0,0H192q-8.42,100.13-16.75,199.39C130.19,221.41,73.3,221.57,16.79,199.66Zm78.49-84.51-1.11,37.11-23.6-5c-.93-7.31-1.81-14.24-2.67-21H43.33c1.12,13.51,2.22,26.66,3.31,39.89l48.64,13.38v24.56c17.77-4.67,33.91-9.55,50.33-13,11.71-2.47,18.25-6,19.13-20.67,3-51,8.06-101.82,12.35-153h-82V40.74c-17,0-33-.23-49,.19-3.22.08-8.23-3.36-9.87,3,2,23.41,4.08,46.82,6.2,71.21Z"/><path class="cls-2" d="M95.28,179.57,46.64,166.19c-1.09-13.23-2.19-26.38-3.31-39.89H67.9c.86,6.75,1.74,13.68,2.67,21l23.6,5L122,147.51c1.28-11,2.49-21.53,3.74-32.36H42.42c-2.12-24.39-4.16-47.8-6.2-71.2.58-.76,1.17-2.19,1.75-2.19,39.21-.11,78.43-.1,117.87-.1-.72,8.3-1.38,15.82-2.1,24.12H61.45c.72,8,1.39,15.57,2.07,23.12h88.35c-2.26,26.79-4.38,51.94-6.54,77.49Z"/><path class="cls-3" d="M95.29,65.78h58.45c.72-8.3,1.38-15.82,2.1-24.12-39.44,0-78.66,0-117.87.1-.58,0-1.17,1.43-1.75,2.19,1.64-6.38,6.65-2.94,9.87-3,15.95-.42,31.92-.19,49-.19V17.42h82c-4.29,51.21-9.3,102.06-12.35,153-.88,14.65-7.42,18.2-19.13,20.67-16.42,3.46-32.56,8.34-50.33,13V179.57l50.05-13.18c2.16-25.55,4.28-50.7,6.54-77.49H95.29Z"/><path class="cls-3" d="M95.28,115.15h30.44c-1.25,10.83-2.46,21.31-3.74,32.36l-27.81,4.75Z"/><path class="cls-1" d="M95.29,65.78V88.9H63.52c-.68-7.55-1.35-15.1-2.07-23.12Z"/></g></g></svg>