<svg xmlns="http://www.w3.org/2000/svg" viewBox="0 0 287.22 269.11"><defs><style>.cls-1{fill:#fe7c00;}.cls-2{fill:#261300;}.cls-3{fill:#fe7b00;}</style></defs><title>Illustrator</title><g id="Capa_2" data-name="Capa 2"><g id="AI"><path class="cls-1" d="M143.8.06H284.49c.65,0,1.31,0,2,0s.8.06.73.66,0,1.26,0,1.89V266.44a11.79,11.79,0,0,0,0,1.88c.14.83-.32.8-.91.77s-1.12,0-1.68,0H2.66c-.56,0-1.12,0-1.68,0s-1,0-.88-.8a11.92,11.92,0,0,0,0-1.89V2.57C.12,1.76-.19.49.19.25.84-.16,1.93.06,2.84.06Zm-.15,257.6h128.1c3.8,0,3.54.37,3.54-3.27V14.75c0-3.64.26-3.27-3.54-3.27H15.54c-3.8,0-3.54-.37-3.54,3.27V254.39c0,3.64-.26,3.27,3.54,3.27Z"/><path class="cls-2" d="M143.65,257.66H15.54c-3.8,0-3.54.37-3.54-3.27V14.75c0-3.64-.26-3.27,3.54-3.27H271.75c3.8,0,3.54-.37,3.54,3.27V254.39c0,3.64.26,3.27-3.54,3.27ZM118.46,61.4H108.09c-3.37,0-3,0-3.28,2.84A49.25,49.25,0,0,1,103.34,73Q89.23,120.88,75,168.71q-2.46,8.28-4.9,16.57c-.72,2.47-.47,2.76,2.25,2.81,1.22,0,2.43,0,3.65,0,3.92,0,7.85,0,11.77,0,2,0,2.17-.2,2.75-2,.17-.52.32-1,.46-1.56q4-14.7,8-29.4c.73-2.69.75-2.69,3.74-2.69h32.52c2.74,0,2.56-.4,3.37,2.45q4.32,15,8.64,30.09c.89,3.1.91,3.1,4.16,3.11h15.42c4.1,0,4.1,0,3-3.67q-13-42.31-26-84.64-5.51-17.93-11-35.88c-.76-2.48-.79-2.49-3.45-2.5Zm70,79.92q0,22,0,43.92c0,2.62.19,2.82,2.81,2.84,5.33,0,10.65,0,16,0,2.51,0,2.63-.15,2.64-2.66V97.29c0-2.64-.14-2.77-2.81-2.79-4.39,0-8.78,0-13.17,0-1.31,0-2.62,0-3.93,0-1,0-1.58.48-1.54,1.51,0,.54,0,1.08,0,1.62Q188.42,119.48,188.43,141.32Zm12.27-59.8a10.56,10.56,0,0,0,9.47-6.42,12.76,12.76,0,0,0,.33-9.47c-1.85-5.56-7.57-8.7-15-7.06-6.09,1.35-9.5,6.82-8.61,13.25C187.76,77.93,192.2,81.54,200.7,81.52Z"/><path class="cls-1" d="M118.46,61.4H129.4c2.66,0,2.69,0,3.45,2.5q5.49,17.94,11,35.88,13,42.33,26,84.64c1.13,3.67,1.13,3.67-3,3.67H151.41c-3.25,0-3.27,0-4.16-3.11q-4.33-15-8.64-30.09c-.81-2.85-.63-2.44-3.37-2.45H102.72c-3,0-3,0-3.74,2.69q-4,14.7-8,29.4c-.14.52-.29,1-.46,1.56-.58,1.79-.74,2-2.75,2-3.92,0-7.85,0-11.77,0-1.22,0-2.43,0-3.65,0-2.72-.05-3-.34-2.25-2.81Q72.49,177,75,168.71,89.17,120.86,103.34,73a49.25,49.25,0,0,0,1.47-8.74c.29-2.82-.09-2.86,3.28-2.84Zm.39,72.36h10.92c3.24,0,3.21,0,2.38-3.14q-6.41-24.23-12.79-48.46c-.12-.44-.22-.87-.36-1.3a4.35,4.35,0,0,0-.32-.65,5.73,5.73,0,0,0-.34.71c-.14.43-.26.87-.36,1.31-1.89,7.85-3.66,15.74-5.69,23.56-2.24,8.7-4.73,17.34-7.09,26-.52,1.89-.47,1.94,1.6,1.95C110.82,133.78,114.83,133.76,118.85,133.76Z"/><path class="cls-1" d="M188.42,141.32V97.66c0-.54,0-1.08,0-1.62,0-1,.58-1.47,1.54-1.51,1.31,0,2.62,0,3.93,0,4.39,0,8.78,0,13.17,0,2.67,0,2.81.15,2.81,2.79v88.13c0,2.51-.13,2.65-2.64,2.66-5.33,0-10.65,0-16,0-2.62,0-2.81-.22-2.81-2.84Q188.41,163.28,188.42,141.32Z"/><path class="cls-3" d="M200.7,81.52c-8.5,0-12.94-3.59-13.79-9.7-.89-6.43,2.52-11.9,8.61-13.25,7.41-1.64,13.13,1.5,15,7.06a12.76,12.76,0,0,1-.33,9.47A10.56,10.56,0,0,1,200.7,81.52Z"/><path class="cls-2" d="M118.85,133.76c-4,0-8,0-12,0-2.07,0-2.12-.06-1.6-1.95,2.36-8.67,4.85-17.31,7.09-26,2-7.82,3.8-15.71,5.69-23.56.1-.44.22-.88.36-1.31a5.73,5.73,0,0,1,.34-.71,4.35,4.35,0,0,1,.32.65c.14.43.24.86.36,1.3q6.39,24.23,12.79,48.46c.83,3.14.86,3.14-2.38,3.14Z"/></g></g></svg>