<svg xmlns="http://www.w3.org/2000/svg" viewBox="0 0 191.42 215.47"><defs><style>.cls-1{fill:#fded56;}.cls-2{fill:#272726;}</style></defs><title>JavaScript</title><g id="Capa_2" data-name="Capa 2"><g id="JavaScript"><path class="cls-1" d="M191.42,0V215.47H0V0ZM114,178c3,6.57,7.12,11.76,12.56,15.07,11.45,7,23.37,7.64,35.43,2.39,6.9-3,11.78-8.64,13.62-16.85,2.66-11.82.59-24.44-10.47-32.57a64.87,64.87,0,0,0-7.44-4.74c-3.85-2.1-7.85-3.86-11.7-6a32.67,32.67,0,0,1-6.25-4.25c-2.67-2.4-3.16-5.84-2.3-9.4a7.49,7.49,0,0,1,6.34-6,10.7,10.7,0,0,1,11.4,4.89c.77,1.13,1.48,2.31,2.24,3.51l13.87-10c-4-8-9.45-13.6-17.39-15.2a43.36,43.36,0,0,0-12.76-.61c-10.76,1.06-19.21,9.11-21.16,20.25-2.11,12,.64,22.48,9.89,29.7,4,3.11,8.54,5.3,12.89,7.78,3.46,2,7,3.62,10.49,5.6a10.11,10.11,0,0,1,4.87,5.92,9.7,9.7,0,0,1-6.33,12.37c-7.24,2.59-15.21-.07-20.26-6.82-1.07-1.44-2-3-3.07-4.52Zm-63.66,2.2c4.11,9.44,10.39,15.67,19.42,17.51a40.66,40.66,0,0,0,13.16.46c9-1.14,16-6.13,19.14-16.1a49.7,49.7,0,0,0,2.09-13.92c.21-22.28.09-44.57.09-66.85V99.15h-18v2.92q0,32.28,0,64.55a41,41,0,0,1-.41,6.17c-.56,3.65-2.22,6.36-5.62,7.36-5,1.47-9.21-.11-12.27-4.74-1.08-1.64-2-3.41-3-5.16Z"/><path class="cls-2" d="M114,178l14.47-9.47c1,1.54,2,3.08,3.07,4.52,5.05,6.75,13,9.41,20.26,6.82a9.7,9.7,0,0,0,6.33-12.37,10.11,10.11,0,0,0-4.87-5.92c-3.44-2-7-3.64-10.49-5.6-4.35-2.48-8.91-4.67-12.89-7.78-9.25-7.22-12-17.66-9.89-29.7,2-11.14,10.4-19.19,21.16-20.25a43.36,43.36,0,0,1,12.76.61c7.94,1.6,13.43,7.25,17.39,15.2l-13.87,10c-.76-1.2-1.47-2.38-2.24-3.51a10.7,10.7,0,0,0-11.4-4.89,7.49,7.49,0,0,0-6.34,6c-.86,3.56-.37,7,2.3,9.4a32.67,32.67,0,0,0,6.25,4.25c3.85,2.1,7.85,3.86,11.7,6a64.87,64.87,0,0,1,7.44,4.74c11.06,8.13,13.13,20.75,10.47,32.57-1.84,8.21-6.72,13.84-13.62,16.85-12.06,5.25-24,4.56-35.43-2.39C121.12,189.73,117,184.54,114,178Z"/><path class="cls-2" d="M50.34,180.17l14.56-9.92c1,1.75,1.95,3.52,3,5.16,3.06,4.63,7.3,6.21,12.27,4.74,3.4-1,5.06-3.71,5.62-7.36a41,41,0,0,0,.41-6.17q0-32.28,0-64.55V99.15h18v2.12c0,22.28.12,44.57-.09,66.85A49.7,49.7,0,0,1,102.06,182c-3.11,10-10.13,15-19.14,16.1a40.66,40.66,0,0,1-13.16-.46C60.73,195.84,54.45,189.61,50.34,180.17Z"/></g></g></svg>