<svg xmlns="http://www.w3.org/2000/svg" viewBox="0 0 191.93 215"><defs><style>.cls-1{fill:#0868ab;}.cls-2{fill:#0867ab;}</style></defs><title>JQuery</title><g id="Capa_2" data-name="Capa 2"><g id="JQuery"><path class="cls-1" d="M185.94,161.13c-18.43,38.54-47.05,55.48-83.38,53.75-43.63-2.08-74.49-29.09-92.92-75C-5.19,103-3.81,66.56,20.08,34.19c1-1.29,2.1-2.38,3.16-3.56-.33,1.7-.53,3.45-1,5.1-13.17,47,5.27,100.75,45,131.1,39,29.78,87.29,26.85,117.51-7.14Z"/><path class="cls-2" d="M146.12,123.48c16.57-.17,31.07-6.4,42.89-20.63a19.09,19.09,0,0,1,2.92-2.38,31.16,31.16,0,0,1-1.34,4.23c-13.51,28.24-34.73,39.7-61.06,38.44-31-1.48-53.06-20.59-66.4-53.16-11.06-27-8.55-53.26,7.38-77.14A12.85,12.85,0,0,1,72.39,11a21.72,21.72,0,0,1-.23,2.57C60.62,70.25,96.46,123.52,146.12,123.48Z"/><path class="cls-2" d="M184.8,61.08c-17.5,25.22-38.56,25.25-59.31,8.52-19.47-15.7-27.3-38-15.76-65.48C110.41,2.5,111.9,1.36,113,0c-.16,1.74-.31,3.48-.47,5.22-2.09,23.93,6.63,41.89,23.27,53.56,15.27,10.71,31.69,14.65,47.8.94Z"/><path class="cls-1" d="M184.8,61.08l-1.19-1.36,3.19-2.92C186.13,58.22,185.47,59.65,184.8,61.08Z"/><path class="cls-2" d="M185.94,161.13l-1.18-1.44,2.62-2.85Z"/></g></g></svg>