<svg xmlns="http://www.w3.org/2000/svg" viewBox="0 0 191 215"><defs><style>.cls-1{fill:#0079cb;}.cls-2{fill:#005e9d;}.cls-3{fill:#fefefe;}</style></defs><title>TypeScript</title><g id="Capa_2" data-name="Capa 2"><g id="TypeScript"><path class="cls-1" d="M.05,214.23V3.27A17,17,0,0,0,0,1.13C-.09.19.17-.1,1,0a12.17,12.17,0,0,0,1.91,0H190.32V209.79c0,4.81.32,4.44-3.94,4.44ZM143,197.44c7.31.22,12.33-.4,17.16-2.51,6.4-2.79,11.41-7.29,14-14.63,4.43-12.41.62-26.67-9.11-34.29A69.35,69.35,0,0,0,154,139.14c-3.46-1.78-6.95-3.51-10.4-5.34a13.45,13.45,0,0,1-4.18-3.21,9.52,9.52,0,0,1-2-8.92,7.18,7.18,0,0,1,5.86-5.76,10.21,10.21,0,0,1,11.13,4.23c.68.92,1.27,1.91,1.93,2.84.44.62.94.87,1.64.35q5.81-4.39,11.63-8.74a1.3,1.3,0,0,0,.36-2c-3.59-6-8-10.78-14.33-12.94-3.91-1.33-7.93-1.41-12-1.39-11.91.06-24.88,9.89-24.1,27.79.37,8.61,3.29,15.39,9.07,20.78a39.41,39.41,0,0,0,8.66,6c4,2.11,8.1,4.14,12.14,6.24a24.63,24.63,0,0,1,5.47,3.6,8.69,8.69,0,0,1,3,6c.3,4.75-1.35,8.06-5.44,9.77-6.42,2.69-12.51,1.84-18-3a24.82,24.82,0,0,1-5.1-6.35c-.54-.94-1-1.32-2-.65-3.92,2.63-7.86,5.19-11.82,7.73-1.2.78-1.27,1.59-.54,2.89,2.51,4.48,5.41,8.53,9.42,11.47C130.75,195.15,137.66,197.43,143,197.44ZM66.94,156.66v36.5c0,3.23-.29,3.21,2.68,3.21,4.13,0,8.27,0,12.4,0,2.56,0,2.58,0,2.59-2.94q0-16.09,0-32.21,0-20.76,0-41.51c0-2.73,0-2.73,2.42-2.78.63,0,1.27,0,1.91,0,6.14,0,12.29,0,18.44,0,1.39,0,2.14-.25,2.09-2.13-.13-4.29,0-8.59-.1-12.89,0-2.35-.1-2.36-2.13-2.49-.42,0-.84,0-1.27,0-14.41-.27-28.82-.16-43.23-.06-6,0-12.08,0-18.12.11-2.3,0-2.34.07-2.38,2.52q-.11,6.09-.11,12.17c0,2.72,0,2.77,2.43,2.77,6.46,0,12.93,0,19.39,0,2.95,0,3,0,3,3.23Z"/><path class="cls-2" d="M.05,214.23H186.38c4.26,0,3.94.37,3.94-4.44V.05c.21,0,.61,0,.61,0,0,1,0,1.91,0,2.87V212.08a11.86,11.86,0,0,0,0,1.79c.13.94-.14,1.24-1,1.09a9.37,9.37,0,0,0-1.59,0H2.59C1,215,1,214.94.05,214.23Z"/><path class="cls-3" d="M143,197.44c-5.33,0-12.24-2.29-18.54-6.92-4-2.94-6.91-7-9.42-11.47-.73-1.3-.66-2.11.54-2.89,4-2.54,7.9-5.1,11.82-7.73,1-.67,1.48-.29,2,.65a24.82,24.82,0,0,0,5.1,6.35c5.47,4.82,11.56,5.67,18,3,4.09-1.71,5.74-5,5.44-9.77a8.69,8.69,0,0,0-3-6,24.63,24.63,0,0,0-5.47-3.6c-4-2.1-8.11-4.13-12.14-6.24a39.41,39.41,0,0,1-8.66-6c-5.78-5.39-8.7-12.17-9.07-20.78-.78-17.9,12.19-27.73,24.1-27.79,4,0,8.06.06,12,1.39,6.32,2.16,10.74,6.95,14.33,12.94a1.3,1.3,0,0,1-.36,2q-5.82,4.35-11.63,8.74c-.7.52-1.2.27-1.64-.35-.66-.93-1.25-1.92-1.93-2.84a10.21,10.21,0,0,0-11.13-4.23,7.18,7.18,0,0,0-5.86,5.76,9.52,9.52,0,0,0,2,8.92,13.45,13.45,0,0,0,4.18,3.21c3.45,1.83,6.94,3.56,10.4,5.34A69.35,69.35,0,0,1,165.08,146c9.73,7.62,13.54,21.88,9.11,34.29-2.63,7.34-7.64,11.84-14,14.63C155.32,197,150.3,197.66,143,197.44Z"/><path class="cls-3" d="M66.94,156.66V120.15c0-3.22,0-3.23-3-3.23-6.46,0-12.93,0-19.39,0-2.4,0-2.43-.05-2.43-2.77q0-6.07.11-12.17c0-2.45.08-2.5,2.38-2.52,6-.06,12.08-.07,18.12-.11,14.41-.1,28.82-.21,43.23.06.43,0,.85,0,1.27,0,2,.13,2.1.14,2.13,2.49.06,4.3,0,8.6.1,12.89,0,1.88-.7,2.15-2.09,2.13-6.15-.05-12.3,0-18.44,0-.64,0-1.28,0-1.91,0-2.38,0-2.42,0-2.42,2.78q0,20.76,0,41.51,0,16.11,0,32.21c0,2.9,0,2.93-2.59,2.94-4.13,0-8.27,0-12.4,0-3,0-2.68,0-2.68-3.21Z"/></g></g></svg>