<svg xmlns="http://www.w3.org/2000/svg" viewBox="0 0 369.29 501.74"><defs><style>.cls-1{font-size:150px;font-family:TitilliumWeb-ExtraLight, Titillium Web;font-weight:200;}.cls-1,.cls-5{fill:#fff;}.cls-2{letter-spacing:0.02em;}.cls-3{letter-spacing:0em;}.cls-4{fill:none;stroke:#fff;stroke-miterlimit:10;stroke-width:3px;}</style></defs><title>Hexo</title><g id="Capa_2" data-name="Capa 2"><g id="P5"><text class="cls-1" transform="translate(0 461.69)">H<tspan class="cls-2" x="101.1" y="0">E</tspan><tspan class="cls-3" x="186.9" y="0">X</tspan><tspan x="269.4" y="0">O</tspan></text><polygon class="cls-4" points="344.18 140.01 264.21 276.87 105.71 276.04 161.62 180.86 210.38 180.86 234.76 138.64 210.38 96.41 161.62 96.41 107.14 1.51 265.64 2.34 344.18 140.01"/><polyline class="cls-4" points="150.5 78.03 222.17 78.03 258 139.7 222.17 201.36 150.5 201.36"/><polyline class="cls-4" points="139 58.68 232.11 58.68 278.67 138.86 232.11 219.03 139 219.03"/><polyline class="cls-4" points="128.67 38.36 241.97 38.36 298.62 138.37 241.97 238.36 128.67 238.36"/><polyline class="cls-4" points="117 20.19 253.12 20.19 321.18 138.46 253.12 256.69 117 256.69"/><polygon class="cls-5" points="209.88 121.71 176.96 121.71 185.68 139.69 176.96 157.68 209.88 157.68 219.28 139.69 209.88 121.71"/></g></g></svg>